<svg width="300" height="120" viewBox="0 0 300 120" fill="none" xmlns="http://www.w3.org/2000/svg">
<path d="M50.9229 75.1865L48.7684 79.4383C48.7684 79.4383 46.4436 77.8232 44.0344 77.8232C42.2204 77.8232 41.2562 78.6458 41.2562 79.9204C41.2562 81.2238 43.4679 82.1593 46.1317 83.2939C48.7397 84.3999 51.6024 86.6102 51.6024 89.6717C51.6024 95.2555 47.3506 97.2127 42.7869 97.2127C37.3161 97.2127 34 94.1224 34 94.1224L36.6653 89.6431C36.6653 89.6431 39.7841 92.2798 42.3907 92.2798C43.5523 92.2798 45.7641 92.1668 45.7641 89.9836C45.7641 88.2825 43.2691 87.5171 40.4922 86.128C37.6853 84.7389 36.0415 82.5556 36.0415 80.1178C36.0415 75.7529 39.8972 72.9746 43.6668 72.9746C47.9186 72.9762 50.9229 75.1865 50.9229 75.1865Z" fill="white"/>
<path d="M73.0321 92.1108H81.0823V96.7877H67.7031V73.4023H73.0321V92.1108Z" fill="white"/>
<path d="M105.8 72.9766C112.291 72.9766 117.565 78.2486 117.565 85.0814C117.565 91.9142 112.519 97.2132 105.8 97.2132C98.8834 97.2132 94.0078 91.9127 94.0078 85.0814C94.0078 78.25 99.367 72.9766 105.8 72.9766ZM105.8 92.0543C110.052 92.0543 111.811 88.5678 111.811 85.0814C111.811 81.5948 109.939 78.1084 105.8 78.1084C101.69 78.1084 99.7634 81.5948 99.7634 85.0814C99.7634 88.5678 101.436 92.0543 105.8 92.0543Z" fill="white"/>
<path d="M130.007 73.4023H146.448V78.0791H140.892V96.7877H135.562V78.0791H130.006V73.4023H130.007Z" fill="white"/>
<path d="M180.212 82.9276H180.07L175.279 96.6475H172.105L167.314 82.9276H167.171L166.066 96.7891H160.736L162.834 73.4023H168.504L173.69 86.8963L178.878 73.4023H184.548L186.646 96.7891H181.316L180.212 82.9276Z" fill="white"/>
<path d="M208.865 96.7891H203.535V73.4023H208.865V96.7891Z" fill="white"/>
<path d="M232.906 92.1108H240.956V96.7877H227.576V73.4023H232.906V92.1108Z" fill="white"/>
<path d="M258.558 92.1108H266.608V96.7877H253.229V73.4023H258.558V92.1108Z" fill="white"/>
<path d="M174.562 33.3254C174.543 32.3942 174.267 31.0578 174.065 30.2653C173.941 29.7741 174.209 29.9926 174.49 30.8243C174.218 29.5587 173.783 28.2042 173.688 28.2042C173.588 28.2042 173.645 28.4 173.627 28.4814C173.555 28.3051 173.454 27.8802 173.336 27.5743C173.188 27.2068 173.03 26.9913 173.139 27.3258C173.345 27.9315 174.142 31.1407 174.228 31.7087C174.142 31.4029 174.047 31.0549 173.979 30.8167C173.138 27.8712 172.132 25.5419 170.82 23.1161C170.921 23.2019 170.968 23.2397 171.029 23.2969C171.042 23.1582 171.054 23.0483 171.073 22.872C171.339 23.2592 171.574 23.5877 171.804 23.9221C171.33 22.6565 170.491 21.5928 169.798 20.4944C169.77 20.5427 169.745 20.5803 169.708 20.6376C168.911 19.5347 167.841 18.6141 167.407 17.3108C167.387 17.3681 167.374 17.4012 167.359 17.4449C167.301 16.8001 166.461 17.1782 166.547 16.5138C167.034 16.7669 167.846 17.4298 168.237 17.7884C168.625 18.141 168.796 18.147 168.935 18.1606C169.054 18.1741 168.796 17.9512 168.878 17.8788C168.983 17.7884 170.023 19.1671 170.553 19.7652C169.087 16.4897 165.183 15.2964 162.438 13.2006C155.239 8.52684 145.559 7.3245 137.854 11.7964C137.51 11.9967 137.042 12.2936 136.841 12.4261C136.636 12.5557 137.079 12.4171 137.099 12.4352C136.89 12.5783 136.703 12.7079 136.478 12.8646C136.249 13.0228 136.731 12.9083 136.621 12.9836C136.507 13.065 136.082 13.6526 136.654 13.2744C137.227 12.8977 137.876 12.4683 138.22 12.4683C138.564 12.4683 136.85 13.4326 136.219 13.8424C135.231 14.4873 134.352 15.0598 133.789 15.4561C133.316 15.7906 132.829 16.1296 132.724 16.0527C132.537 15.9141 133.201 15.3702 133.283 15.2467C133.412 15.0508 132.567 15.5947 132.763 15.3898C132.959 15.1849 134.022 14.1769 134.72 13.6526C135.198 13.2895 135.493 13.0755 135.484 12.9218C135.469 12.7697 134.993 13.0168 134.476 13.2985C130.742 15.3506 129.45 19.6854 127.759 23.2758C127.911 23.2668 128.036 23.2561 128.226 23.2426C127.825 24.0969 127.315 24.8563 127.238 25.783C127.429 25.6443 127.533 25.453 127.764 25.3821C127.854 25.6835 127.682 25.9592 127.616 26.2455C127.64 26.25 127.66 26.259 127.678 26.265C127.792 25.9592 127.907 25.6533 128.017 25.3535C128.112 25.3626 128.189 25.3671 128.283 25.3776C127.969 27.6648 127.725 29.9323 127.104 32.1713L127.132 32.1426C126.597 33.7895 127.3 35.4181 127.089 37.1689H127.027C126.879 36.3102 126.573 35.4694 126.76 34.5669C126.732 34.6045 126.703 34.6437 126.631 34.7296C126.607 34.4855 126.578 34.2565 126.554 34.038C126.534 33.8708 126.316 33.8708 126.329 34.0185C126.411 34.9346 126.195 35.837 126.477 36.7682C126.515 36.6386 126.549 36.506 126.567 36.4442C126.858 37.8243 127.598 41.142 127.398 40.7216C127.197 40.3013 127.078 39.7092 126.915 39.203C127.12 41.0019 127.765 42.7015 128.415 44.3784C128.362 44.383 128.214 44.2594 128.1 43.9912C128.033 43.8285 127.862 43.833 127.89 43.934C128.005 44.297 128.32 44.8742 128.482 45.2132C128.392 44.9269 128.291 44.5834 128.32 44.5352C128.725 45.0127 129.16 45.9529 129.432 46.4546C129.704 46.9564 130.668 48.6694 130.028 47.7715C129.388 46.8735 128.027 45.0595 127.373 43.5181C127.178 43.0646 127.063 42.3865 126.968 42.382C126.873 42.3775 126.891 42.587 126.878 42.6639C126.816 42.5779 126.805 42.1575 126.73 42.1862C126.596 42.2344 127.111 44.0816 126.959 43.8285C126.811 43.5754 126.53 42.4197 126.468 42.0762C126.521 42.816 126.735 43.4894 126.716 43.6703C126.096 42.6864 126.377 41.6273 126.377 41.1014C126.393 41.4254 126.454 41.7703 126.549 41.9798C126.472 41.4073 126.587 40.8 126.563 40.6237C126.543 40.4475 126.296 40.5906 126.31 40.8C126.262 40.69 126.248 40.4987 126.186 40.5138C126.129 40.5228 126.129 40.7292 126.12 40.8527C126.087 40.8045 126.082 40.7187 126.043 40.7474C125.999 40.7714 126.029 41.2777 125.909 41.1962C125.843 41.1586 125.904 40.7382 125.909 40.3707C125.913 40.0317 125.865 39.7408 125.799 39.765C125.656 39.8132 125.775 39.9849 125.733 40.5092C125.695 40.9869 125.284 40.2938 125.317 40.6102C125.33 40.7247 125.207 41.0969 125.302 41.5308C125.392 41.9648 125.282 42.6186 125.392 42.4996C125.502 42.3851 125.458 42.3083 125.54 42.2465C125.564 42.2796 125.549 42.3806 125.612 42.3475C125.674 42.3098 125.66 42.1757 125.694 42.0566C127.541 52.8355 137.546 57.7775 147.127 60.7125C147.051 60.7456 146.998 60.7696 146.947 60.7938C158.591 63.0373 170.538 53.7139 173.693 42.9969C173.774 42.715 173.966 41.6227 174.094 40.8347C173.669 42.248 173.373 42.2088 173.382 42.1093C173.497 41.1646 173.627 40.5198 173.864 40.0799C174.547 39.0101 174.126 36.2845 173.917 36.1459C173.755 36.0404 173.693 36.28 173.679 36.28C173.698 36.0646 173.756 35.3534 173.593 35.6969C173.47 35.9501 173.889 42.233 171.761 44.9193C171.674 43.2198 172.591 41.5926 173.087 39.9398C173.074 39.9353 173.058 39.9306 173.049 39.9262C172.92 40.1311 172.796 40.342 172.658 40.571C172.643 40.5047 172.629 40.4565 172.62 40.4128C172.448 40.5138 172.478 40.8 172.2 40.8137C172.262 40.4655 172.323 40.1356 172.381 39.8056C171.001 42.3112 170.523 45.4918 168.662 47.8016C168.343 48.1979 168.915 46.8284 169.249 45.9063C169.551 45.0941 169.494 44.7326 168.935 45.7481C168.28 46.9413 167.069 48.4028 166.071 49.3279C162.537 52.6035 158.443 55.543 153.401 55.7193V55.7525H153.846C150.266 56.1682 146.107 55.8428 142.785 54.306C142.79 54.2909 142.8 54.2819 142.805 54.2729C143.273 54.4401 144.266 54.9644 144.227 54.7173C144.212 54.6119 142.957 54.2261 141.64 53.6099C139.841 52.7647 137.816 51.6286 137.682 51.5186C137.449 51.3272 137.92 51.8139 137.902 51.8336C135.372 50.0767 133.611 47.2501 132.26 44.386C132.055 43.9566 131.711 43.6416 131.511 43.1595C131.368 42.816 131.295 42.1757 131.334 42.1185C131.497 41.8517 131.101 41.5836 131.13 42.013C131.139 42.1893 131.407 43.2831 131.588 43.7939C131.664 44.0093 131.411 43.5694 131.315 43.3117C130.675 41.5986 130.617 41.2928 130.48 40.6765C130.48 42.4183 131.779 45.1785 131.979 45.6607C131.702 45.4693 131.301 44.9208 131.116 44.3619C131.303 45.0203 131.497 45.5702 131.484 45.7842C130.539 44.0998 129.789 40.461 129.56 40.461C129.335 40.4746 129.564 41.038 129.584 41.3109C129.035 40.4852 128.686 37.8695 128.886 37.2006C129.034 34.2128 129.502 31.1528 130.553 28.3353C130.553 28.3308 130.553 28.3202 130.557 28.3156C130.562 28.2961 130.572 28.2779 130.577 28.2584C131.475 25.8673 132.791 23.6509 134.682 21.8188C134.669 21.8098 134.654 21.7947 134.639 21.7857C134.304 22.081 133.976 22.3733 133.641 22.6641C134.028 21.3759 135.427 20.7024 135.942 19.5618C135.918 19.5467 135.898 19.5332 135.876 19.5181C136.153 19.265 136.435 19.0119 136.754 18.7166C136.19 18.9742 135.913 19.5663 135.279 19.604C136.902 17.7658 139.284 16.1959 141.089 15.1306C140.921 15.2316 140.936 15.5555 141.265 15.67C141.566 15.7755 141.8 15.221 142.196 15.0643C144.659 14.0805 147.319 14.201 149.754 14.6681C147.138 13.7324 143.787 14.0187 143.061 14.1905C143.849 13.7987 145.005 13.847 145.447 13.8228C153.014 13.4311 160.202 18.3866 164.59 24.4013C164.834 24.7357 165.339 25.5328 165.534 26.1205C165.616 26.369 166.069 27.166 166.225 27.0515C166.384 26.937 166.13 26.3027 165.81 25.92C165.372 25.4003 165.107 24.7644 164.564 23.7865C165.07 24.3877 165.466 24.8563 165.897 25.3716C164.903 23.6435 162.411 21.1423 162.149 20.4312C163.582 21.4768 164.674 22.8328 165.586 24.3079C166.403 25.6353 167.228 27.3876 167.729 28.4467C167.791 28.5808 167.831 28.6562 167.849 28.6803C167.805 28.5282 167.105 26.8904 167.094 26.8904C166.669 25.5448 165.925 24.2702 165.299 22.9609C165.705 23.309 165.652 23.3135 165.772 23.205C165.891 23.095 165.098 22.1171 164.951 21.4813C165.466 22.2829 165.981 23.0905 166.528 23.9447C166.404 23.6389 166.303 23.3813 166.197 23.1236C166.213 23.1191 166.225 23.11 166.241 23.104C166.886 23.901 167.525 24.6981 168.165 25.4951C167.572 24.2642 166.589 23.2561 166.003 22.0629C166.04 22.0434 166.075 22.0297 166.109 22.0102C166.657 22.9081 167.865 24.0532 168.131 24.4013C168.399 24.7493 167.563 23.2893 167.912 23.6901C168.26 24.091 168.794 24.8548 168.909 25.022C169.023 25.1892 169.114 25.1937 168.967 24.9783C168.819 24.7628 167.84 23.3601 167.277 22.548C167.296 22.5345 167.314 22.5194 167.333 22.5043C168.775 24.3802 170.145 26.3524 170.957 28.5869C170.107 25.2119 167.644 22.539 165.648 19.7607C166.661 20.5623 167.358 21.6365 168.207 22.5722C168.223 22.5572 168.241 22.548 168.26 22.5345C168.14 22.3145 168.022 22.09 167.901 21.8715C169.797 23.5183 171.081 28.1258 171.205 28.4256C171.325 28.7209 171.119 27.8004 170.977 27.1705C170.834 26.5408 171.077 26.7125 171.072 27.151C171.067 27.5895 171.73 28.8551 171.338 29.5285C171.304 29.4758 171.276 29.4231 171.219 29.3237C171.538 30.2924 171.42 31.2958 171.797 32.1833C171.976 33.6779 171.877 35.171 171.791 36.6566C171.806 36.6566 171.825 36.6521 171.84 36.6521C171.897 36.1941 171.958 35.7361 172.016 35.2826H172.078V35.8129C172.164 34.9962 172.02 34.1044 172.316 33.354C172.368 33.788 172.421 34.2234 172.479 34.6527C172.512 34.6527 172.544 34.6482 172.579 34.6437C172.755 32.8206 172.56 31.0065 172.375 29.1926C172.403 29.1881 172.427 29.1881 172.452 29.1834C172.489 29.4321 172.528 29.6746 172.57 29.976C172.619 29.8615 172.643 29.7998 172.676 29.7229C172.897 30.306 172.971 30.9207 173.358 31.4224C173.244 30.7535 173.402 30.1147 173.407 29.4456C173.707 30.2141 173.851 31.6846 173.913 31.8187C173.975 31.9528 173.979 31.7132 173.961 31.6666C174.17 32.2873 174.324 34.1344 174.333 33.8482C174.347 33.5619 174.353 33.0315 174.272 32.0492C174.333 32.2647 174.457 32.6277 174.562 33.3254ZM168.056 50.5633C167.667 50.8497 167.625 50.8542 168.103 50.2575C168.581 49.6609 169.626 47.999 170.023 47.2833C170.419 46.5676 169.95 48.1617 170.313 47.5078C170.672 46.8539 170.925 46.5481 171.344 44.9781C171.381 45.4754 170.866 47.4838 170.208 48.6152C169.554 49.7513 168.279 51.0832 167.802 51.6376C167.324 52.1966 168.68 50.3872 169.176 49.7708C169.673 49.1546 169.964 48.6152 170.068 48.3575C169.564 49.0642 168.437 50.2771 168.056 50.5633ZM132.54 46.9111C133.145 48.5625 135.666 51.0982 136.884 51.7416C134.883 50.8828 133.215 49.6986 132.936 49.1516C132.757 48.7991 133.048 48.8668 133.307 49.1742C133.573 49.4906 133.712 49.6397 134.14 49.8989C133.127 48.5941 132.677 47.7399 132.54 46.9111ZM140.435 11.9199C139.838 12.1067 139.299 12.2725 139.996 11.8958C140.622 11.5613 142.006 11.0701 142.264 11.3323C142.522 11.5899 141.031 11.7285 140.435 11.9199ZM161.052 18.3399C162.274 18.5599 162.47 19.9535 162.882 20.3408C162.117 19.6341 161.348 18.8507 161.052 18.3399ZM164.786 20.1735C164.533 19.9641 164.433 19.6055 164.433 19.6055C164.624 19.7486 165.062 20.2926 165.14 20.3829C165.215 20.4734 165.034 20.3829 164.786 20.1735Z" fill="#BE202E"/>
<path d="M130.084 30.5965C130.245 29.819 130.406 29.043 130.566 28.2656C130.587 28.2701 130.608 28.2746 130.631 28.2791C130.482 29.0656 130.333 29.8506 130.183 30.6371C130.15 30.6236 130.117 30.61 130.084 30.5965Z" fill="#BE202E"/>
<path d="M127.104 32.1702C127.049 31.5676 127.112 30.9739 127.23 30.3848C127.251 30.3863 127.272 30.3893 127.293 30.3908C127.23 30.9844 127.168 31.5766 127.104 32.1702Z" fill="#BE202E"/>
<path d="M169.658 43.8413C169.477 44.1774 169.256 44.8116 169.658 44.4681C170.06 44.1246 169.84 43.4994 169.658 43.8413Z" fill="#BE202E"/>
<path d="M172.772 39.4732C172.916 39.0784 172.798 38.2663 172.995 38.756C173.192 39.2457 172.543 40.1 172.772 39.4732Z" fill="#BE202E"/>
<path d="M125.268 40.4006C125.387 40.6401 125.297 39.3172 125.098 39.3262C124.898 39.3369 124.809 39.4754 124.898 39.8626C124.988 40.2514 125.172 40.2077 125.268 40.4006Z" fill="#BE202E"/>
<path d="M125.612 39.0979C125.546 38.9291 125.306 38.3898 125.388 38.2768C125.469 38.1652 125.575 38.2089 125.648 38.4561C125.722 38.7032 125.688 39.2908 125.612 39.0979Z" fill="#BE202E"/>
<path d="M129.155 39.4481C129.181 39.3442 129.283 39.0096 129.214 38.9599C129.145 38.9102 129.077 38.9494 129.054 39.097C129.032 39.2447 129.127 39.5656 129.155 39.4481Z" fill="#BE202E"/>
<path d="M125.796 37.7447C125.998 37.7312 125.853 37.9828 125.745 38.0807C125.689 38.1334 125.562 37.7612 125.796 37.7447Z" fill="#BE202E"/>
<path d="M126.411 40.0596C126.57 40.1003 126.462 40.248 126.379 40.2931C126.335 40.3172 126.225 40.0129 126.411 40.0596Z" fill="#BE202E"/>
<path d="M168.286 28.3274C168.137 27.9628 168.538 28.6951 168.787 29.3806C168.937 29.7859 169.073 30.125 168.998 30.3314C168.867 30.7004 168.636 29.1803 168.286 28.3274Z" fill="#BE202E"/>
<path d="M168.638 26.2812C168.903 26.7679 169.072 27.0271 169.176 26.9819C169.28 26.9367 169.325 26.7137 169.176 26.5194C169.027 26.3249 168.486 26.0056 168.638 26.2812Z" fill="#BE202E"/>
<path d="M169.595 27.1025C169.658 27.2968 170.004 27.2079 169.858 27.0106C169.712 26.8132 169.526 26.8901 169.595 27.1025Z" fill="#BE202E"/>
<path d="M173.012 37.7842C173.029 37.9605 172.697 37.953 172.75 37.7587C172.805 37.5628 172.994 37.5915 173.012 37.7842Z" fill="#BE202E"/>
<path d="M173.972 40.8042C174.05 40.5406 173.808 40.4969 173.786 40.7409C173.762 41.0076 173.895 41.0679 173.972 40.8042Z" fill="#BE202E"/>
<path d="M172.359 39.3801C172.43 39.7327 171.946 40.025 171.972 39.5669C171.996 39.1089 172.28 38.9929 172.359 39.3801Z" fill="#BE202E"/>
<path d="M131.075 41.5338C130.943 41.4649 131.053 41.3045 131.135 41.3556C131.216 41.408 131.246 41.6222 131.075 41.5338Z" fill="#BE202E"/>
<path d="M166.797 27.3165C166.675 27.3421 166.785 27.6946 166.926 27.6449C167.064 27.5951 166.935 27.2863 166.797 27.3165Z" fill="#BE202E"/>
<path d="M168.639 25.4982C168.518 25.5237 168.562 25.7095 168.699 25.66C168.838 25.6106 168.779 25.4683 168.639 25.4982Z" fill="#BE202E"/>
<path d="M168.234 27.6977C168.187 27.532 168.668 27.9569 168.55 28.1603C168.43 28.3636 168.306 27.9598 168.234 27.6977Z" fill="#BE202E"/>
<path d="M67.058 107.464V110.899H66.4434V102.371H68.6431C69.6436 102.371 70.3983 102.59 70.9061 103.028C71.4138 103.467 71.6685 104.09 71.6685 104.902C71.6685 105.276 71.5991 105.62 71.4606 105.933C71.3219 106.246 71.1216 106.516 70.861 106.744C70.6002 106.971 70.2824 107.147 69.9087 107.274C69.535 107.4 69.1132 107.464 68.6431 107.464H67.058ZM67.058 106.968H68.6431C69.0213 106.968 69.3588 106.915 69.6555 106.811C69.9524 106.707 70.2056 106.563 70.4119 106.377C70.6183 106.192 70.7781 105.975 70.8881 105.724C70.998 105.472 71.0537 105.198 71.0537 104.901C71.0537 104.245 70.8518 103.742 70.4481 103.388C70.0443 103.034 69.4431 102.858 68.6431 102.858H67.058V106.968Z" fill="white"/>
<path d="M75.4174 107.04V110.897H74.8027V102.369H76.9783C77.9622 102.369 78.6974 102.559 79.1841 102.939C79.6708 103.318 79.9134 103.876 79.9134 104.611C79.9134 104.937 79.8576 105.233 79.7447 105.503C79.6316 105.773 79.4704 106.008 79.2594 106.211C79.0485 106.415 78.7939 106.58 78.4971 106.711C78.2003 106.842 77.8643 106.927 77.4907 106.967C77.5871 107.028 77.6729 107.108 77.7498 107.209L80.6847 110.897H80.1485C80.0836 110.897 80.0293 110.885 79.9827 110.861C79.9359 110.837 79.8908 110.796 79.8471 110.74L77.117 107.281C77.0491 107.192 76.9754 107.13 76.897 107.094C76.8187 107.058 76.6966 107.04 76.5324 107.04H75.4174ZM75.4174 106.583H76.9001C77.2781 106.583 77.6157 106.538 77.9156 106.448C78.2154 106.357 78.4684 106.228 78.6749 106.059C78.8813 105.89 79.0395 105.687 79.148 105.45C79.2565 105.214 79.3107 104.946 79.3107 104.649C79.3107 104.042 79.1119 103.593 78.714 103.299C78.3163 103.005 77.7377 102.859 76.9783 102.859H75.4174V106.583Z" fill="white"/>
<path d="M88.5443 102.369V102.881H84.0544V106.329H87.7909V106.829H84.0544V110.385H88.5443V110.897H83.4336V102.369H88.5443Z" fill="white"/>
<path d="M96.0166 108.776C96.0407 108.711 96.0662 108.648 96.0919 108.586C96.1175 108.524 96.1477 108.464 96.1793 108.408L99.5301 102.484C99.5618 102.431 99.5949 102.399 99.6265 102.387C99.6581 102.375 99.7034 102.369 99.7592 102.369H100.187V110.897H99.6447V103.629C99.6447 103.525 99.6507 103.413 99.6626 103.297L96.3059 109.258C96.2501 109.362 96.1688 109.414 96.0648 109.414H95.9683C95.8674 109.414 95.7876 109.362 95.7273 109.258L92.28 103.291C92.2921 103.409 92.2981 103.52 92.2981 103.629V110.897H91.7617V102.369H92.1836C92.2394 102.369 92.2845 102.375 92.3192 102.387C92.3539 102.399 92.3871 102.431 92.4187 102.484L95.8598 108.414C95.9201 108.527 95.9729 108.648 96.0166 108.776Z" fill="white"/>
<path d="M104.765 110.897H104.145V102.369H104.765V110.897Z" fill="white"/>
<path d="M111.881 110.457C112.291 110.457 112.657 110.386 112.981 110.243C113.305 110.1 113.579 109.903 113.803 109.649C114.028 109.396 114.2 109.098 114.319 108.754C114.438 108.411 114.496 108.04 114.496 107.643V102.369H115.111V107.643C115.111 108.113 115.037 108.551 114.888 108.959C114.739 109.368 114.525 109.723 114.246 110.026C113.967 110.329 113.627 110.567 113.228 110.74C112.828 110.913 112.379 110.999 111.881 110.999C111.382 110.999 110.933 110.913 110.534 110.74C110.135 110.567 109.794 110.329 109.515 110.026C109.237 109.723 109.023 109.368 108.873 108.959C108.724 108.551 108.65 108.113 108.65 107.643V102.369H109.271V107.637C109.271 108.034 109.33 108.405 109.449 108.748C109.568 109.092 109.738 109.39 109.961 109.643C110.184 109.897 110.457 110.095 110.781 110.24C111.105 110.385 111.471 110.457 111.881 110.457Z" fill="white"/>
<path d="M123.03 108.776C123.054 108.711 123.08 108.648 123.105 108.586C123.131 108.524 123.161 108.464 123.193 108.408L126.544 102.484C126.575 102.431 126.608 102.399 126.64 102.387C126.672 102.375 126.717 102.369 126.773 102.369H127.201V110.897H126.658V103.629C126.658 103.525 126.664 103.413 126.676 103.297L123.319 109.258C123.264 109.362 123.182 109.414 123.078 109.414H122.982C122.881 109.414 122.801 109.362 122.741 109.258L119.294 103.291C119.306 103.409 119.312 103.52 119.312 103.629V110.897H118.775V102.369H119.197C119.253 102.369 119.298 102.375 119.333 102.387C119.367 102.399 119.401 102.431 119.432 102.484L122.874 108.414C122.934 108.527 122.986 108.648 123.03 108.776Z" fill="white"/>
<path d="M140.665 109.463C140.706 109.463 140.739 109.477 140.767 109.506L141.008 109.765C140.832 109.953 140.639 110.123 140.43 110.274C140.221 110.425 139.993 110.553 139.746 110.66C139.499 110.767 139.228 110.848 138.932 110.907C138.637 110.965 138.313 110.994 137.959 110.994C137.368 110.994 136.827 110.89 136.335 110.684C135.842 110.477 135.42 110.184 135.069 109.804C134.718 109.424 134.444 108.965 134.246 108.427C134.049 107.889 133.951 107.291 133.951 106.631C133.951 105.984 134.052 105.394 134.256 104.859C134.459 104.326 134.744 103.866 135.111 103.482C135.479 103.098 135.919 102.801 136.431 102.59C136.943 102.379 137.509 102.273 138.128 102.273C138.437 102.273 138.72 102.296 138.977 102.343C139.235 102.389 139.475 102.456 139.698 102.542C139.921 102.627 140.13 102.736 140.327 102.864C140.525 102.994 140.718 103.141 140.906 103.31L140.719 103.581C140.688 103.629 140.636 103.654 140.569 103.654C140.532 103.654 140.486 103.632 140.43 103.59C140.374 103.548 140.302 103.497 140.216 103.434C140.13 103.372 140.025 103.302 139.903 103.229C139.78 103.155 139.634 103.086 139.466 103.024C139.297 102.962 139.103 102.909 138.881 102.867C138.66 102.825 138.41 102.804 138.128 102.804C137.609 102.804 137.133 102.893 136.699 103.072C136.265 103.251 135.892 103.506 135.578 103.837C135.265 104.169 135.021 104.571 134.846 105.043C134.671 105.514 134.584 106.045 134.584 106.631C134.584 107.233 134.67 107.771 134.843 108.246C135.016 108.721 135.255 109.121 135.56 109.448C135.866 109.775 136.226 110.027 136.642 110.202C137.058 110.376 137.509 110.464 137.995 110.464C138.301 110.464 138.572 110.444 138.812 110.403C139.051 110.363 139.271 110.303 139.472 110.223C139.672 110.143 139.859 110.043 140.032 109.927C140.205 109.811 140.376 109.674 140.544 109.518C140.564 109.501 140.584 109.489 140.602 109.478C140.62 109.468 140.641 109.463 140.665 109.463Z" fill="white"/>
<path d="M150.573 110.897H150.096C150.041 110.897 149.993 110.882 149.957 110.852C149.921 110.822 149.893 110.782 149.873 110.734L148.867 108.257H144.678L143.678 110.734C143.661 110.778 143.634 110.817 143.593 110.849C143.553 110.88 143.504 110.897 143.449 110.897H142.979L146.468 102.369H147.083L150.573 110.897ZM144.865 107.801H148.686L146.944 103.492C146.915 103.424 146.888 103.347 146.86 103.26C146.831 103.174 146.804 103.082 146.775 102.985C146.747 103.082 146.72 103.174 146.691 103.26C146.662 103.345 146.635 103.425 146.607 103.498L144.865 107.801Z" fill="white"/>
<path d="M157.263 103.408C157.227 103.476 157.174 103.511 157.106 103.511C157.053 103.511 156.985 103.473 156.904 103.399C156.823 103.326 156.71 103.243 156.569 103.152C156.426 103.062 156.25 102.979 156.039 102.902C155.828 102.825 155.566 102.788 155.255 102.788C154.945 102.788 154.673 102.831 154.437 102.92C154.201 103.009 154.002 103.13 153.844 103.282C153.685 103.434 153.564 103.612 153.48 103.812C153.398 104.013 153.357 104.224 153.357 104.445C153.357 104.734 153.419 104.974 153.541 105.162C153.663 105.351 153.826 105.512 154.027 105.644C154.227 105.777 154.456 105.888 154.712 105.979C154.967 106.069 155.23 106.16 155.499 106.247C155.769 106.336 156.031 106.432 156.287 106.539C156.544 106.646 156.772 106.779 156.973 106.94C157.175 107.101 157.336 107.299 157.46 107.534C157.583 107.769 157.644 108.061 157.644 108.411C157.644 108.768 157.583 109.105 157.46 109.42C157.338 109.735 157.16 110.009 156.927 110.243C156.693 110.476 156.408 110.66 156.071 110.794C155.733 110.928 155.348 110.996 154.913 110.996C154.352 110.996 153.866 110.897 153.461 110.698C153.056 110.499 152.7 110.228 152.395 109.881L152.563 109.616C152.612 109.556 152.667 109.526 152.733 109.526C152.769 109.526 152.815 109.55 152.87 109.598C152.927 109.646 152.996 109.705 153.076 109.776C153.155 109.847 153.253 109.922 153.365 110.005C153.478 110.088 153.609 110.163 153.757 110.234C153.906 110.305 154.075 110.363 154.268 110.412C154.462 110.46 154.682 110.484 154.928 110.484C155.264 110.484 155.568 110.433 155.832 110.33C156.098 110.228 156.322 110.088 156.506 109.911C156.691 109.735 156.828 109.524 156.925 109.282C157.021 109.039 157.07 108.778 157.07 108.501C157.07 108.2 157.008 107.951 156.886 107.757C156.764 107.562 156.601 107.4 156.4 107.269C156.2 107.138 155.971 107.029 155.715 106.94C155.46 106.851 155.197 106.765 154.928 106.681C154.658 106.597 154.395 106.502 154.14 106.398C153.883 106.294 153.655 106.16 153.453 105.997C153.252 105.834 153.091 105.631 152.968 105.388C152.846 105.146 152.783 104.841 152.783 104.475C152.783 104.19 152.838 103.915 152.946 103.65C153.055 103.384 153.214 103.151 153.423 102.947C153.632 102.744 153.889 102.581 154.198 102.459C154.506 102.337 154.857 102.275 155.251 102.275C155.695 102.275 156.091 102.346 156.443 102.486C156.796 102.626 157.115 102.842 157.405 103.131L157.263 103.408Z" fill="white"/>
<path d="M161.476 110.897H160.855V102.369H161.476V110.897Z" fill="white"/>
<path d="M165.88 102.392C165.912 102.406 165.945 102.438 165.982 102.486L171.502 109.875C171.491 109.754 171.484 109.638 171.484 109.525V102.371H172.026V110.899H171.731C171.64 110.899 171.564 110.858 171.509 110.779L165.965 103.378C165.976 103.498 165.982 103.613 165.982 103.721V110.899H165.445V102.371H165.747C165.803 102.37 165.848 102.377 165.88 102.392Z" fill="white"/>
<path d="M183.371 106.631C183.371 107.291 183.272 107.887 183.076 108.424C182.878 108.96 182.6 109.418 182.244 109.798C181.887 110.178 181.459 110.471 180.96 110.678C180.462 110.884 179.91 110.988 179.303 110.988C178.705 110.988 178.156 110.884 177.658 110.678C177.159 110.471 176.731 110.178 176.374 109.798C176.016 109.418 175.738 108.96 175.538 108.424C175.34 107.887 175.24 107.289 175.24 106.631C175.24 105.975 175.34 105.38 175.538 104.844C175.738 104.307 176.016 103.849 176.374 103.47C176.731 103.09 177.159 102.796 177.658 102.587C178.156 102.379 178.705 102.273 179.303 102.273C179.91 102.273 180.462 102.377 180.96 102.584C181.459 102.79 181.887 103.086 182.244 103.467C182.6 103.849 182.878 104.307 183.076 104.844C183.272 105.382 183.371 105.977 183.371 106.631ZM182.731 106.631C182.731 106.036 182.649 105.502 182.484 105.028C182.32 104.553 182.089 104.152 181.789 103.822C181.488 103.492 181.129 103.241 180.707 103.066C180.286 102.891 179.817 102.804 179.303 102.804C178.796 102.804 178.334 102.891 177.913 103.066C177.493 103.241 177.132 103.492 176.829 103.822C176.525 104.152 176.291 104.553 176.123 105.028C175.956 105.502 175.874 106.036 175.874 106.631C175.874 107.229 175.956 107.765 176.123 108.237C176.291 108.708 176.525 109.109 176.829 109.439C177.132 109.769 177.493 110.019 177.913 110.193C178.334 110.366 178.796 110.452 179.303 110.452C179.817 110.452 180.286 110.366 180.707 110.193C181.129 110.019 181.488 109.769 181.789 109.439C182.089 109.109 182.32 108.708 182.484 108.237C182.649 107.765 182.731 107.23 182.731 106.631Z" fill="white"/>
<path d="M193.773 110.494C194.066 110.494 194.333 110.479 194.575 110.449C194.815 110.418 195.04 110.373 195.246 110.313C195.453 110.253 195.65 110.179 195.837 110.093C196.023 110.007 196.212 109.909 196.401 109.801V107.505H194.761C194.717 107.505 194.68 107.491 194.649 107.462C194.62 107.434 194.604 107.402 194.604 107.366V107.029H196.961V110.06C196.748 110.209 196.527 110.342 196.298 110.458C196.069 110.574 195.824 110.672 195.563 110.75C195.302 110.828 195.021 110.889 194.719 110.931C194.418 110.973 194.088 110.994 193.731 110.994C193.116 110.994 192.553 110.89 192.046 110.684C191.538 110.477 191.101 110.184 190.739 109.804C190.375 109.424 190.092 108.965 189.892 108.427C189.691 107.889 189.59 107.291 189.59 106.631C189.59 105.972 189.691 105.374 189.892 104.838C190.092 104.301 190.378 103.843 190.748 103.464C191.117 103.084 191.565 102.79 192.095 102.584C192.623 102.377 193.214 102.273 193.869 102.273C194.194 102.273 194.494 102.296 194.77 102.34C195.046 102.383 195.302 102.45 195.539 102.536C195.775 102.621 195.996 102.728 196.202 102.855C196.406 102.982 196.604 103.128 196.792 103.292L196.63 103.557C196.594 103.617 196.544 103.648 196.478 103.648C196.442 103.648 196.407 103.64 196.377 103.623C196.316 103.599 196.229 103.544 196.114 103.455C196 103.366 195.845 103.274 195.65 103.177C195.455 103.081 195.212 102.995 194.918 102.918C194.624 102.841 194.269 102.804 193.851 102.804C193.296 102.804 192.796 102.893 192.35 103.069C191.904 103.245 191.523 103.498 191.208 103.828C190.893 104.158 190.649 104.559 190.479 105.034C190.309 105.508 190.223 106.04 190.223 106.631C190.223 107.233 190.31 107.774 190.482 108.252C190.655 108.73 190.897 109.135 191.208 109.466C191.52 109.798 191.894 110.052 192.33 110.229C192.765 110.407 193.246 110.494 193.773 110.494Z" fill="white"/>
<path d="M206.757 110.897H206.281C206.226 110.897 206.178 110.882 206.142 110.852C206.106 110.822 206.078 110.782 206.057 110.734L205.051 108.257H200.863L199.863 110.734C199.846 110.778 199.819 110.817 199.778 110.849C199.737 110.88 199.69 110.897 199.633 110.897H199.164L202.653 102.369H203.267L206.757 110.897ZM201.049 107.801H204.871L203.129 103.492C203.1 103.424 203.073 103.347 203.045 103.26C203.016 103.174 202.989 103.082 202.96 102.985C202.932 103.082 202.905 103.174 202.875 103.26C202.847 103.345 202.82 103.425 202.792 103.498L201.049 107.801Z" fill="white"/>
<path d="M213.564 108.776C213.588 108.711 213.614 108.648 213.639 108.586C213.664 108.524 213.695 108.464 213.727 108.408L217.077 102.484C217.109 102.431 217.141 102.399 217.174 102.387C217.206 102.375 217.251 102.369 217.306 102.369H217.734V110.897H217.192V103.629C217.192 103.525 217.198 103.413 217.21 103.297L213.853 109.258C213.798 109.362 213.715 109.414 213.611 109.414H213.515C213.415 109.414 213.335 109.362 213.274 109.258L209.826 103.291C209.839 103.409 209.844 103.52 209.844 103.629V110.897H209.309V102.369H209.73C209.787 102.369 209.832 102.375 209.866 102.387C209.901 102.399 209.934 102.431 209.965 102.484L213.407 108.414C213.467 108.527 213.519 108.648 213.564 108.776Z" fill="white"/>
<path d="M226.582 102.369V102.881H222.091V106.329H225.827V106.829H222.091V110.385H226.582V110.897H221.471V102.369H226.582Z" fill="white"/>
<path d="M233.932 103.408C233.897 103.476 233.844 103.511 233.776 103.511C233.723 103.511 233.655 103.473 233.574 103.399C233.492 103.326 233.38 103.243 233.239 103.152C233.096 103.062 232.92 102.979 232.709 102.902C232.498 102.825 232.236 102.788 231.926 102.788C231.615 102.788 231.343 102.831 231.106 102.92C230.87 103.009 230.672 103.13 230.514 103.282C230.356 103.434 230.234 103.612 230.15 103.812C230.068 104.013 230.027 104.224 230.027 104.445C230.027 104.734 230.089 104.974 230.211 105.162C230.333 105.351 230.496 105.512 230.698 105.644C230.898 105.777 231.127 105.888 231.383 105.979C231.64 106.069 231.902 106.16 232.172 106.247C232.44 106.334 232.703 106.432 232.96 106.539C233.215 106.646 233.443 106.779 233.645 106.94C233.846 107.101 234.008 107.299 234.13 107.534C234.252 107.769 234.314 108.061 234.314 108.411C234.314 108.768 234.252 109.105 234.13 109.42C234.008 109.735 233.83 110.009 233.597 110.243C233.363 110.476 233.078 110.66 232.741 110.794C232.403 110.928 232.018 110.996 231.583 110.996C231.022 110.996 230.537 110.897 230.131 110.698C229.726 110.499 229.37 110.228 229.064 109.881L229.233 109.616C229.282 109.556 229.337 109.526 229.402 109.526C229.438 109.526 229.485 109.55 229.541 109.598C229.596 109.646 229.666 109.705 229.746 109.776C229.825 109.847 229.922 109.922 230.035 110.005C230.148 110.088 230.279 110.163 230.427 110.234C230.576 110.305 230.747 110.363 230.939 110.412C231.132 110.46 231.352 110.484 231.597 110.484C231.935 110.484 232.237 110.433 232.503 110.33C232.768 110.228 232.993 110.088 233.177 109.911C233.361 109.735 233.499 109.524 233.596 109.282C233.692 109.039 233.74 108.778 233.74 108.501C233.74 108.2 233.678 107.951 233.556 107.757C233.434 107.562 233.271 107.4 233.071 107.269C232.868 107.138 232.641 107.029 232.385 106.94C232.129 106.851 231.867 106.765 231.597 106.681C231.328 106.597 231.065 106.502 230.81 106.398C230.553 106.294 230.325 106.16 230.123 105.997C229.922 105.834 229.761 105.631 229.638 105.388C229.516 105.146 229.454 104.841 229.454 104.475C229.454 104.19 229.508 103.915 229.616 103.65C229.725 103.384 229.884 103.151 230.093 102.947C230.301 102.744 230.559 102.581 230.869 102.459C231.176 102.337 231.527 102.275 231.921 102.275C232.365 102.275 232.76 102.346 233.113 102.486C233.466 102.626 233.786 102.842 234.076 103.131L233.932 103.408Z" fill="white"/>
</svg>
