<svg width="300" height="120" viewBox="0 0 300 120" fill="none" xmlns="http://www.w3.org/2000/svg">
<path d="M85 93.956V85.418H90.3308V86.5014H91.4143V89.7086H90.3308V90.7921H87.1237V93.9993L85 93.956ZM89.2473 88.6251V87.5417H87.1237V88.6251H89.2473Z" fill="white"/>
<path d="M93.5366 93.9563V92.8728H92.4531V86.4586H93.5366V85.375H97.7839V86.4586H98.8674V92.8728H97.7839V93.9563H93.5366ZM96.7437 91.8327V87.5853H94.6201V91.8327H96.7437Z" fill="white"/>
<path d="M100.99 93.9563V92.8728H99.9062V86.4586H100.99V85.375H105.237V86.4586H106.321V88.5821H104.197V87.4987H102.073V91.746H104.197V90.6625H106.321V92.7861H105.237V93.8697L100.99 93.9563Z" fill="white"/>
<path d="M107.363 93.956V85.418H109.487V88.6251H111.611V85.418H113.734V88.6251H112.651V90.7488H113.734V93.956H111.611V90.7488H109.487V93.956H107.363Z" fill="white"/>
<path d="M114.861 93.956V85.418H121.276V87.5417H117.028V88.6251H120.235V90.7488H117.028V91.8323H121.276V93.956H114.861Z" fill="white"/>
<path d="M124.438 93.956V87.5417H122.314V85.418H128.729V87.5417H126.605V93.956H124.438Z" fill="white"/>
<path d="M132.976 93.9563V92.8728H131.893V86.4586H132.976V85.375H137.223V87.4987H134.016V91.746H136.14V90.6625H135.056V88.5388H138.264V92.7861H137.18V93.8697L132.976 93.9563Z" fill="white"/>
<path d="M139.352 93.956V86.5014H140.435V85.418H144.682V86.5014H145.766V93.956H143.642V91.8323H141.519V93.956H139.352ZM143.599 89.6652V87.5417H141.475V89.6652H143.599Z" fill="white"/>
<path d="M146.803 93.956V85.418H147.886V86.5014H148.97V87.585H150.053V88.6684H151.137V87.585H152.22V86.5014H153.304V85.418H154.387V93.956H152.264V90.7488H151.18V91.8323H150.097V90.7488H149.013V93.956H146.803Z" fill="white"/>
<path d="M155.342 93.956V85.418H161.756V87.5417H157.509V88.6251H160.716V90.7488H157.509V91.8323H161.756V93.956H155.342Z" fill="white"/>
<path d="M162.795 93.9563V91.8327H167.043V90.7492H163.836V89.6657H162.752V86.4586H163.836V85.375H169.166V87.4987H164.919V88.5821H168.126V89.6657H169.21V92.8728H168.126V93.9563H162.795Z" fill="white"/>
<path d="M172.375 93.9563V91.8327H176.623V90.7492H173.416V89.6657H172.332V86.4586H173.416V85.375H178.746V87.4987H174.499V88.5821H177.706V89.6657H178.79V92.8728H177.706V93.9563H172.375Z" fill="white"/>
<path d="M180.912 93.9563V92.8728H179.828V86.4586H180.912V85.375H185.159V86.4586H186.242V92.8728H185.159V93.9563H180.912ZM184.119 91.7893V87.542H181.995V91.7893H184.119Z" fill="white"/>
<path d="M187.328 93.956V85.418H193.743V87.5417H189.495V88.6251H192.702V90.7488H189.495V93.956H187.328Z" fill="white"/>
<path d="M196.9 93.913V87.4987H194.775V85.375H201.191V87.4987H199.066V93.913H196.9Z" fill="white"/>
<path d="M132.456 26H127.818V30.6373H132.456V26Z" fill="#F36F21"/>
<path d="M89.6374 31.373H85V36.0104H89.6374V31.373Z" fill="#5E4EA1"/>
<path d="M94.9694 74.1953H90.332V78.8327H94.9694V74.1953Z" fill="#1BBEE6"/>
<path d="M121.756 63.4883H117.119V68.1257H121.756V63.4883Z" fill="#B64C9C"/>
<path fill-rule="evenodd" clip-rule="evenodd" d="M100.342 26H95.705V30.6373H100.342V26ZM94.9682 26H90.3308V30.6373H94.9682V26ZM101.036 30.6373H105.673V26H101.036V30.6373ZM111.047 26H106.41V30.6373H111.047V26ZM116.378 26H111.741V30.6373H116.378V26ZM127.083 26H122.446V30.6373H127.083V26ZM90.3308 36.0115H94.9682V31.3742H90.3308V36.0115ZM85 41.3423H89.6374V36.705H85V41.3423ZM90.3308 41.3423H94.9682V36.705H90.3308V41.3423ZM85 46.7165H89.6374V42.0792H85V46.7165ZM90.3308 46.7165H94.9682V42.0792H90.3308V46.7165ZM85 52.0473H89.6374V47.4099H85V52.0473ZM90.3308 52.0473H94.9682V47.4099H90.3308V52.0473ZM85 57.4215H89.6374V52.784H85V57.4215ZM90.3308 57.4215H94.9682V52.784H90.3308V57.4215ZM85 62.7522H89.6374V58.1149H85V62.7522ZM90.3308 62.7522H94.9682V58.1149H90.3308V62.7522ZM85 68.1264H89.6374V63.489H85V68.1264ZM90.3308 68.1264H94.9682V63.489H90.3308V68.1264ZM95.705 62.7522H100.342V58.1149H95.705V62.7522ZM95.705 68.1264H100.342V63.489H95.705V68.1264ZM101.036 62.7522H105.673V58.1149H101.036V62.7522ZM101.036 68.1264H105.673V63.489H101.036V68.1264ZM106.41 62.7522H111.047V58.1149H106.41V62.7522ZM106.41 68.1264H111.047V63.489H106.41V68.1264ZM111.741 62.7522H116.378V58.1149H111.741V62.7522ZM111.741 68.1264H116.378V63.489H111.741V68.1264ZM122.446 62.7522H127.083V58.1149H122.446V62.7522ZM85 73.4572H89.6374V68.8199H85V73.4572ZM85 78.8314H89.6374V74.194H85V78.8314ZM90.3308 73.4572H94.9682V68.8199H90.3308V73.4572ZM95.705 36.0115H100.342V31.3742H95.705V36.0115ZM101.036 36.0115H105.673V31.3742H101.036V36.0115ZM106.41 36.0115H111.047V31.3742H106.41V36.0115ZM111.741 36.0115H116.378V31.3742H111.741V36.0115ZM117.115 30.6373H121.752V26H117.115V30.6373ZM117.115 62.7522H121.752V58.1149H117.115V62.7522ZM117.115 36.0115H121.752V31.3742H117.115V36.0115ZM122.446 36.0115H127.083V31.3742H122.446V36.0115ZM127.82 36.0115H132.457V31.3742H127.82V36.0115ZM122.446 41.3423H127.083V36.705H122.446V41.3423ZM127.82 41.3423H132.457V36.705H127.82V41.3423ZM133.151 36.705V41.3423H137.788V36.705H133.151ZM127.82 46.7165H132.457V42.0792H127.82V46.7165ZM133.151 46.7165H137.788V42.0792H133.151V46.7165ZM127.82 52.0473H132.457V47.4099H127.82V52.0473ZM133.151 52.0473H137.788V47.4099H133.151V52.0473ZM127.82 57.4215H132.457V52.784H127.82V57.4215ZM127.82 62.7522H132.457V58.1149H127.82V62.7522ZM122.446 57.4215H127.083V52.784H122.446V57.4215ZM133.151 57.4215H137.788V52.784H133.151V57.4215Z" fill="white"/>
<path fill-rule="evenodd" clip-rule="evenodd" d="M148.363 46.7165H153.001V42.0792H148.363V46.7165ZM148.363 52.0473H153.001V47.4099H148.363V52.0473ZM148.363 57.4215H153.001V52.784H148.363V57.4215ZM148.363 62.7522H153.001V58.1149H148.363V62.7522ZM148.363 68.1264H153.001V63.489H148.363V68.1264ZM153.694 41.3423H158.331V36.705H153.694V41.3423ZM153.694 36.0115H158.331V31.3742H153.694V36.0115ZM159.068 41.3423H163.706V36.705H159.068V41.3423ZM159.068 36.0115H163.706V31.3742H159.068V36.0115ZM169.036 31.3742H164.399V36.0115H169.036V31.3742ZM164.399 30.6373H169.036V26H164.399V30.6373ZM169.773 36.0115H174.411V31.3742H169.773V36.0115ZM169.773 30.6373H174.411V26H169.773V30.6373ZM175.104 36.0115H179.741V31.3742H175.104V36.0115ZM179.741 26H175.104V30.6373H179.741V26ZM185.116 31.3742H180.478V36.0115H185.116V31.3742ZM180.478 30.6373H185.116V26H180.478V30.6373ZM153.694 46.7165H158.331V42.0792H153.694V46.7165ZM153.694 52.0473H158.331V47.4099H153.694V52.0473ZM153.694 57.4215H158.331V52.784H153.694V57.4215ZM175.104 52.0473H179.741V47.4099H175.104V52.0473ZM175.104 57.4215H179.741V52.784H175.104V57.4215ZM185.116 47.4099H180.478V52.0473H185.116V47.4099ZM185.116 52.784H180.478V57.4215H185.116V52.784ZM185.809 52.0473H190.446V47.4099H185.809V52.0473ZM185.809 57.4215H190.446V52.784H185.809V57.4215ZM185.809 68.1264H190.446V63.489H185.809V68.1264ZM191.183 52.0473H195.821V47.4099H191.183V52.0473ZM191.183 57.4215H195.821V52.784H191.183V57.4215ZM185.809 36.0115H190.446V31.3742H185.809V36.0115ZM185.809 41.3423H190.446V36.705H185.809V41.3423ZM191.183 36.0115H195.821V31.3742H191.183V36.0115ZM191.183 41.3423H195.821V36.705H191.183V41.3423ZM153.694 62.7522H158.331V58.1149H153.694V62.7522ZM153.694 68.1264H158.331V63.489H153.694V68.1264ZM159.068 68.1264H163.706V63.489H159.068V68.1264ZM159.068 73.4572H163.706V68.8199H159.068V73.4572ZM159.068 78.8314H163.706V74.194H159.068V78.8314ZM169.036 68.8199H164.399V73.4572H169.036V68.8199ZM164.399 78.8314H169.036V74.194H164.399V78.8314ZM169.773 73.4572H174.411V68.8199H169.773V73.4572ZM169.773 78.8314H174.411V74.194H169.773V78.8314ZM175.104 73.4572H179.741V68.8199H175.104V73.4572ZM175.104 78.8314H179.741V74.194H175.104V78.8314ZM185.116 68.8199H180.478V73.4572H185.116V68.8199ZM180.478 78.8314H185.116V74.194H180.478V78.8314ZM185.809 73.4572H190.446V68.8199H185.809V73.4572ZM191.183 73.4572H195.821V68.8199H191.183V73.4572ZM191.183 62.7522H195.821V58.1149H191.183V62.7522ZM191.183 68.1264H195.821V63.489H191.183V68.1264ZM196.514 52.784V57.4215H201.152V52.784H196.514ZM196.514 62.7522H201.152V58.1149H196.514V62.7522Z" fill="white"/>
<path d="M153.001 36.7051H148.363V41.3424H153.001V36.7051Z" fill="#E51B73"/>
<path d="M163.706 26H159.068V30.6373H163.706V26Z" fill="#FDB81B"/>
<path d="M158.335 68.8184H153.697V73.4557H158.335V68.8184Z" fill="#3C81C3"/>
<path d="M190.444 74.1953H185.807V78.8327H190.444V74.1953Z" fill="#F04E23"/>
<path d="M201.148 47.4102H196.512V52.0476H201.148V47.4102Z" fill="#5DBF85"/>
<path d="M201.148 63.4883H196.512V68.1257H201.148V63.4883Z" fill="#EE2830"/>
<path d="M207.39 90.7488V86.2414H206.047V85.418H209.514V86.2414H208.214V90.7488H207.39ZM210.25 90.7488V85.418H211.16L212.894 88.8418L214.585 85.418H215.495V90.7488H214.672V87.1082L213.415 89.7086H212.505L211.118 87.0215V90.7488H210.25Z" fill="white"/>
</svg>
