<svg width="300" height="120" viewBox="0 0 300 120" fill="none" xmlns="http://www.w3.org/2000/svg">
<mask id="mask0_8028_4993" style="mask-type:luminance" maskUnits="userSpaceOnUse" x="93" y="29" width="115" height="62">
<path d="M207.338 29H93V91H207.338V29Z" fill="white"/>
</mask>
<g mask="url(#mask0_8028_4993)">
<path d="M115.986 29L122.759 37.8318L122.184 40.0232H122.173L118.93 52.3413L113.02 74.6644C112.09 77.232 110.685 79.1578 108.792 80.3863C106.523 81.8693 105.04 81.5816 103.601 81.5594C103.125 81.5594 101.144 81.2827 99.3071 80.5302L92.9766 88.7754C97.5917 91.2437 102.273 91.2877 106.479 90.6348C109.257 90.2031 111.946 89.1849 114.304 87.6465C117.137 85.7872 120.844 82.2456 122.837 75.8044L124.818 68.3892L135.166 29H115.986Z" fill="url(#paint0_linear_8028_4993)"/>
<path d="M207.248 43.3877C207.702 39.3924 206.174 35.9061 203.872 33.3052C202.135 31.3463 198.792 29 192.738 29H144.783H135.73L142.503 37.8318L131.9 77.221H185.843C189.982 77.221 194.133 75.8929 197.552 73.4802C201.393 70.7687 203.762 67.0721 204.216 63.0768C204.658 59.1699 203.739 55.7612 201.548 53.1824C204.426 50.6037 206.794 47.1396 207.226 43.3877H207.248ZM170.36 52.3413C169.74 54.6655 168.135 59.1257 164.262 62.8C160.344 66.5077 154.334 68.3892 147.926 68.3892H143.82L152.043 37.8318H158.318C163.686 37.8318 167.383 39.1268 169.308 41.6833C171.887 45.1142 170.902 50.2827 170.36 52.3413ZM195.063 62.8886C194.553 65.7108 190.646 68.3892 186.452 68.3892H170.648C174.289 64.759 176.458 60.7305 177.72 57.532H189.341C191.687 57.532 193.192 57.8418 194.299 59.181C195.029 60.0664 195.306 61.5827 195.063 62.8997V62.8886ZM197.885 43.1442C197.508 46.4092 194.565 48.689 190.724 48.689H179.801C180.055 45.3356 179.712 41.3956 177.742 37.8318H191.964C194.31 37.8318 195.97 38.4406 196.922 39.5141C197.686 40.3774 198.061 41.5616 197.874 43.1442H197.885Z" fill="url(#paint1_linear_8028_4993)"/>
<g style="mix-blend-mode:darken">
<mask id="mask1_8028_4993" style="mask-type:luminance" maskUnits="userSpaceOnUse" x="160" y="29" width="30" height="9">
<g style="mix-blend-mode:darken">
<path d="M189.905 29H160.742V37.8318H189.905V29Z" fill="white"/>
</g>
</mask>
<g mask="url(#mask1_8028_4993)">
<mask id="mask2_8028_4993" style="mask-type:luminance" maskUnits="userSpaceOnUse" x="160" y="29" width="30" height="9">
<g style="mix-blend-mode:darken">
<path d="M164.007 29H160.742C169.353 29 173.193 31.9218 176.026 35.2863C176.712 36.1053 177.277 36.9575 177.753 37.8318H189.916V29H164.007Z" fill="white"/>
</g>
</mask>
<g mask="url(#mask2_8028_4993)">
<path style="mix-blend-mode:multiply" d="M189.916 29H160.742V37.8318H189.916V29Z" fill="url(#paint2_linear_8028_4993)"/>
</g>
</g>
</g>
<path style="mix-blend-mode:multiply" d="M142.517 37.8301L131.914 77.2192H141.443L152.046 37.8301H142.517Z" fill="url(#paint3_linear_8028_4993)"/>
<path d="M132.279 89.0741C132.279 89.6165 132.279 90.5461 131.471 90.8671C131.15 90.9888 130.741 91.011 130.42 90.9777V90.1255C130.42 90.1255 130.497 90.1477 130.564 90.1477C130.73 90.1477 130.951 90.1034 131.084 89.8821C131.161 89.7603 131.195 89.6165 131.195 88.9856V85.3887H132.279V89.0852V89.0741Z" fill="white"/>
<path d="M138.433 87.7447C138.433 88.0878 138.433 88.6301 138.057 89.0839C137.614 89.6151 136.894 89.7811 136.23 89.7811C135.887 89.7811 134.991 89.7701 134.404 89.0064C134.238 88.774 134.072 88.4752 134.072 87.7669V85.3763H135.168V87.5234C135.168 87.7005 135.168 87.955 135.245 88.1985C135.389 88.6855 135.821 88.8958 136.253 88.8958C136.883 88.8958 137.171 88.4863 137.271 88.2538C137.348 88.0657 137.348 87.8997 137.348 87.5123V85.3652H138.444V87.7226L138.433 87.7447Z" fill="white"/>
<path d="M143.156 86.5521C142.857 86.4082 142.315 86.1315 141.762 86.1315C141.12 86.1315 141.109 86.4414 141.109 86.4857C141.109 86.7513 141.529 86.8952 142.16 87.1275C142.702 87.3268 143.355 87.6588 143.355 88.4999C143.355 89.507 142.304 89.7838 141.651 89.7838C140.921 89.7838 140.223 89.4406 140.113 89.3632V88.4225C140.489 88.6549 140.987 88.9648 141.618 88.9648C141.762 88.9648 142.271 88.9648 142.271 88.5663C142.271 88.2786 142.027 88.19 141.452 87.9908C140.832 87.7695 140.035 87.4707 140.035 86.5521C140.035 85.888 140.589 85.3125 141.673 85.3125C142.016 85.3125 142.448 85.3457 143.145 85.6556V86.5521H143.156Z" fill="white"/>
<path d="M148.893 86.1979H147.332V89.7285H146.226V86.1979H144.654V85.3789H148.893V86.1979Z" fill="white"/>
<path d="M154.857 85.3887C155.133 85.3887 155.543 85.3887 156.03 85.5657C156.373 85.6874 157.414 86.2187 157.414 87.5579C157.414 87.9895 157.303 88.8971 156.362 89.4061C155.952 89.6275 155.532 89.7271 154.768 89.7271H153.086V85.3887H154.857ZM154.181 86.2076V88.8971H154.624C155.233 88.8971 155.399 88.8417 155.576 88.7753C156.019 88.5871 156.306 88.1666 156.306 87.5468C156.306 87.0709 156.13 86.5618 155.576 86.3294C155.299 86.2187 155.023 86.2187 154.735 86.2187H154.193L154.181 86.2076Z" fill="white"/>
<path d="M161.283 89.7844C159.778 89.7844 158.805 88.6997 158.805 87.5598C158.805 86.5527 159.645 85.3242 161.306 85.3242C162.844 85.3242 163.796 86.4309 163.796 87.5598C163.796 88.5669 162.977 89.7844 161.283 89.7844ZM161.295 86.2538C160.52 86.2538 159.933 86.7298 159.933 87.5819C159.933 88.6223 160.786 88.91 161.306 88.91C162.003 88.91 162.678 88.4563 162.678 87.593C162.678 86.7851 162.147 86.2538 161.306 86.2538H161.295Z" fill="white"/>
<path d="M171.967 86.1979H170.395V89.7285H169.288V86.1979H167.717V85.3789H171.956V86.1979H171.967Z" fill="white"/>
<path d="M177.843 89.7271H176.758V87.9674H174.611V89.7271H173.516V85.3887H174.611V87.1373H176.758V85.3887H177.843V89.7271Z" fill="white"/>
<path d="M182.89 89.7271H179.691V85.3887H182.846V86.1966H180.787V87.0709H182.757V87.8899H180.787V88.9302H182.89V89.7271Z" fill="white"/>
<path d="M188.923 85.39C189.233 85.39 189.476 85.39 189.775 85.4674C190.339 85.6335 190.605 86.0873 190.605 86.4635C190.605 86.7734 190.417 87.1276 190.018 87.3379C190.251 87.4043 190.937 87.6256 190.937 88.4557C190.937 88.832 190.793 89.2525 190.317 89.5182C190.029 89.6842 189.763 89.7174 189.277 89.7174H187.273V85.3789H188.934L188.923 85.39ZM188.369 86.1647V87.1165H188.779C189.022 87.1165 189.509 87.1165 189.509 86.6406C189.509 86.1647 189.033 86.1647 188.801 86.1647H188.38H188.369ZM188.369 87.8912V88.9316H188.9C189.277 88.9316 189.808 88.9316 189.808 88.4114C189.808 87.8913 189.288 87.8802 188.845 87.8802H188.358L188.369 87.8912Z" fill="white"/>
<path d="M195.792 89.7271H192.594V85.3887H195.748V86.1966H193.689V87.0709H195.66V87.8899H193.689V88.9302H195.792V89.7271Z" fill="white"/>
<path d="M200.412 86.5521C200.113 86.4082 199.571 86.1315 199.017 86.1315C198.375 86.1315 198.364 86.4414 198.364 86.4857C198.364 86.7513 198.785 86.8952 199.416 87.1275C199.958 87.3268 200.611 87.6588 200.611 88.4999C200.611 89.507 199.56 89.7838 198.907 89.7838C198.176 89.7838 197.479 89.4406 197.369 89.3632V88.4225C197.745 88.6549 198.243 88.9648 198.873 88.9648C199.017 88.9648 199.527 88.9648 199.527 88.5663C199.527 88.2786 199.283 88.19 198.708 87.9908C198.088 87.7695 197.291 87.4707 197.291 86.5521C197.291 85.888 197.844 85.3125 198.929 85.3125C199.272 85.3125 199.703 85.3457 200.401 85.6556V86.5521H200.412Z" fill="white"/>
<path d="M206.143 86.1979H204.572V89.7285H203.475V86.1979H201.904V85.3789H206.143V86.1979Z" fill="white"/>
</g>
<defs>
<linearGradient id="paint0_linear_8028_4993" x1="113.794" y1="60" x2="210.436" y2="60" gradientUnits="userSpaceOnUse">
<stop stop-color="#FFD200"/>
<stop offset="0.11" stop-color="#FFCB02"/>
<stop offset="0.27" stop-color="#FFB908"/>
<stop offset="0.45" stop-color="#FF9C12"/>
<stop offset="0.65" stop-color="#FF7321"/>
<stop offset="0.87" stop-color="#FF3F33"/>
<stop offset="0.94" stop-color="#FF2E3A"/>
</linearGradient>
<linearGradient id="paint1_linear_8028_4993" x1="113.794" y1="53.105" x2="210.435" y2="53.105" gradientUnits="userSpaceOnUse">
<stop stop-color="#FFD200"/>
<stop offset="0.11" stop-color="#FFCB02"/>
<stop offset="0.27" stop-color="#FFB908"/>
<stop offset="0.45" stop-color="#FF9C12"/>
<stop offset="0.65" stop-color="#FF7321"/>
<stop offset="0.87" stop-color="#FF3F33"/>
<stop offset="0.94" stop-color="#FF2E3A"/>
</linearGradient>
<linearGradient id="paint2_linear_8028_4993" x1="181.197" y1="26.5933" x2="150.64" y2="26.5933" gradientUnits="userSpaceOnUse">
<stop stop-color="white"/>
<stop offset="1"/>
</linearGradient>
<linearGradient id="paint3_linear_8028_4993" x1="139.307" y1="66.6166" x2="150.341" y2="29.0757" gradientUnits="userSpaceOnUse">
<stop stop-color="white" stop-opacity="0"/>
<stop offset="0.94" stop-color="#212121" stop-opacity="0.7569"/>
<stop offset="1"/>
</linearGradient>
</defs>
</svg>
