<svg width="300" height="120" viewBox="0 0 300 120" fill="none" xmlns="http://www.w3.org/2000/svg">
<path d="M147.833 37.3811C147.44 40.2383 147.598 40.5557 150.504 40.5557H152.704V58.8105V77.0653H157.024H161.346V58.8105V40.5557H164.096C166.688 40.5557 166.845 40.3971 166.845 37.7779V35H157.496H148.147L147.833 37.3811Z" fill="#FFCD00"/>
<path d="M168.422 56.0325V77.0653H172.744H177.064V66.7474C177.064 58.1756 177.3 56.4294 178.242 56.4294C179.185 56.4294 179.421 58.2549 179.578 66.5092L179.813 76.6684L184.37 76.9066L188.849 77.1446V56.0325V35H184.135H179.421V43.3336C179.421 50.2388 179.185 51.6674 178.242 51.6674C177.3 51.6674 177.064 50.2388 177.064 43.3336V35H172.744H168.422V56.0325Z" fill="#FFCD00"/>
<path d="M64.7137 36.3539C64.0852 36.592 62.7497 37.5444 61.807 38.4175C60.2357 39.8461 60 40.7986 60 46.1956V52.3862L65.4993 58.1008C70.9203 63.736 70.9988 63.8154 70.9988 68.1012C70.9988 71.7522 70.7632 72.3872 69.6632 72.149C68.4847 71.9109 68.1706 70.8791 68.0134 66.5138L67.7778 61.1962H63.9281H60V67.8632C60 74.1332 60.1571 74.6888 62.0426 76.1968C66.1279 79.451 75.3198 79.0541 78.4623 75.4824C80.0335 73.7364 80.8978 67.4663 80.1121 63.2598C79.7194 61.2755 77.9124 58.6563 74.0627 54.4499C68.8776 48.7353 68.5634 48.2592 68.7991 45.0844C69.1133 40.3223 70.5274 40.9573 70.9988 46.1162L71.3917 50.4815H75.3198H79.2479L79.4837 45.64C79.6407 41.4335 79.4835 40.4017 77.8338 38.4968C76.184 36.592 75.3198 36.2744 70.9203 36.0364C68.1706 35.9571 65.3423 36.0364 64.7137 36.3539Z" fill="#B90000"/>
<path d="M81.998 56.7468V77.8587H86.319H90.6399V70.3188V62.7787H92.8397C96.4537 62.7787 100.775 61.1914 101.639 59.6041C102.11 58.6516 102.346 54.1276 102.267 48.8099C102.032 39.6825 101.953 39.5238 99.8318 37.8571C98.1035 36.5872 96.2179 36.1904 89.8543 35.9523L81.998 35.6348V56.7468ZM93.3897 49.2861C93.3897 55.08 93.2325 56.0324 92.0542 56.2706C90.7971 56.5086 90.6399 55.7943 90.6399 49.2861C90.6399 42.7779 90.7971 42.0636 92.0542 42.3017C93.2325 42.5398 93.3897 43.4923 93.3897 49.2861Z" fill="#B90000"/>
<path d="M198.037 42.6178C196.858 43.2528 195.522 44.6814 195.13 45.7926C194.658 46.9037 194.344 54.7612 194.344 63.2536V78.8098L196.622 81.1115C198.744 83.175 199.45 83.4131 204.164 83.4131C209.585 83.4131 213.513 81.9051 214.377 79.524C215.006 77.8573 214.928 46.7449 214.299 45.0782C212.964 41.5859 202.751 39.9986 198.037 42.6178ZM206.128 62.4599C206.128 76.8256 206.05 77.9368 204.793 77.6985C203.535 77.4604 203.378 76.0318 203.143 63.333C202.986 55.5549 203.065 48.7292 203.3 48.0943C203.535 47.4593 204.243 46.9037 204.95 46.9037C205.97 46.9037 206.128 49.0466 206.128 62.4599Z" fill="#0084B9"/>
<path d="M217.129 62.3853V83.418H220.664H224.198V72.9413C224.198 67.2267 224.434 62.7028 224.67 62.941C225.064 63.3377 226.319 67.8618 229.777 80.402L230.563 83.418H235.198H239.911V62.306V41.2734L236.218 41.5114L232.447 41.7496L232.055 50.0832L231.662 58.417L230.641 54.1311C230.091 51.75 229.149 47.9404 228.44 45.5593L227.263 41.3527H222.156H217.129V62.3853Z" fill="#0084B9"/>
<path d="M107.922 63.9682V85.0008H112.636H117.349V63.9682V42.9355H112.636H107.922V63.9682Z" fill="#34B900"/>
<path d="M118.922 63.9682V85.0008H122.457H125.914L126.15 74.4448C126.307 68.7303 126.621 64.5238 126.935 65.1587C127.25 65.7936 128.585 70.5558 129.921 75.6354L132.435 85.0008H137.07H141.705V63.9682V42.9355H138.17H134.634L134.477 49.0469C134.399 52.4598 134.399 56.4282 134.477 57.9361C134.713 61.7459 133.535 60.0792 132.278 54.8408C131.728 52.4598 130.785 48.8089 130.156 46.6658L129.056 42.9355H124.028H118.922V63.9682Z" fill="#34B900"/>
</svg>
