<svg width="300" height="120" viewBox="0 0 300 120" fill="none" xmlns="http://www.w3.org/2000/svg">
<mask id="mask0_8018_2347" style="mask-type:luminance" maskUnits="userSpaceOnUse" x="38" y="32" width="224" height="56">
<path d="M262 32H38V88H262V32Z" fill="white"/>
</mask>
<g mask="url(#mask0_8018_2347)">
<path d="M252.305 32H216.826L214.241 48.2608L214.744 50.5526L217.544 35.2947L222.787 57.5723L217.256 84.5768L214.312 67.4573L213.738 70.8236L216.467 87.5137H252.591L261.999 57.5723L252.305 32ZM230.831 35.5819L242.465 43.1741L239.736 35.5819H247.493L253.741 52.7013H246.918L235.068 44.7503L237.365 52.6298H229.178L224.439 35.5809L230.831 35.5819ZM251.658 86.2246H218.406L224.224 57.6439H260.635L251.658 86.2246Z" fill="white"/>
<path d="M245.769 62.2246L243.184 71.1784L236.217 62.2246H229.179L224.727 81.7801H232.626L234.853 73.1851L241.819 81.7801H248.283L254.173 62.2246H245.769Z" fill="#F9B300"/>
<path d="M210.36 32.2871H174.739L174.164 52.2003L175.385 39.0206L176.318 57.5006L175.672 77.4148L174.164 66.3123L175.241 87.5146H210.431L215.675 57.5732L210.36 32.2871ZM197.288 35.7259L199.802 52.6297H191.544L189.318 35.7974L197.288 35.7259ZM209.354 86.1529H176.821L177.754 57.5721H214.31L209.354 86.1529Z" fill="white"/>
<path d="M189.754 82.3579H197.726L200.095 62.5879H191.693L189.754 82.3579Z" fill="#F9B300"/>
<path d="M132.724 32.2871L129.203 57.7162L133.009 87.5144H168.272L168.56 57.0712L168.272 32.2871H132.724ZM140.121 35.869H153.335C153.335 35.869 161.881 36.514 161.954 41.9574C162.025 47.4019 152.043 48.3321 152.043 48.3321H147.015L146.584 52.7022H138.11L140.121 35.869ZM166.837 86.2254H134.088L130.497 57.8593L167.125 57.932L166.837 86.2254Z" fill="white"/>
<path d="M153.698 41.8176C153.698 39.9551 151.4 39.9551 151.4 39.9551H147.594L147.307 44.038H151.328C151.328 43.9664 153.698 43.6086 153.698 41.8176Z" fill="white"/>
<path d="M140.918 82.0711H147.525L150.038 74.1916L153.27 82.0711H159.734L165.55 62.5156H158.369L156.071 71.3978L152.336 62.5156H146.663L143.718 71.1822L140.918 62.5156H133.018L140.918 82.0711Z" fill="#F9B300"/>
<path d="M121.02 62.2323L124.899 38.1638L128.49 54.6391L125.618 32.291H89.565L82.4551 62.2323L91.216 86.9449L126.622 86.5861L129.136 62.8048L125.689 83.8649L121.02 62.2323ZM99.5475 47.9057C97.9671 47.4048 95.3102 46.1147 95.3102 43.6798C95.3102 41.2438 97.2494 39.1666 98.3984 38.451C99.5475 37.7345 102.492 36.0866 107.735 36.0866C112.977 36.0866 116.64 37.806 116.64 37.806L113.409 42.4622C113.409 42.4622 112.834 42.2466 112.187 41.9603C111.541 41.7457 109.53 41.0291 106.801 40.9576C104.001 40.886 103.498 42.0319 103.498 42.2466C103.425 42.4622 103.282 43.1778 106.585 43.6082C109.817 44.0376 112.187 44.7541 113.264 45.1845C114.342 45.6853 115.778 47.1891 115.778 48.7653C115.778 50.3417 115.419 51.5591 113.767 53.206C112.115 54.8549 109.243 56.3586 102.779 56.4301C96.3151 56.5017 92.5806 54.5676 92.5806 54.5676C92.5806 54.5676 96.3161 49.6251 96.3866 49.6251C96.3866 49.6251 97.1769 50.0545 98.5415 50.6279C99.9063 51.2003 102.923 51.6307 103.856 51.6307C104.79 51.6307 107.088 51.5581 107.519 50.2691C107.878 48.98 101.127 48.4076 99.5475 47.9057ZM92.2219 85.6549L83.8913 62.3755L119.584 62.2314L124.612 85.2971L92.2219 85.6549Z" fill="white"/>
<path d="M118.221 75.6209H115.203L114.486 73.1143H106.801L107.304 75.6209L104.287 75.5493L110.967 66.3093H102.349L94.8794 76.4806L96.0284 79.9194L108.382 79.991L109.172 82.7132H116.929L116.282 79.9194H119.37L118.221 75.6209ZM88.4165 80.4203L87.6979 83.7866L76.2076 72.1106L81.3067 35.9387L86.3332 43.8897L86.7645 42.0987L81.3782 33.5742L43.9609 33.933L38 72.0379L53.8719 84.6452L88.7754 85.003L89.2783 82.7827L88.4165 80.4182V80.4203ZM55.0924 39.447L55.165 39.3754H67.5172L64.2132 64.733H55.7386L58.3259 45.8942H54.1601L55.0924 39.447ZM54.3748 83.213L40.2265 72.039H74.2683L85.6871 83.6434L54.3748 83.213Z" fill="#F9B300"/>
<path d="M67.2293 76.6986L59.2576 73.7617L57.8929 76.6976L49.8496 77.2711L58.6831 79.7061L60.9096 82.6429L67.445 81.2823L76.7815 82.7155L72.6157 79.6355L76.7089 77.2711L67.2293 76.6986Z" fill="#F9B300"/>
</g>
</svg>
