<svg width="300" height="120" viewBox="0 0 300 120" fill="none" xmlns="http://www.w3.org/2000/svg">
<path d="M106.822 99.2173H110.69L111.995 96.1412H106.822V94.0438H112.881L114.232 90.8279V90.7812H103V104.67H114.279V101.408H106.822V99.2173Z" fill="white"/>
<path d="M155.291 92.0863C154.266 91.2007 152.868 90.7812 151.097 90.7812H145.131V104.67H148.999V100.709H150.91C152.681 100.709 154.126 100.289 155.245 99.4038C156.363 98.5181 156.876 97.3064 156.876 95.7217C156.876 94.1371 156.363 92.9718 155.291 92.0863ZM152.448 97.2132C152.075 97.5394 151.516 97.7258 150.817 97.7258H148.999V94.0438H150.817C151.516 94.0438 152.075 94.1837 152.448 94.5099C152.821 94.8362 153.054 95.2557 153.054 95.8615C153.007 96.4208 152.821 96.8869 152.448 97.2132Z" fill="white"/>
<path d="M162.054 90.7812H158.186V104.67H166.715L168.159 101.315H162.054V90.7812Z" fill="white"/>
<path d="M174.683 90.6895L169.696 102.435L168.764 104.672H170.069H172.818L173.797 102.202H179.157L180.182 104.672H184.33L178.411 90.6895H174.683ZM174.962 99.2187L176.547 95.257L178.085 99.2187H174.962Z" fill="white"/>
<path d="M192.116 90.7812L189.226 95.8615L186.383 90.7812H181.955L187.268 99.4969V104.67H191.137V99.4038L196.403 90.7812H192.116Z" fill="white"/>
<path d="M125.654 90.7812L122.485 99.5901L119.315 90.7812H115.027L120.667 104.764H124.209L129.848 90.7812H125.654Z" fill="white"/>
<path d="M136.369 90.5508C132.407 90.5508 129.145 93.7666 129.145 97.775C129.145 101.737 132.36 104.999 136.369 104.999C140.377 104.999 143.593 101.783 143.593 97.775C143.593 93.7666 140.33 90.5508 136.369 90.5508ZM136.369 101.55C134.271 101.55 132.593 99.8723 132.593 97.775C132.593 95.6776 134.271 93.9997 136.369 93.9997C138.466 93.9997 140.144 95.6776 140.144 97.775C140.144 99.8723 138.466 101.55 136.369 101.55Z" fill="white"/>
<path d="M125.51 75.4984H162.935L168.342 62.6348H125.51V75.4984Z" fill="#40B0E5"/>
<path d="M125.465 60.0701L171.653 53.7315L177.339 39.9355L125.465 47.1598V60.0701Z" fill="#40B0E5"/>
<path d="M125.465 44.6425L181.58 30.334L187.918 15L125.465 31.3127V44.6425Z" fill="#40B0E5"/>
</svg>
