<svg width="300" height="120" viewBox="0 0 300 120" fill="none" xmlns="http://www.w3.org/2000/svg">
<path d="M155.168 18C155.723 19.1392 156.174 20.3285 156.687 21.487C158.553 25.9146 160.386 30.3537 162.306 34.7582C164.124 39.0393 165.893 43.3417 167.738 47.6112C169.168 50.9073 170.535 54.2304 171.919 57.5458C170.146 59.2536 168.341 60.9229 166.583 62.6442C164.903 60.6665 163.349 58.5866 161.674 56.6032C157.83 51.8557 153.996 47.0965 150.133 42.3624C146.085 46.6011 142.007 50.8938 137.939 55.1422C136.336 56.8789 134.653 58.5366 133.059 60.2829C132.018 61.426 130.902 62.4939 129.845 63.6234C126.709 66.9773 123.492 70.2504 120.361 73.61C118.351 75.6109 116.474 77.7369 114.477 79.7474C116.753 75.287 119.138 70.8691 121.487 66.4473C123.357 62.8081 125.298 59.2093 127.218 55.5989C129.419 51.3314 131.707 47.1119 133.947 42.8636C136.492 37.9117 139.2 33.0485 141.723 28.085C142.005 27.5279 142.255 27.0036 142.799 26.6509C144.931 25.1956 147.011 23.6689 149.131 22.1944C150.796 21.0378 152.47 19.889 154.108 18.692C154.451 18.4472 154.802 18.212 155.168 18Z" fill="white"/>
<path d="M189.277 41.0234C188.802 41.7329 188.251 42.3786 187.684 43.0146C185.647 45.4087 183.588 47.7834 181.58 50.2025C178.731 53.5295 175.901 56.8738 173.075 60.2201C171.627 61.9105 170.189 63.6107 168.749 65.3088C165.829 68.6936 162.974 72.1363 160.054 75.5229C158.392 77.4601 156.791 79.4475 155.102 81.3596C152.97 83.8307 150.929 86.3712 148.762 88.8096C147.006 86.2941 145.447 83.6399 143.743 81.0897C141.408 77.5796 139.224 73.9674 136.852 70.4842C137.733 71.1281 138.507 71.8798 139.334 72.5873C142.228 75.1605 145.206 77.6336 148.068 80.2416C150.119 78.395 152.045 76.4193 154.08 74.5572C156.27 72.4408 158.485 70.3532 160.684 68.2464C162.687 66.4171 164.59 64.4858 166.583 62.6449C168.341 60.9236 170.145 59.2543 171.919 57.5465C173.31 56.2281 174.735 54.9443 176.086 53.5834C178.684 51.1046 181.321 48.6644 183.887 46.1527C185.24 44.8747 186.63 43.6334 187.937 42.2995C188.367 41.8562 188.81 41.4282 189.277 41.0234Z" fill="#79FFFF"/>
<path d="M173.076 60.2207C174.463 63.4706 175.849 66.7224 177.203 69.9896C178.903 74.0298 180.657 78.0526 182.353 82.0928C180.591 80.0264 178.92 77.8791 177.193 75.78C174.4 72.2718 171.518 68.837 168.75 65.3096C170.19 63.6113 171.628 61.9112 173.076 60.2207Z" fill="white"/>
<path d="M116.812 93.84C117.427 93.8361 118.042 93.8381 118.657 93.8419C119.648 95.4726 120.562 97.1476 121.556 98.7745C122.512 97.14 123.417 95.4726 124.378 93.84C125.009 93.8361 125.639 93.8381 126.267 93.8476C124.66 96.5405 123.093 99.2603 121.566 101.999C119.953 99.2969 118.393 96.5617 116.812 93.84Z" fill="white"/>
<path d="M131.363 93.8735C134.414 93.8003 137.495 93.8659 140.55 93.8465C140.54 94.3478 140.529 94.8489 140.515 95.3481C139.258 95.3558 138.002 95.3443 136.745 95.3558C136.745 97.5552 136.751 99.7526 136.743 101.952C136.19 101.952 135.636 101.948 135.083 101.944C135.077 99.7469 135.083 97.5494 135.083 95.3501C133.832 95.3443 132.583 95.3732 131.334 95.325C131.332 94.845 131.311 94.3535 131.363 93.8735Z" fill="white"/>
<path d="M163.703 93.9012C163.907 93.8646 164.116 93.8357 164.324 93.8125C164.328 95.7864 164.324 97.7601 164.316 99.7359C164.345 100.258 164.297 100.763 164.788 101.087C165.232 101.33 165.846 101.318 166.342 101.334C168.206 101.316 170.07 101.33 171.934 101.33C172.491 101.305 173.216 101.297 173.53 100.746C173.632 100.362 173.613 99.9364 173.62 99.5412C173.601 97.6541 173.613 95.7651 173.611 93.8781C173.854 93.8684 174.097 93.8608 174.339 93.8511C174.343 95.8134 174.33 97.7736 174.349 99.734C174.355 100.434 174.307 101.066 173.763 101.567C173.351 102.02 172.875 101.943 172.317 101.962C169.937 101.935 167.552 101.962 165.176 101.953C164.505 102.01 163.94 101.396 163.759 100.804C163.628 100.212 163.672 99.5663 163.668 98.963C163.709 97.2783 163.616 95.5801 163.703 93.9012Z" fill="#79FFFF"/>
<path d="M114.682 93.8516C116.255 96.5347 117.757 99.2583 119.337 101.938C118.728 101.949 118.117 101.955 117.508 101.961C116.546 100.338 115.642 98.6801 114.682 97.0571C113.718 98.684 112.787 100.33 111.814 101.951C111.209 101.953 110.605 101.953 110 101.949C111.531 99.2334 113.102 96.5386 114.682 93.8516Z" fill="white"/>
<path d="M128.417 93.8359C129.964 96.5499 131.541 99.2446 133.112 101.943C132.493 101.951 131.875 101.953 131.256 101.947C130.279 100.332 129.365 98.6817 128.415 97.053C127.476 98.6971 126.566 100.365 125.552 101.962C124.947 101.957 124.342 101.949 123.736 101.939C125.296 99.2389 126.888 96.5557 128.417 93.8359Z" fill="white"/>
<path d="M143.485 93.8867C145.058 96.5602 146.563 99.2742 148.132 101.95C147.519 101.955 146.904 101.955 146.291 101.953C145.337 100.329 144.441 98.6689 143.438 97.0749C142.477 98.6959 141.563 100.348 140.599 101.969C139.996 101.959 139.394 101.952 138.791 101.94C140.044 99.7619 141.297 97.5857 142.536 95.4018C142.824 94.8735 143.136 94.3743 143.485 93.8867Z" fill="white"/>
<path d="M176.158 93.832C176.675 93.886 177.133 93.7569 177.552 94.1135C178.897 95.191 180.123 96.4305 181.519 97.4481C182.82 96.3495 184.082 95.1929 185.399 94.1154C185.821 93.7627 186.282 93.886 186.8 93.832C185.237 95.2334 183.605 96.5576 182.039 97.9551C183.56 99.3237 185.174 100.586 186.696 101.953C186.143 101.914 185.673 102.084 185.245 101.654C184.013 100.567 182.739 99.5261 181.513 98.4312C180.092 99.5666 178.728 100.773 177.348 101.955C176.983 101.947 176.619 101.939 176.255 101.932C177.793 100.582 179.377 99.2871 180.931 97.957C179.502 96.7312 178.068 95.513 176.646 94.2812C176.482 94.1328 176.32 93.9824 176.158 93.832Z" fill="#79FFFF"/>
<path fill-rule="evenodd" clip-rule="evenodd" d="M151.703 93.8444C150.772 93.8436 149.841 93.8428 148.91 93.8571C148.913 95.8789 148.913 97.9006 148.912 99.9225C148.912 100.597 148.912 101.272 148.912 101.947C149.483 101.951 150.053 101.951 150.624 101.949C150.624 101.492 150.623 101.034 150.622 100.577C150.621 99.8139 150.619 99.0512 150.622 98.2885C150.82 98.2977 151.047 98.2893 151.287 98.2803C152.107 98.2497 153.072 98.2139 153.523 98.8629C153.935 99.4435 154.285 100.069 154.634 100.695C154.87 101.116 155.105 101.538 155.36 101.945C155.983 101.951 156.605 101.951 157.23 101.943C156.911 101.376 156.583 100.814 156.255 100.251C155.882 99.6127 155.509 98.974 155.15 98.3271C155.248 98.284 155.347 98.2427 155.446 98.2018C155.998 97.9717 156.534 97.7484 156.894 97.2264C157.513 96.3437 157.299 95.058 156.443 94.4045C155.78 93.8552 155.019 93.8455 154.198 93.8359C153.366 93.8459 152.535 93.8452 151.703 93.8444ZM152.732 95.3476C152.035 95.3404 151.338 95.3332 150.645 95.3819C150.608 95.7562 150.612 96.1367 150.616 96.5134C150.617 96.6043 150.618 96.6949 150.618 96.7852C150.7 96.7855 150.782 96.7858 150.864 96.7861C152.333 96.7916 153.801 96.7973 155.271 96.7717C155.301 96.7097 155.343 96.6384 155.389 96.5617C155.553 96.2853 155.76 95.9393 155.539 95.7116C155.35 95.3515 154.936 95.353 154.552 95.3543C154.428 95.3547 154.307 95.3552 154.198 95.3434C153.71 95.3577 153.221 95.3526 152.732 95.3476Z" fill="white"/>
</svg>
