<svg width="300" height="120" viewBox="0 0 300 120" fill="none" xmlns="http://www.w3.org/2000/svg">
<path d="M154.271 42.55H164.02V71.3957H154.271V69.2559C152.04 71.3957 148.978 72.2429 146.523 72.2429C138.052 72.2429 132.441 65.1409 132.441 57.1956C132.441 48.7974 138.29 41.6992 146.819 41.6992C147.32 41.6992 147.877 41.754 148.49 41.8087L151.498 51.7295C150.588 51.243 149.573 50.992 148.545 50.9993C145.089 50.9993 142.472 53.5916 142.472 56.9728C142.472 60.3539 145.089 62.9464 148.545 62.9464C152 62.9464 154.286 60.5256 154.286 57.0313L154.271 42.55Z" fill="#EF7E00"/>
<path d="M238.002 42.55H247.75V71.3957H238.002V69.2559C235.774 71.3957 232.708 72.2429 230.257 72.2429C221.787 72.2429 216.158 65.1409 216.158 57.1956C216.158 48.7974 222.011 41.6992 230.535 41.6992C231.037 41.6992 231.593 41.754 232.207 41.8087L235.218 51.7295C234.308 51.2438 233.294 50.9929 232.264 50.9993C228.809 50.9993 226.188 53.5916 226.188 56.9728C226.188 60.3539 228.809 62.9501 232.264 62.9501C235.662 62.9501 238.002 60.5293 238.002 57.0349V42.55Z" fill="#EF7E00"/>
<path d="M131.703 31V40.0115H99.4902V31H131.703ZM110.112 41.3954H121.078V72.5889H110.112V41.3954Z" fill="#EF7E00"/>
<path d="M175.961 31H186.543V71.1284H175.961V31ZM211.344 51.0825C211.344 63.6212 203.906 71.1649 191.508 71.1649H187.865V62.4309H191.504C197.454 62.4309 200.761 58.3632 200.761 51.0642C200.761 43.7651 197.469 39.6939 191.504 39.6939H187.865V31H191.504C203.902 31 211.34 38.5218 211.34 51.0825H211.344Z" fill="#EF7E00"/>
<path d="M110.176 83.4189C110.176 79.8004 113.021 77.7264 116.415 77.7264C117.891 77.6902 119.33 78.1932 120.469 79.1432L118.848 80.8082C118.199 80.2481 117.369 79.9469 116.516 79.9611C114.642 79.9611 113.295 81.2171 113.295 83.3313C113.295 85.4454 114.418 86.7489 116.772 86.7489C117.192 86.7622 117.609 86.6666 117.982 86.4715V84.7187H115.971V82.59H120.69V87.669C119.462 88.5659 117.979 89.0325 116.465 88.9981C112.938 88.9981 110.176 87.0995 110.176 83.4189Z" fill="#EF7E00"/>
<path d="M142.849 86.2949H139.101L138.379 88.7924H135.277L139.213 77.9297H142.859L146.795 88.7924H143.593L142.849 86.2949ZM142.267 84.2794L141.997 83.3591C141.654 82.2638 141.332 80.9821 140.989 79.8722H140.924C140.617 81.0114 140.274 82.2821 139.949 83.3591L139.679 84.2794H142.267Z" fill="#EF7E00"/>
<path d="M161.914 77.9297H165.203L167.214 82.618C167.47 83.2424 167.672 83.9288 167.911 84.6006H167.998C168.254 83.9288 168.456 83.2424 168.695 82.618L170.637 77.9297H173.944V88.7924H171.168V85.0681C171.221 83.8063 171.352 82.5491 171.557 81.3035H171.474L170.42 83.8996L168.716 87.8723H167.044L165.337 83.8996L164.311 81.3035H164.253C164.459 82.5491 164.589 83.8063 164.644 85.0681V88.7924H161.918L161.914 77.9297Z" fill="#EF7E00"/>
<path d="M190.658 77.9297H193.71V88.7924H190.658V77.9297Z" fill="#EF7E00"/>
<path d="M210.426 77.9294H213.528L216.68 83.1253L217.925 85.5352H218.008C217.781 84.2075 217.645 82.8655 217.601 81.5187V77.9258H220.489V88.7886H217.388L214.253 83.5453L213.008 81.1682H212.924C213.126 82.4989 213.256 83.8397 213.315 85.1847V88.7922H210.426V77.9294Z" fill="#EF7E00"/>
<path d="M236.67 83.4189C236.67 79.8004 239.515 77.7264 242.909 77.7264C244.385 77.6902 245.825 78.1932 246.963 79.1432L245.343 80.8082C244.692 80.2486 243.864 79.9475 243.01 79.9611C241.136 79.9611 239.789 81.2171 239.789 83.3313C239.789 85.4454 240.912 86.7489 243.267 86.7489C243.686 86.7622 244.103 86.6666 244.475 86.4715V84.7187H242.464V82.59H247.183V87.669C245.956 88.5659 244.473 89.0325 242.959 88.9981C239.432 88.9981 236.67 87.0995 236.67 83.4189Z" fill="#EF7E00"/>
<path fill-rule="evenodd" clip-rule="evenodd" d="M86.5724 53.0841L89.3019 49.6225C89.3019 49.6225 89.7641 47.4318 88.2765 46.172C88.2765 46.172 86.5579 44.1163 83.1568 46.172C83.1568 46.172 79.9073 48.2423 75.9863 56.8741L57.5509 45.4892C57.5509 45.4892 54.8538 43.156 52.7705 45.8324C52.7705 45.8324 50.6439 48.5709 53.4565 50.6668L62.3313 56.5382V56.8814C62.3313 56.8814 61.3058 56.7974 59.9411 58.2616C59.9411 58.2616 58.4102 60.3173 59.9411 62.4059C59.9411 62.4059 57.9733 62.3292 57.2115 65.1699C57.1162 65.6302 57.1631 66.109 57.3459 66.5413C57.5286 66.9737 57.8384 67.3389 58.2333 67.5872C57.5199 67.972 56.9603 68.5946 56.6496 69.3496C56.3389 70.1044 56.2963 70.9448 56.5291 71.7278C56.5291 71.7278 57.8217 73.4439 58.9157 74.145C58.9157 74.145 66.5628 78.8589 68.8194 79.6695C68.8194 79.6695 71.5345 80.6079 73.2567 80.3596L84.5215 66.2033C84.5215 66.2033 83.6045 57.5642 86.5724 53.0841Z" fill="url(#paint0_linear_8047_7666)"/>
<path fill-rule="evenodd" clip-rule="evenodd" d="M94.7155 71.2686L88.9639 67.2302C88.57 66.9662 88.0929 66.86 87.6257 66.9323C87.1586 67.0045 86.7346 67.2499 86.4366 67.6208L75.1789 81.9048C75.0337 82.0804 74.9264 82.2846 74.8638 82.5044C74.8014 82.7243 74.7851 82.955 74.816 83.1817C74.847 83.4083 74.9245 83.6259 75.0435 83.8205C75.1626 84.015 75.3207 84.1821 75.5075 84.3111L81.2627 88.3496C81.6567 88.6136 82.1338 88.7197 82.601 88.6475C83.0681 88.5752 83.492 88.3298 83.79 87.9589L95.0405 73.6747C95.1859 73.4996 95.2934 73.2956 95.3562 73.0759C95.419 72.8561 95.4356 72.6254 95.4051 72.3989C95.3745 72.1722 95.2972 71.9545 95.1785 71.7599C95.0598 71.5652 94.902 71.3979 94.7155 71.2686Z" fill="#EF7E00"/>
<path fill-rule="evenodd" clip-rule="evenodd" d="M76.9072 43.695C77.1668 43.7933 77.4542 43.7836 77.7067 43.668C77.9592 43.5523 78.156 43.3401 78.254 43.0779L80.9402 35.8519C80.988 35.7222 81.0099 35.5843 81.0047 35.446C80.9995 35.3078 80.9672 35.172 80.9099 35.0464C80.8525 34.9207 80.771 34.8078 80.6703 34.7142C80.5695 34.6206 80.4514 34.5481 80.3228 34.5009C80.0633 34.4026 79.7758 34.4123 79.5234 34.528C79.2709 34.6436 79.0741 34.8559 78.9761 35.1179L76.2899 42.344C76.242 42.4736 76.2201 42.6116 76.2254 42.7499C76.2305 42.8881 76.2628 43.024 76.3203 43.1496C76.3776 43.2752 76.459 43.3881 76.5598 43.4818C76.6606 43.5753 76.7786 43.6478 76.9072 43.695Z" fill="#EDA823"/>
<path fill-rule="evenodd" clip-rule="evenodd" d="M64.2929 43.0781C64.391 43.3402 64.5878 43.5523 64.8402 43.6681C65.0927 43.7837 65.3801 43.7935 65.6397 43.6952C65.7679 43.6476 65.8856 43.5748 65.986 43.4811C66.0864 43.3873 66.1675 43.2743 66.2245 43.1488C66.2816 43.0232 66.3135 42.8874 66.3185 42.7494C66.3234 42.6113 66.3013 42.4735 66.2535 42.3441L63.5708 35.1181C63.472 34.8557 63.2745 34.6435 63.0215 34.5279C62.7685 34.4122 62.4805 34.4026 62.2205 34.501C62.0922 34.5486 61.9745 34.6214 61.8741 34.7152C61.7737 34.8089 61.6927 34.9218 61.6357 35.0474C61.5786 35.1729 61.5467 35.3087 61.5417 35.4468C61.5367 35.5849 61.5588 35.7226 61.6067 35.8521L64.2929 43.0781Z" fill="#EDA823"/>
<path fill-rule="evenodd" clip-rule="evenodd" d="M70.2637 41.0599C70.2656 41.3398 70.3767 41.6076 70.5727 41.8052C70.7687 42.0028 71.034 42.1141 71.3108 42.1151C71.4479 42.1171 71.584 42.0913 71.7112 42.0396C71.8384 41.9877 71.9541 41.9108 72.0515 41.8132C72.149 41.7157 72.2263 41.5995 72.2789 41.4713C72.3315 41.3433 72.3583 41.2059 72.3578 41.0671V33.3482C72.3559 33.0683 72.2448 32.8005 72.0488 32.6029C71.8528 32.4053 71.5875 32.2939 71.3108 32.293C71.1739 32.292 71.0382 32.3184 70.9115 32.3706C70.7847 32.4228 70.6694 32.4998 70.5721 32.5971C70.4748 32.6945 70.3975 32.8103 70.3446 32.938C70.2917 33.0656 70.2642 33.2025 70.2637 33.3409V41.0599Z" fill="#EDA823"/>
<defs>
<linearGradient id="paint0_linear_8047_7666" x1="69.5595" y1="41.9327" x2="76.3161" y2="79.8152" gradientUnits="userSpaceOnUse">
<stop stop-color="#F5B043"/>
<stop offset="1" stop-color="#ED6D20"/>
</linearGradient>
</defs>
</svg>
