<svg width="300" height="120" viewBox="0 0 300 120" fill="none" xmlns="http://www.w3.org/2000/svg">
<path d="M121.18 97.395L115.363 97.5763C115.313 97.578 115.264 97.5897 115.218 97.6108C115.172 97.6319 115.131 97.6619 115.098 97.6991C115.064 97.7362 115.038 97.7798 115.021 97.8273C115.005 97.8746 114.998 97.9249 115.001 97.975L115.106 99.5568C115.112 99.6521 115.154 99.7415 115.224 99.8065C115.294 99.8715 115.386 99.9072 115.482 99.9062L117.064 99.8864L117.42 107.327C117.425 107.427 117.47 107.521 117.545 107.588C117.582 107.621 117.625 107.646 117.672 107.661C117.719 107.677 117.769 107.684 117.818 107.68L119.614 107.565C119.708 107.554 119.795 107.508 119.856 107.436C119.917 107.363 119.949 107.27 119.944 107.176L119.736 99.8469L121.302 99.8271C121.352 99.8263 121.402 99.8152 121.448 99.7945C121.494 99.7738 121.536 99.7438 121.57 99.7065C121.604 99.6691 121.631 99.6253 121.647 99.5774C121.664 99.5296 121.671 99.4789 121.667 99.4283L121.555 97.7411C121.548 97.6467 121.505 97.5586 121.435 97.4944C121.366 97.4303 121.274 97.3948 121.18 97.395ZM127.955 97.8795L126.205 97.7807C126.109 97.7788 126.016 97.8146 125.945 97.8806C125.875 97.9464 125.834 98.0371 125.829 98.1332L125.803 102.015L125.038 102.18L124.844 97.7774C124.84 97.6821 124.799 97.592 124.73 97.5257C124.662 97.4595 124.57 97.4222 124.475 97.4214L122.742 97.4642C122.691 97.4641 122.642 97.474 122.595 97.4931C122.549 97.5125 122.507 97.5406 122.471 97.5763C122.436 97.6119 122.408 97.654 122.39 97.7004C122.371 97.7469 122.362 97.7966 122.363 97.8466L122.692 107.634C122.694 107.731 122.733 107.823 122.802 107.892C122.871 107.96 122.964 107.999 123.061 108L124.795 107.957C124.844 107.958 124.893 107.949 124.939 107.93C124.985 107.911 125.027 107.884 125.062 107.849C125.097 107.814 125.125 107.772 125.144 107.726C125.162 107.68 125.171 107.631 125.17 107.581L124.979 104.302L125.661 104.348L125.78 107.281C125.775 107.333 125.781 107.384 125.798 107.433C125.814 107.482 125.841 107.527 125.876 107.565C125.91 107.601 125.951 107.63 125.997 107.649C126.043 107.669 126.092 107.68 126.142 107.68L127.952 107.805H127.975C128.068 107.801 128.157 107.762 128.223 107.695C128.289 107.629 128.327 107.54 128.331 107.446V98.2716C128.332 98.2221 128.324 98.1727 128.307 98.1263C128.289 98.0799 128.262 98.0374 128.228 98.0014C128.194 97.9633 128.152 97.9328 128.104 97.9118C128.057 97.8908 128.006 97.8797 127.955 97.8795ZM134.476 97.0556L132.875 97.1776C132.784 97.188 132.701 97.2314 132.64 97.2995C132.579 97.3675 132.546 97.4555 132.545 97.5467C132.545 97.5467 132.545 103.67 132.545 104.467C132.545 104.942 132.595 105.739 132.077 105.762C131.722 105.762 131.593 105.251 131.586 104.513C131.586 103.679 131.649 97.985 131.649 97.9223C131.65 97.8299 131.618 97.7405 131.557 97.671C131.496 97.6016 131.411 97.5573 131.32 97.5467L129.474 97.3489C129.422 97.3433 129.369 97.3489 129.319 97.3653C129.269 97.3817 129.222 97.4085 129.184 97.4441C129.145 97.4795 129.114 97.5229 129.093 97.5713C129.072 97.6197 129.061 97.6719 129.062 97.7246C129.062 97.7246 129.131 104.902 129.138 105.152C129.146 105.503 129.224 105.848 129.368 106.167C129.512 106.486 129.719 106.773 129.977 107.01C130.234 107.248 130.537 107.431 130.867 107.549C131.196 107.667 131.547 107.717 131.896 107.696C134.16 107.634 134.569 106.289 134.707 104.731C134.766 104.072 134.872 98.0937 134.878 97.4313C134.879 97.3796 134.868 97.3286 134.848 97.2812C134.827 97.2338 134.797 97.1912 134.759 97.1559C134.722 97.1207 134.677 97.0936 134.628 97.0763C134.58 97.0591 134.528 97.052 134.476 97.0556ZM141.512 97.4477L139.864 97.5269C139.815 97.5295 139.766 97.5417 139.722 97.5632C139.677 97.5848 139.637 97.6149 139.604 97.6521C139.571 97.6892 139.546 97.7326 139.531 97.7796C139.515 97.8265 139.508 97.8762 139.512 97.9256L139.785 102.539L138.062 97.7905C138.033 97.7133 137.979 97.6477 137.908 97.6042C137.838 97.5608 137.755 97.5417 137.673 97.55L136.009 97.7345C135.917 97.7451 135.833 97.7894 135.772 97.8588C135.711 97.9283 135.678 98.0179 135.679 98.1102L135.953 107.173C135.953 107.264 135.987 107.352 136.047 107.42C136.108 107.488 136.192 107.531 136.282 107.542L137.953 107.664C138.006 107.667 138.059 107.66 138.109 107.642C138.158 107.623 138.203 107.595 138.241 107.558C138.279 107.521 138.308 107.476 138.327 107.426C138.347 107.377 138.355 107.324 138.352 107.271L138.092 103.317L139.532 107.436C139.557 107.504 139.602 107.564 139.66 107.607C139.719 107.65 139.789 107.676 139.861 107.68H141.657C141.709 107.679 141.76 107.668 141.807 107.647C141.853 107.625 141.895 107.594 141.93 107.556C141.964 107.518 141.99 107.473 142.006 107.424C142.022 107.374 142.028 107.323 142.023 107.271L141.917 97.8168C141.916 97.7668 141.905 97.7174 141.885 97.6715C141.865 97.6257 141.835 97.5843 141.799 97.55C141.761 97.5135 141.716 97.4856 141.667 97.4679C141.617 97.4503 141.564 97.4435 141.512 97.4477ZM143.736 97.2566H143.381C143.286 97.2591 143.195 97.2977 143.128 97.3644C143.061 97.4311 143.021 97.5211 143.018 97.6159L142.718 107.031C142.715 107.124 142.747 107.216 142.808 107.286C142.869 107.357 142.955 107.402 143.048 107.413C143.048 107.413 143.269 107.43 143.598 107.43C144.768 107.43 147.553 107.219 148.212 105.255C148.749 103.607 148.663 101.392 148.541 100.331C148.264 98.2618 146.696 97.2566 143.736 97.2566ZM146.225 103.459C146.024 105.05 145.529 105.149 144.982 105.337L145.239 99.4251C145.388 99.4412 145.532 99.4904 145.66 99.5691C145.787 99.6477 145.896 99.7539 145.977 99.8798C146.422 100.476 146.419 101.903 146.225 103.455V103.459ZM153.982 105.765L151.8 105.937L151.698 103.897L153.112 103.821C153.199 103.815 153.281 103.779 153.345 103.719C153.408 103.659 153.448 103.578 153.458 103.492L153.59 102.239C153.596 102.186 153.59 102.131 153.573 102.08C153.556 102.029 153.528 101.982 153.491 101.943C153.453 101.904 153.407 101.873 153.357 101.853C153.306 101.834 153.252 101.825 153.198 101.827L151.665 101.907V99.6952H153.932C153.982 99.6962 154.031 99.6871 154.076 99.6687C154.122 99.6504 154.164 99.6231 154.199 99.5884C154.234 99.5536 154.262 99.5122 154.28 99.4667C154.299 99.4211 154.309 99.3721 154.308 99.3228C154.311 99.2955 154.311 99.2678 154.308 99.2405L154.183 97.9223C154.172 97.8297 154.126 97.7447 154.055 97.6838C153.985 97.6229 153.894 97.5904 153.801 97.5928L149.655 97.6949C149.557 97.6975 149.465 97.7384 149.397 97.8086C149.329 97.8789 149.292 97.973 149.293 98.0706L149.424 107.383C149.425 107.482 149.465 107.576 149.535 107.645C149.604 107.714 149.699 107.753 149.797 107.753H153.988C154.085 107.752 154.178 107.714 154.248 107.646C154.317 107.579 154.358 107.487 154.361 107.39L154.394 106.174C154.395 106.122 154.385 106.07 154.366 106.022C154.346 105.974 154.316 105.93 154.278 105.894C154.242 105.851 154.197 105.816 154.145 105.793C154.094 105.77 154.038 105.758 153.982 105.759V105.765ZM160.764 100.305C160.672 98.9868 160.217 97.2632 157.376 97.2632C156.662 97.2751 155.95 97.3545 155.251 97.5005C155.165 97.5182 155.089 97.5649 155.034 97.6329C154.979 97.7008 154.95 97.7856 154.951 97.8729L155.079 106.981C155.08 107.072 155.114 107.159 155.175 107.227C155.236 107.294 155.319 107.337 155.409 107.347L156.727 107.449C156.778 107.454 156.829 107.448 156.877 107.432C156.926 107.415 156.97 107.389 157.007 107.354C157.045 107.319 157.075 107.277 157.095 107.23C157.116 107.182 157.126 107.132 157.126 107.08V104.144L157.785 104.108L158.523 107.252C158.539 107.337 158.584 107.414 158.651 107.469C158.718 107.525 158.802 107.555 158.889 107.555H158.918L160.237 107.453C160.289 107.449 160.34 107.434 160.386 107.409C160.432 107.384 160.472 107.349 160.504 107.308C160.535 107.266 160.558 107.219 160.571 107.169C160.583 107.118 160.585 107.066 160.576 107.014L159.65 103.515C160.289 103.01 160.892 102.111 160.761 100.298L160.764 100.305ZM158.408 101.59C158.052 101.9 157.6 102.076 157.129 102.088V99.402C157.247 99.376 157.367 99.3628 157.488 99.3624C157.986 99.3624 158.599 99.5866 158.678 100.654C158.701 100.82 158.689 100.988 158.642 101.149C158.595 101.309 158.514 101.457 158.404 101.584L158.408 101.59ZM165.75 102.968C166.991 101.511 167.622 99.6318 167.513 97.7213C167.51 97.6721 167.498 97.6239 167.477 97.5795C167.455 97.535 167.425 97.4952 167.389 97.4624C167.352 97.4296 167.309 97.4044 167.262 97.3884C167.216 97.3722 167.167 97.3655 167.117 97.3687L165.565 97.4708C165.467 97.4776 165.375 97.523 165.31 97.5972C165.246 97.6713 165.213 97.768 165.219 97.8664C165.272 98.6836 164.731 100.43 163.957 101.527L164.069 97.9783C164.07 97.928 164.062 97.878 164.043 97.8313C164.024 97.7845 163.997 97.7419 163.961 97.7062C163.926 97.6705 163.884 97.6424 163.837 97.6234C163.79 97.6045 163.74 97.5951 163.69 97.5961L161.69 97.6257C161.641 97.6262 161.592 97.6364 161.547 97.6557C161.502 97.675 161.461 97.7032 161.427 97.7385C161.393 97.7737 161.367 97.8155 161.349 97.8612C161.331 97.9069 161.323 97.9557 161.324 98.0047L161.525 107.433C161.526 107.485 161.538 107.537 161.56 107.585C161.583 107.632 161.615 107.674 161.655 107.709C161.694 107.743 161.741 107.768 161.791 107.783C161.842 107.798 161.895 107.802 161.947 107.795L163.506 107.588C163.596 107.577 163.679 107.534 163.739 107.467C163.8 107.4 163.834 107.313 163.835 107.222L163.858 104.457C164.188 104.648 165.101 105.993 165.259 107.321C165.269 107.412 165.313 107.496 165.382 107.557C165.451 107.618 165.539 107.651 165.631 107.65H167.279H167.302C167.397 107.644 167.486 107.601 167.551 107.53C167.615 107.459 167.65 107.367 167.648 107.271C167.618 106.925 167.068 104.029 165.75 102.968ZM170.403 97.1676L168.627 97.395C168.536 97.4056 168.452 97.449 168.392 97.5169C168.331 97.5849 168.297 97.673 168.297 97.7641V106.991C168.297 107.042 168.307 107.091 168.327 107.138C168.347 107.184 168.376 107.226 168.412 107.261C168.448 107.295 168.491 107.323 168.538 107.34C168.585 107.358 168.636 107.366 168.686 107.364L170.62 107.219C170.712 107.209 170.797 107.165 170.858 107.095C170.919 107.026 170.952 106.936 170.95 106.843L170.811 97.5169C170.811 97.4644 170.799 97.4125 170.777 97.3648C170.755 97.3171 170.723 97.2746 170.683 97.2402C170.642 97.2089 170.595 97.1866 170.545 97.1747C170.495 97.1628 170.443 97.1614 170.393 97.1709L170.403 97.1676ZM174.183 97.4379C173.642 97.4742 171.876 97.7905 171.728 100.404C171.708 100.735 171.689 101.051 171.672 101.35C171.563 103.119 171.487 104.401 171.714 105.508C171.849 106.168 172.406 107.713 174.598 107.713C174.733 107.713 174.875 107.713 175.02 107.693C175.936 107.617 176.611 107.324 177.036 106.82C177.64 106.105 177.557 105.172 177.514 104.694V104.599C177.503 104.505 177.457 104.418 177.385 104.357C177.313 104.296 177.22 104.264 177.125 104.269L175.741 104.329C175.689 104.331 175.638 104.345 175.591 104.369C175.544 104.392 175.503 104.426 175.47 104.466C175.437 104.507 175.413 104.554 175.4 104.605C175.386 104.656 175.384 104.709 175.392 104.76C175.459 105.127 175.395 105.504 175.211 105.828C175.157 105.89 175.09 105.938 175.015 105.969C174.939 106 174.857 106.013 174.776 106.006H174.756C174.669 106.011 174.583 105.997 174.502 105.965C174.421 105.933 174.348 105.884 174.288 105.821C174.084 105.61 173.86 105.09 173.922 103.818C173.922 103.525 173.952 103.179 173.965 102.829C174.001 101.88 174.044 100.802 174.133 100.124V100.101C174.199 99.5865 174.298 99.369 174.73 99.3492C174.843 99.3301 174.959 99.3368 175.069 99.3687C175.179 99.4007 175.28 99.4571 175.366 99.5337C175.472 99.7021 175.511 99.9047 175.474 100.101C175.464 100.154 175.465 100.21 175.478 100.263C175.492 100.316 175.516 100.366 175.551 100.408C175.586 100.451 175.629 100.485 175.679 100.509C175.728 100.533 175.782 100.545 175.837 100.545L177.504 100.569C177.602 100.57 177.696 100.533 177.766 100.466C177.837 100.399 177.879 100.307 177.883 100.209C177.881 99.5199 177.617 98.857 177.145 98.3541C176.486 97.6554 175.488 97.3489 174.173 97.4379H174.183ZM185.268 106.886C185.242 106.777 184.524 103.95 183.06 102.602C183.779 101.943 185.239 100.592 184.751 97.5565C184.735 97.4622 184.685 97.3772 184.609 97.319C184.533 97.2609 184.438 97.2338 184.342 97.2435L182.415 97.4577C182.364 97.4633 182.315 97.4789 182.271 97.5038C182.227 97.5288 182.188 97.5623 182.157 97.6027C182.098 97.6842 182.073 97.7862 182.088 97.886C182.088 97.9158 182.484 100.11 180.994 101.429L181.03 97.6884C181.031 97.6357 181.02 97.5835 180.999 97.5352C180.977 97.487 180.946 97.4439 180.907 97.4086C180.867 97.3734 180.821 97.347 180.771 97.3311C180.721 97.315 180.668 97.3099 180.615 97.316L178.687 97.5302C178.595 97.5416 178.511 97.5865 178.45 97.6564C178.389 97.7265 178.356 97.8165 178.358 97.9091L178.582 107.275C178.583 107.327 178.595 107.378 178.617 107.425C178.639 107.472 178.671 107.514 178.711 107.548C178.781 107.611 178.873 107.644 178.968 107.64H178.997L180.628 107.459C180.716 107.449 180.797 107.409 180.857 107.345C180.917 107.281 180.953 107.198 180.958 107.11L181.093 104.184C181.607 104.717 182.471 106.079 182.609 107.222C182.614 107.271 182.629 107.318 182.653 107.361C182.676 107.404 182.708 107.442 182.746 107.472C182.785 107.503 182.829 107.526 182.876 107.539C182.923 107.553 182.972 107.557 183.021 107.551L184.945 107.337C184.998 107.332 185.048 107.315 185.094 107.288C185.139 107.261 185.179 107.225 185.209 107.182C185.237 107.139 185.256 107.09 185.265 107.039C185.273 106.988 185.271 106.936 185.258 106.886H185.268Z" fill="#FF9F00"/>
<path d="M180.302 62.6307L182.557 46.7896L173.082 26.9084L166.636 29.1163L158.227 20.0968L143.364 12L140.112 24.0118L137.805 17.7044L126.403 28.856L120.017 40.011L119.733 51.5713L115.238 49.4325L118.296 67.956L125.256 79.8855L141.664 85.5074L155.103 85.9951L178.273 77.5259L184.939 61.0488L180.302 62.6307ZM170.278 53.8517L157.139 54.1812L156.665 68.9612L155.956 77.7105L144.511 77.5918V69.205L143.565 54.5438L129.83 55.1336L129.366 40.9468L149.583 40.8282L170.512 40.2384L170.868 42.13L170.278 53.8517Z" fill="#FF9F00"/>
</svg>
