<svg width="300" height="120" viewBox="0 0 300 120" fill="none" xmlns="http://www.w3.org/2000/svg">
<mask id="mask0_8024_3281" style="mask-type:luminance" maskUnits="userSpaceOnUse" x="51" y="27" width="198" height="66">
<path d="M249 27H51V93H249V27Z" fill="white"/>
</mask>
<g mask="url(#mask0_8024_3281)">
<path d="M96.7469 77.2041H107.091V89.4334C105.597 90.5131 104.014 91.3162 102.329 91.7974C100.645 92.2933 98.8865 92.527 97.055 92.527C94.6661 92.527 92.4827 92.1475 90.5192 91.4032C88.5557 90.6589 86.8708 89.623 85.4793 88.3095C84.0826 86.9931 82.9791 85.3969 82.2408 83.6254C81.479 81.8149 81.0977 79.845 81.0977 77.7284C81.0977 75.5687 81.4644 73.5832 82.182 71.7737C82.8999 69.9643 83.9255 68.4022 85.2594 67.0896C86.5931 65.775 88.2192 64.7539 90.1085 64.0243C91.9995 63.2946 94.1234 62.9297 96.4683 62.9297C97.6848 62.9297 98.8131 63.0315 99.8819 63.2212C100.952 63.4257 101.933 63.6887 102.828 64.0389C103.722 64.389 104.542 64.7979 105.289 65.2644C106 65.7173 106.667 66.2353 107.282 66.8119L105.333 69.7745C105.025 70.242 104.63 70.5188 104.146 70.6362C103.663 70.737 103.135 70.6206 102.579 70.2704C102.088 69.9722 101.584 69.6947 101.069 69.4389C100.603 69.2066 100.118 69.0161 99.6188 68.8697C99.1203 68.7231 98.6079 68.6222 98.066 68.5489C97.4581 68.4745 96.846 68.4402 96.2336 68.4463C94.9742 68.4463 93.831 68.6653 92.8199 69.1172C91.8279 69.5396 90.9458 70.1837 90.2414 71.0001C89.5227 71.8031 88.981 72.7812 88.6005 73.9187C88.2192 75.0572 88.0286 76.3131 88.0286 77.6991C88.0286 79.2317 88.2485 80.6031 88.673 81.8002C89.0983 82.9974 89.6996 84.0039 90.476 84.8215C91.2619 85.6436 92.2163 86.286 93.2737 86.7044C94.3581 87.1269 95.5598 87.346 96.8789 87.346C97.6848 87.346 98.4318 87.2728 99.0908 87.1123C99.7508 86.9519 100.395 86.7474 101.01 86.4706V82.077H98.1385C97.7141 82.077 97.3776 81.9607 97.142 81.7416C97.0236 81.6322 96.9297 81.4988 96.8665 81.3505C96.8033 81.2021 96.7723 81.042 96.7754 80.8808V77.2032L96.7469 77.2041ZM137.261 92.2072H132.03C131.444 92.2072 130.976 92.076 130.609 91.7983C130.246 91.5277 129.963 91.1649 129.788 90.7478L128.074 85.6979H117.011L115.311 90.7625C115.165 91.1273 114.902 91.4629 114.52 91.7699C114.139 92.0613 113.671 92.2219 113.114 92.2219H107.839L119.092 63.2514H126.008L137.261 92.2072ZM126.55 81.1448L123.854 73.2202C123.648 72.7234 123.443 72.1258 123.209 71.4391C122.989 70.7535 122.756 70.0238 122.535 69.2209C122.329 70.0238 122.126 70.7828 121.89 71.4684C121.67 72.1542 121.451 72.7528 121.246 73.2634L118.594 81.1448H126.55ZM172.251 63.2514V92.2219H166.302V75.555C166.302 75.1755 166.316 74.7519 166.331 74.2992C166.346 73.8472 166.389 73.3954 166.434 72.9278L158.712 87.8145C158.478 88.2819 158.155 88.6321 157.745 88.865C157.321 89.1081 156.841 89.234 156.352 89.2298H155.43C154.918 89.2298 154.448 89.1134 154.038 88.865C153.627 88.6321 153.304 88.2819 153.071 87.8145L145.349 72.8848C145.394 73.3659 145.422 73.8325 145.45 74.2854C145.481 74.7373 145.495 75.1609 145.495 75.5413V92.1924H139.546V63.2514H144.689C144.983 63.2514 145.231 63.2514 145.45 63.2662C145.671 63.2809 145.861 63.3248 146.038 63.3834C146.213 63.4412 146.359 63.5577 146.506 63.6897C146.653 63.8363 146.785 64.0251 146.916 64.2735L154.434 78.9705C154.697 79.4811 154.961 79.9917 155.195 80.5471C155.444 81.0862 155.679 81.6407 155.898 82.2099C156.119 81.6261 156.367 81.0568 156.603 80.5032C156.845 79.9628 157.109 79.4319 157.393 78.9118L164.851 64.2735C164.983 64.026 165.115 63.8207 165.261 63.6897C165.408 63.543 165.554 63.4422 165.731 63.3834C165.918 63.3123 166.116 63.2727 166.316 63.2662C166.536 63.2514 166.785 63.2514 167.078 63.2514H172.251ZM184.662 68.4187V75.1755H193.805V80.153H184.662V87.0555H196.603V92.2219H177.878V63.2514H196.603V68.4187H184.662ZM216.824 69.1337C216.62 69.4545 216.414 69.6874 216.195 69.8488C215.973 70.0092 215.696 70.0815 215.343 70.0815C215.037 70.0815 214.714 69.9799 214.361 69.79C214.01 69.6004 213.614 69.3812 213.161 69.1484C212.672 68.8921 212.162 68.6772 211.637 68.5058C211.065 68.316 210.405 68.2134 209.674 68.2134C208.413 68.2134 207.462 68.4765 206.845 69.0164C206.23 69.5572 205.922 70.2722 205.922 71.1907C205.922 71.7747 206.114 72.2569 206.479 72.6364C206.845 73.0159 207.344 73.3513 207.945 73.6282C208.545 73.9059 209.249 74.169 210.025 74.3872C210.801 74.6209 211.593 74.883 212.413 75.1609C213.219 75.4532 214.025 75.774 214.801 76.1683C215.58 76.5478 216.267 77.0437 216.881 77.6422C217.504 78.2672 218.002 79.0052 218.348 79.8165C218.715 80.6782 218.903 81.6994 218.903 82.9103C218.903 84.2533 218.67 85.5082 218.201 86.6614C217.748 87.8086 217.059 88.8479 216.179 89.712C215.301 90.5728 214.201 91.2584 212.912 91.7553C211.608 92.2502 210.144 92.4987 208.487 92.4987C207.557 92.4992 206.629 92.4064 205.718 92.2219C204.789 92.0349 203.878 91.7712 202.992 91.4334C202.135 91.103 201.308 90.7029 200.516 90.2372C199.74 89.7697 199.065 89.2591 198.493 88.6899L200.487 85.5522C200.648 85.333 200.852 85.1434 201.116 84.9838C201.38 84.8371 201.659 84.7492 201.966 84.7492C202.362 84.7492 202.773 84.8812 203.168 85.1287C203.578 85.377 204.032 85.6539 204.546 85.961C205.109 86.2927 205.703 86.5711 206.318 86.7924C206.977 87.0399 207.768 87.1719 208.676 87.1719C209.907 87.1719 210.846 86.9098 211.535 86.3689C212.207 85.8299 212.545 84.9829 212.545 83.815C212.545 83.1441 212.355 82.5894 211.988 82.166C211.622 81.7425 211.125 81.3923 210.524 81.1155C209.857 80.8127 209.166 80.5685 208.457 80.3858C207.681 80.1667 206.89 79.9329 206.083 79.6854C205.272 79.4249 204.478 79.1079 203.71 78.7367C202.941 78.3627 202.242 77.8591 201.643 77.248C201.044 76.6348 200.546 75.8611 200.178 74.9417C199.812 74.0224 199.622 72.8839 199.622 71.5272C199.622 70.4473 199.841 69.3822 200.282 68.3454C200.727 67.3005 201.386 66.3606 202.216 65.5862C203.066 64.7842 204.106 64.1278 205.351 63.6457C206.581 63.1644 208.003 62.916 209.6 62.916C210.495 62.916 211.358 62.9893 212.207 63.1204C213.057 63.2514 213.849 63.4705 214.612 63.7336C215.374 64.0104 216.077 64.3313 216.736 64.7108C217.396 65.0903 217.981 65.5138 218.509 65.995L216.824 69.1337Z" fill="white"/>
<path d="M61.6966 27.3061C63.7041 27.3061 65.4182 27.4959 66.8244 27.8608C68.2315 28.2256 69.3892 28.7518 70.283 29.4374C71.1767 30.1231 71.8212 30.9407 72.2318 31.9033C72.6415 32.8666 72.8469 33.9474 72.8469 35.1436C72.851 35.7818 72.757 36.4169 72.5683 37.0265C72.373 37.6366 72.0758 38.2089 71.6892 38.7196C71.2941 39.2448 70.7817 39.7261 70.151 40.1642C69.5204 40.6025 68.7733 40.982 67.8942 41.3027C69.8137 41.7703 71.2207 42.5137 72.1439 43.5504C73.067 44.5862 73.5207 45.9292 73.5207 47.5636C73.5207 48.79 73.286 49.9424 72.803 51.0084C72.3198 52.0735 71.6159 52.993 70.6927 53.7813C69.7696 54.5697 68.6266 55.182 67.2644 55.6349C65.9014 56.0721 64.3632 56.3059 62.6197 56.3059H51V27.3061H61.6966ZM57.7402 32.3414V39.4933H61.2565C62.0037 39.4933 62.6774 39.4345 63.2788 39.3329C63.8791 39.2302 64.3925 39.0404 64.8022 38.7773C65.2276 38.5152 65.5356 38.1503 65.7556 37.6829C65.9755 37.2163 66.0773 36.6323 66.0773 35.932C66.0773 35.2463 65.9894 34.6762 65.8133 34.2096C65.6383 33.7576 65.3733 33.3781 65.0222 33.1004C64.6555 32.8236 64.2018 32.6191 63.6601 32.5019C63.1027 32.3855 62.4584 32.3277 61.6966 32.3277H57.7402V32.3414ZM62.4877 51.212C63.3815 51.212 64.1138 51.0955 64.6711 50.8764C65.2423 50.6573 65.6822 50.3658 66.004 50.001C66.3267 49.6362 66.5467 49.242 66.664 48.79C66.7805 48.3373 66.8391 47.8844 66.8391 47.4179C66.8391 46.8925 66.7657 46.4105 66.6346 45.9878C66.4957 45.5703 66.2476 45.1974 65.916 44.908C65.5795 44.6155 65.1249 44.3965 64.5685 44.236C64.0111 44.0757 63.3081 44.0024 62.4584 44.0024H57.7402V51.212H62.4877ZM175.429 27.3061V56.2765H169.48V39.6243C169.48 39.2448 169.496 38.8214 169.509 38.3685C169.524 37.9165 169.569 37.4647 169.612 36.9972L161.89 51.8838C161.656 52.3514 161.333 52.7015 160.923 52.9343C160.5 53.1776 160.019 53.3035 159.531 53.2992H158.608C158.096 53.2992 157.627 53.1827 157.216 52.9343C156.805 52.7005 156.484 52.3505 156.249 51.8838L148.527 36.9532C148.571 37.4354 148.6 37.9019 148.631 38.3548C148.659 38.8066 148.674 39.2302 148.674 39.6106V56.2619H142.725V27.3061H147.868C148.161 27.3061 148.41 27.3061 148.631 27.3209C148.85 27.3355 149.04 27.3795 149.215 27.4381C149.392 27.5115 149.539 27.6123 149.685 27.7443C149.831 27.891 149.963 28.0799 150.095 28.3283L157.582 43.0252C157.846 43.5358 158.11 44.0463 158.344 44.6018C158.594 45.1409 158.828 45.6954 159.048 46.2646C159.267 45.6808 159.517 45.1124 159.752 44.5569C160 44.0024 160.264 43.477 160.543 42.9665L168.001 28.3283C168.133 28.0808 168.265 27.8754 168.41 27.7443C168.557 27.5977 168.704 27.4968 168.88 27.4381C169.055 27.3648 169.245 27.3355 169.465 27.3209C169.685 27.3061 169.935 27.3061 170.227 27.3061H175.429ZM187.855 56.2765H181.07V27.3061H187.855V56.2765ZM218.859 27.3061V56.2765H215.343C214.829 56.2765 214.391 56.1894 214.038 56.029C213.687 55.8676 213.335 55.5762 212.984 55.1674L199.269 37.8882C199.328 38.3987 199.357 38.9093 199.372 39.3915C199.385 39.8728 199.401 40.3246 199.401 40.7482V56.2765H193.452V27.3061H196.997C197.29 27.3061 197.54 27.3209 197.731 27.3502C197.936 27.3795 198.111 27.4235 198.272 27.4968C198.433 27.5693 198.58 27.671 198.728 27.803C198.873 27.934 199.034 28.1092 199.225 28.343L213.058 45.7394C212.988 45.2016 212.939 44.6613 212.911 44.1196C212.882 43.6288 212.868 43.1373 212.866 42.6457V27.3209H218.859V27.3061ZM238.464 41.2734H248.81V53.5036C247.314 54.5834 245.732 55.3865 244.046 55.8685C242.362 56.3635 240.603 56.5973 238.773 56.5973C236.383 56.5973 234.2 56.2178 232.237 55.4735C230.273 54.7291 228.589 53.6933 227.196 52.3798C225.8 51.0629 224.697 49.4669 223.958 47.6956C223.197 45.8851 222.815 43.9153 222.815 41.7987C222.815 39.639 223.181 37.6544 223.9 35.844C224.617 34.0345 225.644 32.4734 226.977 31.1598C228.31 29.8463 229.937 28.8241 231.827 28.0945C233.717 27.3648 235.841 27 238.187 27C239.402 27 240.531 27.1018 241.6 27.2915C242.671 27.4959 243.651 27.759 244.546 28.1092C245.439 28.4594 246.26 28.8682 247.007 29.3348C247.718 29.7878 248.385 30.3058 249 30.8821L247.052 33.8594C246.743 34.3269 246.348 34.6037 245.864 34.7211C245.381 34.8219 244.853 34.7055 244.296 34.3553C243.804 34.0572 243.302 33.7799 242.787 33.524C242.321 33.2914 241.835 33.1009 241.336 32.9547C240.838 32.808 240.325 32.7072 239.782 32.6339C239.175 32.5596 238.564 32.5253 237.952 32.5312C236.692 32.5312 235.548 32.7503 234.538 33.2031C233.545 33.6251 232.664 34.2688 231.959 35.085C231.241 35.888 230.698 36.8661 230.318 38.0046C229.937 39.1422 229.746 40.3971 229.746 41.784C229.746 43.3167 229.967 44.6889 230.391 45.8851C230.816 47.0823 231.416 48.0889 232.192 48.9065C232.979 49.7286 233.934 50.3709 234.991 50.7893C236.076 51.212 237.277 51.431 238.596 51.431C239.402 51.431 240.148 51.3577 240.808 51.1973C241.467 51.0431 242.108 50.8282 242.727 50.5555V46.163H239.856C239.431 46.163 239.095 46.0456 238.86 45.8265C238.741 45.7169 238.647 45.5836 238.585 45.4353C238.522 45.287 238.49 45.1269 238.494 44.9657V41.2734H238.464ZM132.864 43.2286C132.042 47.6515 128.174 50.8471 123.662 50.8471H123.457C122.797 50.8334 122.094 50.8471 120.336 50.1028C118.592 49.3584 118.211 48.9203 116.937 47.9285C116.203 47.3601 115.149 46.2646 114.108 45.3452C113.082 46.4544 110.753 49.0229 110.548 49.2273C111.441 50.1899 113.625 52.0874 114.504 52.7593L114.372 52.6428C116.921 54.7669 120.124 55.9472 123.441 55.985C124.175 55.985 124.776 55.9557 125.421 55.8824C131.207 55.182 136.058 51.0809 137.64 45.4617L132.864 43.2286Z" fill="#EC1C24"/>
<path d="M116.601 35.4048C117.476 34.3954 118.559 33.5862 119.775 33.0323C120.991 32.4785 122.312 32.1927 123.648 32.1947C125.846 32.1947 127.911 32.9537 129.553 34.2818L127.326 35.8723L137.598 40.572L136.544 29.363L133.89 31.2312C131.209 28.561 127.56 27.043 123.663 27.043C119.165 27.043 115.15 29.0862 112.482 32.2974V32.3111C112.379 32.4431 104.336 42.2358 101.024 45.4753C100.848 45.6513 100.657 45.8118 100.467 45.9722C100.438 46.0015 100.394 46.0308 100.365 46.0593C100.13 46.2636 99.8953 46.4681 99.6616 46.6578C99.6163 46.7009 99.5672 46.74 99.5149 46.7742C99.2949 46.9503 99.075 47.1253 98.8696 47.2857C98.8132 47.3258 98.7596 47.3695 98.7092 47.4168C98.5625 47.5332 98.4159 47.6359 98.2839 47.7377C98.2251 47.7816 98.1665 47.8256 98.1224 47.8697C98.0638 47.9127 98.0052 47.9568 97.9465 47.9861C97.7568 48.1172 97.5661 48.2492 97.3901 48.3802C97.3314 48.4242 97.2874 48.4535 97.2288 48.482L96.7017 48.8321C96.6576 48.8615 96.6137 48.8908 96.5549 48.9201C96.3936 49.0219 96.247 49.1099 96.1003 49.1969C96.0417 49.2264 95.983 49.2703 95.9244 49.2996C95.7777 49.3867 95.6465 49.46 95.5145 49.5334C94.5475 50.0586 93.7418 50.3942 93.0671 50.5985C92.3934 50.803 91.8663 50.9047 90.7964 50.9047C85.6091 50.6572 81.5069 46.1913 81.902 40.8929C82.2394 36.3095 86.0051 32.6035 90.6058 32.2974C93.551 32.1075 96.1443 33.3625 98.0785 35.2453C98.4011 35.5514 101.024 38.3684 101.58 39.054C102.577 37.9889 104.965 35.1866 105.053 35.0849C104.584 34.4707 102.606 32.399 102.475 32.2523C99.6616 29.1164 95.6035 27.0723 91.0467 27.131C83.4714 27.2336 77.1409 33.2607 76.7312 40.7921C76.2912 48.8183 82.4457 55.532 90.2703 56.0574C90.548 56.072 91.7938 56.116 92.4529 56.0426C93.1266 55.9693 93.7271 55.8245 94.2405 55.7072C95.0608 55.5174 95.8959 55.0802 95.9105 55.0802C95.9546 55.0655 95.9986 55.0361 96.0425 55.0214C96.204 54.9482 96.3799 54.8748 96.5559 54.7878C96.6293 54.7583 96.7173 54.7144 96.7906 54.6714C96.9656 54.5833 97.1573 54.4962 97.3469 54.3935C97.4203 54.3651 97.4789 54.3202 97.5523 54.2919C98.0657 54.0149 98.6221 53.7079 99.1784 53.3568C99.2518 53.3137 99.3399 53.2559 99.4131 53.212C99.6176 53.08 99.8229 52.9489 100.043 52.8032C100.131 52.7444 100.234 52.6721 100.336 52.6134C100.542 52.4667 100.761 52.3219 100.981 52.1606C101.069 52.0872 101.157 52.0295 101.259 51.9561C101.479 51.7957 101.699 51.6206 101.919 51.4611C101.977 51.4172 102.036 51.3731 102.08 51.3291C102.124 51.2998 102.153 51.2705 102.197 51.2411C102.52 50.9936 102.841 50.7159 103.178 50.439C103.26 50.3752 103.339 50.3069 103.414 50.2346C103.662 50.0156 103.927 49.7965 104.19 49.5627C104.307 49.4609 104.41 49.3593 104.526 49.2712C104.57 49.2273 104.629 49.1841 104.673 49.1402C104.864 48.965 105.054 48.79 105.26 48.5994C105.376 48.4985 108.308 45.6375 110.285 43.2441C112.263 40.8498 114.403 37.9899 116.601 35.4066V35.4048Z" fill="#EC1C24"/>
</g>
</svg>
