<svg width="300" height="120" viewBox="0 0 300 120" fill="none" xmlns="http://www.w3.org/2000/svg">
<path d="M75.2595 79.0003L70.5527 69.5128L84.7105 41.2539L94.1357 41.254L75.2595 79.0003Z" fill="white"/>
<path d="M46.9648 41.25H56.356V78.9835H46.9648V41.25Z" fill="white"/>
<path d="M42.1933 69.5759H23.3911V41.25H14V78.9835L37.7511 78.9819L42.1933 69.5759Z" fill="white"/>
<path d="M70.5592 50.6657L65.8359 41.2246L61.1152 50.6657L65.8339 60.1138L70.5592 50.6657Z" fill="#EE2B3B"/>
<path d="M108.252 70.6702V63.7506H115.967L119.563 56.4785H108.252V49.5116H123.08L127.116 41.2422H105.408V41.2496H98.8613V78.983L122.362 78.9815L127.118 70.6702H108.252Z" fill="white"/>
<path d="M142.235 56.5297C139.955 56.5297 137.655 55.7335 135.848 54.1211L137.805 51.7764C139.16 52.8947 140.58 53.6049 142.299 53.6049C143.655 53.6049 144.472 53.0667 144.472 52.1855V52.1425C144.472 51.3038 143.956 50.8737 141.439 50.228C138.407 49.4543 136.45 48.6156 136.45 45.6262V45.5832C136.45 42.8519 138.643 41.0449 141.719 41.0449C143.913 41.0449 145.784 41.7336 147.311 42.9594L145.59 45.4541C144.256 44.5294 142.945 43.9703 141.677 43.9703C140.407 43.9703 139.741 44.5509 139.741 45.2821V45.3251C139.741 46.3138 140.385 46.637 142.988 47.3037C146.041 48.0993 147.762 49.1962 147.762 51.8198V51.8629C147.762 54.8522 145.482 56.5297 142.235 56.5297Z" fill="white"/>
<path d="M165.205 48.7852C165.205 46.2045 163.313 44.0538 160.646 44.0538C157.979 44.0538 156.13 46.1615 156.13 48.7422V48.7852C156.13 51.3665 158.022 53.517 160.689 53.517C163.356 53.517 165.205 51.4094 165.205 48.8282V48.7852ZM160.646 56.5708C156.001 56.5708 152.668 53.1079 152.668 48.8282V48.7852C152.668 44.506 156.044 41 160.689 41C165.334 41 168.668 44.463 168.668 48.7422V48.7852C168.668 53.0648 165.291 56.5708 160.646 56.5708Z" fill="white"/>
<path d="M174.303 56.314V41.2598H177.614V53.3031H185.12V56.314H174.303Z" fill="white"/>
<path d="M196.153 56.5505C192.11 56.5505 189.637 54.2918 189.637 49.8622V41.2598H192.949V49.7762C192.949 52.2279 194.176 53.4967 196.196 53.4967C198.219 53.4967 199.444 52.2708 199.444 49.8837V41.2598H202.755V49.7547C202.755 54.3133 200.197 56.5505 196.153 56.5505Z" fill="white"/>
<path d="M215.636 44.3136V56.314H212.324V44.3136H207.742V41.2598H220.217V44.3136H215.636Z" fill="white"/>
<path d="M228.903 41.2598H225.592V56.314H228.903V41.2598Z" fill="white"/>
<path d="M247.229 48.7852C247.229 46.2045 245.336 44.0538 242.669 44.0538C240.003 44.0538 238.153 46.1615 238.153 48.7422V48.7852C238.153 51.3665 240.045 53.517 242.712 53.517C245.379 53.517 247.229 51.4094 247.229 48.8282V48.7852ZM242.669 56.5708C238.024 56.5708 234.691 53.1079 234.691 48.8282V48.7852C234.691 44.506 238.067 41 242.712 41C247.358 41 250.692 44.463 250.692 48.7422V48.7852C250.692 53.0648 247.315 56.5708 242.669 56.5708Z" fill="white"/>
<path d="M266.887 56.314L259.596 46.7438V56.314H256.326V41.2598H259.38L266.434 50.5289V41.2598H269.704V56.314H266.887Z" fill="white"/>
<path d="M281.358 56.5297C279.079 56.5297 276.779 55.7335 274.971 54.1211L276.929 51.7764C278.283 52.8947 279.703 53.6049 281.424 53.6049C282.778 53.6049 283.596 53.0667 283.596 52.1855V52.1425C283.596 51.3038 283.079 50.8737 280.562 50.228C277.53 49.4543 275.573 48.6156 275.573 45.6262V45.5832C275.573 42.8519 277.766 41.0449 280.843 41.0449C283.036 41.0449 284.907 41.7336 286.434 42.9594L284.714 45.4541C283.381 44.5294 282.068 43.9703 280.8 43.9703C279.531 43.9703 278.864 44.5509 278.864 45.2821V45.3251C278.864 46.3138 279.51 46.637 282.111 47.3037C285.165 48.0993 286.885 49.1962 286.885 51.8198V51.8629C286.885 54.8522 284.605 56.5297 281.358 56.5297Z" fill="white"/>
</svg>
