<svg width="300" height="120" viewBox="0 0 300 120" fill="none" xmlns="http://www.w3.org/2000/svg">
<path fill-rule="evenodd" clip-rule="evenodd" d="M139.309 24.0062C138.636 22.0959 137.981 20.2177 137.455 18.2987C136.915 16.3277 136.511 14.3291 136.206 12.3107C136.037 11.1868 136.063 11.1538 137.142 10.7782C139.324 10.0191 141.55 9.42219 143.837 9.07315C144.896 8.91153 144.948 8.94587 145.092 10.0305C145.696 14.5963 146.975 18.9635 148.922 23.1341C149.143 23.606 149.262 24.3759 149.768 24.4004C150.412 24.4316 150.496 23.6153 150.728 23.1222C152.666 18.9971 153.939 14.6736 154.524 10.1504C154.682 8.92884 154.717 8.89982 155.947 9.0822C158.237 9.42219 160.451 10.0692 162.635 10.8146C163.63 11.1538 163.611 11.1951 163.455 12.2757C162.932 15.89 161.993 19.3965 160.755 22.828C160.615 23.2141 160.19 23.6741 160.607 24.0386C160.935 24.3254 161.354 23.9532 161.707 23.8065C165.276 22.3239 168.397 20.1725 171.147 17.4681C171.273 17.3438 171.398 17.2175 171.524 17.0926C172.531 16.0952 172.528 16.099 173.651 17.0362C175.323 18.4297 176.928 19.893 178.33 21.5633C179.038 22.4074 179.03 22.4212 178.298 23.1877C172.946 28.7919 166.485 32.4713 158.968 34.3174C158.623 34.4019 158.273 34.4658 157.933 34.5679C157.121 34.8138 157.064 34.9886 157.686 35.6237C159.742 37.7214 162.014 39.5642 164.458 41.1899C165.22 41.6969 165.249 41.6769 166.138 40.8454C169.899 37.3297 174.142 34.536 178.822 32.4112C180.194 31.7884 181.608 31.2543 183.021 30.7308C183.979 30.3759 184.138 30.4585 184.533 31.4112C185.417 33.5448 186.174 35.7223 186.658 37.9863C186.876 39.0038 186.863 39.0529 185.827 39.4189C183.561 40.2197 181.384 41.2046 179.307 42.4131C177.963 43.1945 176.669 44.0505 175.422 44.9753C175.077 45.2315 174.524 45.441 174.581 45.9171C174.652 46.5099 175.32 46.4671 175.752 46.6042C178.935 47.6122 182.194 48.2438 185.524 48.4999C188.031 48.693 187.544 48.6133 187.346 50.74C187.16 52.7285 186.774 54.69 186.21 56.6096C185.909 57.6323 185.881 57.6714 184.82 57.5942C181.181 57.329 177.609 56.6777 174.107 55.6503C165.239 53.0488 157.57 48.4352 151.034 41.9148C149.756 40.6402 149.991 40.499 148.618 41.8824C141.678 48.8751 133.435 53.6208 123.903 56.1088C121.024 56.8601 118.095 57.3562 115.126 57.5838C113.758 57.6888 113.777 57.6507 113.393 56.3719C112.776 54.3227 112.469 52.2182 112.229 50.1015C112.069 48.6915 112.096 48.6446 113.589 48.5401C116.832 48.3132 120.017 47.7739 123.133 46.8425C123.685 46.6774 124.233 46.4972 124.776 46.3053C125.245 46.1391 125.299 45.8292 124.935 45.5198C124.428 45.0903 123.897 44.6868 123.349 44.3111C120.409 42.294 117.288 40.6268 113.913 39.4513C112.74 39.0426 112.729 39.0248 113.007 37.8473C113.517 35.6849 114.168 33.5679 115.074 31.5336C115.579 30.4017 115.596 30.3731 116.749 30.7714C120.584 32.097 124.182 33.8992 127.562 36.1449C129.711 37.5725 131.709 39.186 133.62 40.9133C134.468 41.6803 134.467 41.6679 135.409 41.0392C137.592 39.5818 139.616 37.9317 141.475 36.0791C141.695 35.86 141.922 35.6457 142.119 35.4074C142.433 35.0283 142.291 34.7546 141.87 34.6023C141.621 34.5121 141.358 34.4606 141.099 34.4008C133.458 32.6411 126.914 28.9381 121.448 23.3216C121.324 23.1944 121.202 23.0649 121.077 22.9393C120.747 22.6064 120.684 22.2678 121.019 21.8911C122.761 19.93 124.625 18.0993 126.691 16.4777C127.117 16.1432 127.408 16.3376 127.716 16.6552C128.767 17.7377 129.857 18.7777 131.042 19.7164C133.284 21.4912 135.72 22.9251 138.377 23.9828C138.613 24.077 138.856 24.228 139.309 24.0062Z" fill="#E6642B"/>
<path fill-rule="evenodd" clip-rule="evenodd" d="M149.703 84.0728C148.595 84.0728 147.485 84.1186 146.38 84.0589C145.402 84.0065 145.263 83.823 145.26 82.8222C145.248 79.4523 145.219 76.0819 145.274 72.7129C145.292 71.625 144.98 70.7775 144.315 69.9233C140.642 65.2024 137.014 60.4457 133.379 55.6946C132.45 54.4796 132.466 54.471 133.883 53.7893C135.722 52.9052 137.524 51.9544 139.254 50.8683C140.564 50.0468 140.572 50.063 141.477 51.2443C143.93 54.4456 146.383 57.6466 148.838 60.846C149.82 62.1262 149.846 62.1232 150.799 60.878C153.304 57.6049 155.81 54.3317 158.319 51.0611C159.086 50.0616 159.102 50.0487 160.123 50.6911C162.077 51.9209 164.114 52.9919 166.199 53.9796C167.105 54.4091 167.133 54.5468 166.525 55.3429C162.76 60.2751 159.001 65.2121 155.198 70.1146C154.615 70.8656 154.358 71.6058 154.368 72.542C154.403 75.9117 154.384 79.2817 154.379 82.6513C154.378 83.8664 154.337 83.9679 153.157 84.0474C152.011 84.125 150.855 84.0646 149.703 84.0646L149.703 84.0728Z" fill="#E6642B"/>
<path fill-rule="evenodd" clip-rule="evenodd" d="M103.715 105.743C103.715 106.541 103.693 107.34 103.725 108.136C103.743 108.588 103.569 108.898 103.229 109.156C100.197 111.454 96.0113 111.488 93.4616 109.897C91.044 108.389 90.0851 106.15 90.1367 103.371C90.2257 98.5603 94.4932 95.6863 98.6964 96.2346C100.185 96.429 101.539 96.8618 102.752 97.7444C103.158 98.0395 103.249 98.3384 102.872 98.7189C102.748 98.8443 102.651 98.9964 102.53 99.1257C102.109 99.5746 101.868 100.283 101.272 100.448C100.692 100.609 100.287 99.9615 99.7811 99.715C98.1129 98.9023 96.1373 99.1088 94.9462 100.257C93.4843 101.667 93.0963 103.796 93.9655 105.639C94.7372 107.274 96.3124 108.14 98.2111 107.978C98.8349 107.925 99.4374 107.796 100.004 107.523C100.34 107.361 100.559 107.152 100.612 106.735C100.76 105.56 100.594 105.349 99.4089 105.322C97.0956 105.269 97.4867 105.738 97.4459 103.232C97.4374 102.714 97.506 102.403 98.1491 102.418C99.7441 102.455 101.341 102.445 102.936 102.426C103.512 102.419 103.727 102.654 103.71 103.217C103.686 104.058 103.704 104.901 103.704 105.743H103.715Z" fill="white"/>
<path fill-rule="evenodd" clip-rule="evenodd" d="M123.752 105.674C123.752 106.472 123.73 107.272 123.76 108.069C123.778 108.566 123.577 108.885 123.197 109.188C120.651 111.218 116.491 111.586 113.64 110.011C110.835 108.461 109.425 104.852 110.36 101.617C111.421 97.9469 114.789 95.7606 118.612 96.2082C120.1 96.3825 121.458 96.8287 122.677 97.7085C123.148 98.0476 123.209 98.3728 122.796 98.7859C122.671 98.9107 122.571 99.0601 122.454 99.1931C122.073 99.6235 121.767 100.218 121.289 100.437C120.721 100.698 120.327 99.976 119.826 99.7397C118.074 98.9137 115.849 99.0299 114.518 100.713C113.148 102.445 113.142 104.875 114.566 106.609C115.698 107.988 118.248 108.427 119.955 107.538C120.515 107.246 120.825 106.165 120.519 105.576C120.429 105.404 120.281 105.326 120.098 105.317C119.833 105.303 119.564 105.325 119.302 105.292C118.706 105.217 117.885 105.616 117.562 105.053C117.203 104.427 117.445 103.58 117.456 102.829C117.459 102.56 117.656 102.444 117.9 102.443C119.674 102.432 121.447 102.428 123.221 102.424C123.611 102.424 123.762 102.638 123.759 103.013C123.751 103.9 123.756 104.787 123.756 105.674H123.752Z" fill="white"/>
<path fill-rule="evenodd" clip-rule="evenodd" d="M194.025 96.2828C195.785 96.1975 197.276 96.7098 198.657 97.5669C199.368 98.0077 199.378 98.0881 198.869 98.8053C198.489 99.3417 198.253 100.124 197.656 100.327C197.092 100.519 196.598 99.8064 196.01 99.6294C195.502 99.4765 195.007 99.2775 194.494 99.1486C193.913 99.0024 193.338 99.1062 192.826 99.4053C192.015 99.8783 192.003 100.87 192.835 101.313C193.374 101.601 193.989 101.754 194.58 101.934C195.68 102.269 196.799 102.534 197.819 103.103C199.21 103.879 199.767 105.043 199.714 106.618C199.66 108.213 199.081 109.479 197.65 110.217C195.497 111.327 193.28 111.13 191.085 110.32C190.254 110.014 189.487 109.566 188.783 109.015C188.433 108.741 188.363 108.477 188.71 108.146C188.901 107.963 189.057 107.744 189.235 107.547C189.561 107.189 189.83 106.704 190.236 106.512C190.761 106.264 191.03 106.936 191.44 107.156C192.437 107.691 193.464 108.04 194.603 108.027C195.008 108.023 195.4 107.972 195.762 107.786C196.679 107.314 196.738 106.339 195.854 105.807C195.089 105.347 194.203 105.186 193.362 104.918C192.689 104.703 191.993 104.544 191.341 104.279C189.908 103.696 189.059 102.665 188.975 101.059C188.885 99.3333 189.391 97.9169 190.939 96.9965C191.924 96.4111 192.998 96.2068 194.025 96.2828Z" fill="white"/>
<path fill-rule="evenodd" clip-rule="evenodd" d="M72 97.2545C73.0405 97.0348 74.1023 97.2014 75.1513 97.1426C75.6548 97.1144 75.8201 97.5189 76.0211 97.8511C76.7315 99.0269 77.4256 99.4578 78.13 100.638C78.3555 101.015 78.5944 101.384 78.8193 101.745C79.265 101.741 79.331 101.39 79.4788 101.15C80.2933 99.8299 81.1191 98.5154 81.8873 97.1685C82.1828 96.6503 82.5092 96.3607 83.1298 96.3841C84.0076 96.4177 84.8875 96.3929 85.7158 96.3929C85.9722 96.8585 85.6759 97.0755 85.5244 97.3144C84.1232 99.522 82.7289 101.734 81.2946 103.92C80.8148 104.651 80.5457 105.385 80.5914 106.276C80.6508 107.425 80.6181 108.581 80.6056 109.733C80.5949 110.703 80.5824 110.703 79.6689 110.74C77.3774 110.833 77.2397 110.822 77.4133 108.599C77.6002 106.207 76.958 104.96 75.5384 103.063C74.4 101.542 73.4655 99.8676 72.4537 98.253C72.2708 97.9608 71.9958 97.7025 72 97.2545Z" fill="white"/>
<path fill-rule="evenodd" clip-rule="evenodd" d="M217.426 103.455C217.426 101.46 217.419 99.4661 217.429 97.4716C217.435 96.4208 217.448 96.4208 218.423 96.3969C220.666 96.3412 220.665 96.3412 220.666 98.612C220.668 101.315 220.665 104.018 220.676 106.722C220.68 107.743 220.693 107.756 221.675 107.762C223.404 107.772 225.132 107.754 226.86 107.766C227.784 107.773 227.808 107.791 227.802 108.741C227.785 111.147 228.057 110.724 225.877 110.742C223.396 110.762 220.914 110.752 218.432 110.742C217.439 110.738 217.42 110.722 217.413 109.703C217.4 107.62 217.41 105.537 217.41 103.455H217.426Z" fill="white"/>
<path fill-rule="evenodd" clip-rule="evenodd" d="M209.882 103.551C209.883 105.592 209.889 107.633 209.88 109.674C209.875 110.726 209.861 110.726 208.89 110.749C206.59 110.804 206.584 110.804 206.58 108.46C206.573 104.867 206.573 101.273 206.577 97.6796C206.578 96.4125 206.586 96.4125 207.776 96.399C209.881 96.3748 209.881 96.3748 209.881 98.4934C209.881 100.179 209.881 101.865 209.882 103.551Z" fill="white"/>
<path fill-rule="evenodd" clip-rule="evenodd" d="M158.154 103.069C156.917 103.538 155.623 103.265 154.354 103.288C154.015 103.295 153.963 102.992 153.96 102.716C153.955 102.231 153.958 101.745 153.958 101.129C153.995 98.9998 153.626 99.3717 155.931 99.3312C156.639 99.3186 157.343 99.3436 158.024 99.5679C158.822 99.8304 159.287 100.403 159.353 101.2C159.418 101.988 158.947 102.769 158.154 103.069ZM159.748 105.764C160.014 105.567 160.111 105.473 160.225 105.414C162.229 104.384 162.97 102.267 162.546 100.087C162.138 97.9824 160.762 96.8263 158.313 96.5188C155.973 96.225 153.616 96.4552 151.268 96.3908C150.677 96.3745 150.663 96.7588 150.664 97.1888C150.668 101.448 150.672 105.707 150.66 109.966C150.659 110.508 150.802 110.796 151.407 110.756C151.981 110.718 152.562 110.716 153.136 110.757C153.784 110.804 153.996 110.537 153.971 109.908C153.932 108.933 153.957 107.956 153.962 106.98C153.963 106.719 153.965 106.453 154.27 106.316C155.037 105.97 156.314 106.342 156.823 107.083C157.527 108.107 158.22 109.137 158.916 110.166C159.114 110.46 159.282 110.76 159.723 110.752C160.763 110.733 161.804 110.746 163.15 110.746C161.917 108.941 160.855 107.385 159.748 105.764Z" fill="white"/>
<path fill-rule="evenodd" clip-rule="evenodd" d="M140.529 104.028C140.351 106.212 138.763 107.668 136.443 107.77C136.178 107.782 135.911 107.771 135.645 107.771C133.721 107.759 133.984 107.971 133.97 106.052C133.957 104.279 133.967 102.505 133.965 100.732C133.963 99.1292 133.922 99.3384 135.43 99.343C135.96 99.3449 136.499 99.3575 137.018 99.4516C139.316 99.8678 140.718 101.714 140.529 104.028ZM137.839 96.5738C135.678 96.2163 133.499 96.4756 131.33 96.398C130.748 96.3773 130.717 96.7512 130.718 97.1843C130.725 101.443 130.737 105.701 130.717 109.959C130.714 110.639 131.01 110.782 131.603 110.759C132.444 110.725 133.288 110.75 134.131 110.75V110.745C135.018 110.745 135.908 110.793 136.791 110.736C139.05 110.588 141.065 109.828 142.459 107.967C145.804 103.504 143.346 97.4852 137.839 96.5738Z" fill="white"/>
<path fill-rule="evenodd" clip-rule="evenodd" d="M174.035 104.63C174.629 103.197 175.147 101.95 175.76 100.472C176.475 101.957 176.986 103.227 177.446 104.63H174.035ZM182.964 109.613C181.321 105.738 179.679 101.862 178.028 97.9894C177.14 95.9058 177.516 96.4225 175.429 96.3035C174.577 96.2548 174.179 96.5868 173.862 97.3461C172.174 101.395 170.436 105.424 168.717 109.461C168.553 109.847 168.323 110.224 168.409 110.751C169.264 110.751 170.06 110.725 170.854 110.761C171.391 110.785 171.658 110.555 171.825 110.07C172.026 109.484 172.298 108.923 172.516 108.342C172.708 107.831 173.008 107.564 173.601 107.578C175.064 107.612 176.528 107.604 177.991 107.584C178.51 107.577 178.818 107.779 178.996 108.26C179.226 108.883 179.486 109.495 179.739 110.109C179.876 110.443 180.022 110.753 180.477 110.746C181.395 110.731 182.314 110.741 183.199 110.741C183.334 110.228 183.1 109.933 182.964 109.613Z" fill="white"/>
</svg>
