<svg width="300" height="120" viewBox="0 0 300 120" fill="none" xmlns="http://www.w3.org/2000/svg">
<path d="M109.561 80.9332C113.014 81.4997 115.889 85.0205 115.629 89.2009C115.324 94.0789 111.716 98.9975 102.75 98.9975C100.106 99.0249 97.4619 98.9975 94.8178 98.9975L93.834 65.5449H106.14C108.839 65.5449 113.341 67.2809 113.704 72.4509C114.088 77.9222 110.591 80.2672 109.082 80.8306L109.085 80.8843C109.133 80.8858 109.415 80.9093 109.561 80.9332ZM103.567 79.3559C104.27 79.3667 105.085 79.3029 105.853 78.9416C108.192 77.6917 107.89 74.5052 106.846 73.1559C106.202 72.2911 105.342 71.8038 104.253 71.8038H102.501C102.606 74.2814 102.66 78.7096 102.689 79.3424C102.879 79.3559 103.253 79.351 103.567 79.3559ZM103.739 95.0084C109.488 94.2526 108.472 88.9737 107.409 87.2456C106.592 85.9185 104.491 85.0078 103.42 85.1705C103.257 85.1952 102.8 85.1496 102.8 85.1496C102.8 85.1496 103.04 93.0239 103.117 95.0128L103.737 95.0101L103.739 95.0084Z" fill="#840BA2"/>
<path d="M87.4823 40.3912C87.1617 37.8741 87.3755 39.4716 86.9808 36.9826C86.6766 35.0971 86.2564 31.381 84.8258 30.1085C84.3079 29.6442 83.5926 29.8299 83.2967 30.6658C82.8609 31.9011 82.8948 34.4655 82.903 35.7565C82.9358 40.6884 83.2976 45.5272 84.0458 50.2733C84.35 52.1958 84.8268 55.6866 85.5667 57.3956C86.2981 59.1141 87.994 59.4669 88.3621 57.1912C88.6827 55.3151 88.4443 51.9079 88.3621 50.0876C88.2962 48.555 88.3127 48.0256 88.2223 46.456H96.7644C97.1426 46.5025 97.1837 46.939 97.159 47.2827C97.0768 48.583 97.044 49.8832 96.9124 51.1834C96.6329 53.9605 96.0573 56.7004 94.7748 59.301C93.706 61.4744 92.2508 63.2205 90.1707 64.112C87.285 65.3473 84.6624 64.9665 82.2534 63.5826C80.0255 62.3008 78.4799 60.2298 77.2795 57.8056C75.627 54.4807 74.7391 50.7655 74.2951 46.8461C73.9333 43.6604 73.9087 40.419 74.1965 37.1125C74.4184 34.5955 74.8624 32.1065 75.9312 29.7009C77.0082 27.3046 78.5045 25.3356 80.7242 24.2211C82.8948 23.1345 84.9912 23.1809 87.0301 23.8125C89.7679 24.6576 91.7164 26.6174 93.2373 29.1529C94.7172 31.6142 95.6545 34.4191 96.2711 37.3911C96.4931 38.4499 96.6492 39.5273 96.8466 40.6326C94.5199 40.6326 89.7186 40.3912 87.4823 40.3912Z" fill="#840BA2"/>
<path d="M213.748 85.5664C223.082 85.2071 222.941 96.0429 221.654 102H212.099C212.099 102 212.554 94.9271 212.554 93.6127C212.743 91.23 212.545 88.2895 208.615 88.2895C208.357 88.261 207.841 88.3083 207.841 88.3083L206.964 102H198.09L200.877 61.5712C200.877 61.5712 207.68 61.5239 211.101 61.5997C223.559 61.5712 226.589 78.6176 213.913 85.2071C213.852 85.2354 213.758 85.5664 213.758 85.5664H213.748ZM208.917 82.276C213.104 81.7465 214.317 75.3548 213.078 71.3647C212.519 69.5682 210.86 68.3674 209.062 68.7172C208.779 73.1706 208.495 77.8037 208.212 82.276H208.917Z" fill="#840BA2"/>
<path d="M141.377 84.9001C143.407 88.952 145.94 93.5477 150.616 95.1952C152.344 95.621 153.467 94.068 152.336 92.2706C149.548 87.8168 144.722 84.9869 141.942 80.4383C137.952 74.542 139.8 65.4608 147.964 64.6488C153.307 64.1207 157.766 66.6762 160.72 70.9093C159.199 73.3608 156.602 77.5231 156.642 77.594C154.722 74.1018 153.053 70.7029 149.612 69.5284C147.438 68.7952 146.793 70.7503 147.39 72.2007C149.731 77.837 160.11 82.5904 160.285 89.8112C160.571 101.982 145.614 102.526 139.019 94.9824C138.43 94.2493 137.729 93.3664 137.314 92.4678C138.876 89.4881 141.369 84.908 141.369 84.908L141.377 84.9001Z" fill="#840BA2"/>
<path d="M179.524 65.3867L178.969 72.0929H173.072L171.114 98.9941H162.843L164.805 72.0929H158.736L159.508 65.3876L179.524 65.3867Z" fill="#840BA2"/>
<path d="M111.898 28.5195C109.798 38.1626 105.502 57.3353 105.502 57.3353L114.238 54.7785L114.064 61.8572C114.064 61.8572 102.54 61.8572 96.2148 61.8572C96.6501 59.2926 100.568 36.914 101.874 28.5581C103.354 28.5581 111.669 28.5195 111.898 28.5195Z" fill="#840BA2"/>
<path d="M160.531 28.5819C160.464 36.9125 160.398 45.1941 160.33 53.4756C160.351 53.4805 160.37 53.4843 160.391 53.4891C161.795 45.1893 163.197 36.8904 164.6 28.602C167.223 28.602 169.813 28.602 172.449 28.602C172.292 29.3907 172.143 30.1486 171.99 30.9046C169.922 41.1147 167.855 51.3247 165.793 61.5376C165.738 61.8129 165.635 61.9128 165.335 61.9117C161.934 61.8983 158.535 61.903 155.138 61.903C155.018 61.903 154.897 61.903 154.721 61.903C154.663 55.5346 154.605 49.2006 154.546 42.8675C154.519 42.8608 154.491 42.8541 154.464 42.8473C154.307 43.5247 154.15 44.2011 153.997 44.8794C152.738 50.4324 151.478 55.9855 150.228 61.5424C150.167 61.8148 150.06 61.9128 149.762 61.9117C146.337 61.8983 142.915 61.903 139.492 61.903C139.372 61.903 139.251 61.903 139.102 61.903C139.293 50.7807 139.484 39.6928 139.675 28.5992C142.299 28.5992 144.89 28.5992 147.53 28.5992C147.041 37.0593 146.554 45.4934 146.067 53.9285C146.084 53.9343 146.101 53.94 146.119 53.9458C146.153 53.823 146.193 53.7021 146.22 53.5774C148.002 45.3792 149.784 37.182 151.555 28.9811C151.621 28.677 151.735 28.5723 152.061 28.5742C154.731 28.5905 157.397 28.5829 160.066 28.5829H160.532L160.531 28.5819Z" fill="#840BA2"/>
<path d="M137.434 65.379H129.435C129.557 72.329 130.122 89.6187 129.48 92.5185C129.419 92.985 128.525 95.6437 126.845 95.6437C124.889 95.6437 124.277 92.985 124.209 92.5185C123.567 89.6187 124.094 72.158 124.254 65.3711H116.255C116.316 72.0724 116.209 84.0914 116.209 84.0914C116.232 86.9444 116.438 90.8549 117.737 93.8635C119.204 97.2685 122.023 99.6166 126.478 99.6166C126.6 99.6166 127.081 99.6166 127.204 99.6166C131.666 99.6166 134.516 97.2685 135.983 93.8635C137.282 90.847 137.45 86.9444 137.473 84.0914C137.473 84.0914 137.366 72.0724 137.427 65.3711L137.434 65.379Z" fill="#840BA2"/>
<path d="M197.601 80.4869C197.735 80.4869 197.869 80.4948 197.996 80.4948C198.027 79.4982 197.743 77.3796 197.561 76.4772C197.057 73.9505 196.252 71.5729 194.904 69.4856C193.523 67.3435 191.717 65.6799 189.113 64.958C187.18 64.4243 185.16 64.3851 183.047 65.3032C180.878 66.2448 179.378 67.9162 178.282 69.9486C177.17 71.9966 176.673 74.1075 176.381 76.2418C176.002 79.0431 175.931 81.7974 176.176 84.5045C176.484 87.8315 177.217 90.9782 178.708 93.7952C179.789 95.8511 181.209 97.6009 183.307 98.6917C185.58 99.8683 188.079 100.182 190.888 99.1389C197.199 96.6201 197.892 88.6711 198.09 84.1592H190.075C190.273 86.3407 190.352 90.2406 190.242 92.2964C190.021 96.4081 187.212 97.7343 185.943 92.1552C185.413 89.8404 185.089 85.1165 184.908 82.6369C184.861 81.9935 184.83 81.2559 184.806 80.4791H197.593L197.601 80.4869ZM188.088 72.8362C188.379 73.9583 188.537 75.0961 188.687 76.0926C188.782 76.7203 188.845 77.1834 188.893 77.5679H184.775C184.775 75.3785 184.838 73.4247 184.901 72.899C185.271 69.8858 187.323 69.8701 188.088 72.8362Z" fill="#840BA2"/>
<path d="M120.247 28.585C121.548 28.5695 120.804 28.5696 134.25 28.5926C135.628 39.6987 136.572 50.7741 137.95 61.8648H129.474L129.102 56.9024H123.932L123.204 61.8726H114.465L119.922 28.585M128.684 50.6591C128.305 45.3208 127.539 34.7056 127.539 34.7056C127.539 34.7056 127.469 34.6901 127.438 34.6901C126.618 40.0054 125.379 46.6631 124.551 52.0013C125.96 51.6101 127.639 51.0732 128.684 50.6591Z" fill="#840BA2"/>
<path d="M223.125 52.7961C222.492 54.4397 221.568 55.3479 220.409 55.8905C218.683 56.8078 215.623 57.5767 211.748 58.0842C211.565 58.0797 211.408 57.9415 211.384 57.7553C211.359 57.5552 211.498 57.371 211.698 57.3364C216.182 56.557 219.08 55.2721 219.08 54.6658C219.08 53.1523 210.779 52.1022 200.537 52.1022C190.296 52.1022 181.994 53.1523 181.994 54.6658C181.994 55.3925 183.903 56.1661 187.402 56.9416C187.635 56.9931 187.77 57.2382 187.685 57.4608C187.638 57.5898 187.527 57.6803 187.396 57.706C185.128 57.3033 183.254 56.8004 181.918 56.2287C180.337 55.7483 179.097 54.8422 178.309 52.7962C177.584 50.9065 177.054 48.957 176.626 46.9869C174.97 39.3847 176.005 32.4839 180.14 25.1028C180.666 24.1618 181.587 23.0547 182.389 22.17C182.879 21.6294 183.739 22.0507 183.656 22.7768C183.55 23.711 183.414 24.6539 183.276 25.6014C182.821 28.7492 182.357 31.9489 182.98 35.0584C184.366 28.9134 186.574 25.1471 190.124 19.0961L190.543 18.38C190.877 17.8104 191.725 17.899 191.932 18.5262C192.195 19.32 192.456 20.1192 192.717 20.9218C195.334 28.9392 198.059 37.2925 203.451 43.8093C205.399 38.7305 207.919 30.3845 209.189 23.7528C209.352 23.1323 210.156 22.9731 210.533 23.4911C214.003 28.2601 215.739 31.7074 217.477 37.0564C219.306 30.9787 219.104 26.989 218.229 20.7091C218.13 20.0061 218.919 19.5838 219.395 20.1105C224.414 25.6888 226.614 36.4565 224.694 46.9869C224.326 49.0008 223.877 50.8399 223.125 52.7961Z" fill="#840BA2"/>
</svg>
