<svg width="300" height="120" viewBox="0 0 300 120" fill="none" xmlns="http://www.w3.org/2000/svg">
<path d="M46 38.0653C63.0352 37.9638 80.063 38.0724 97.0982 38C100.81 38.0073 105.152 38.087 108.312 40.2835C109.922 41.3854 110.908 42.9439 110.705 44.9447C110.625 47.4964 108.733 48.9535 107.174 50.7151C102.115 47.6994 96.4603 46.5251 90.8641 48.8592C84.3763 51.5414 81.1722 58.9719 82.274 65.6702C82.8104 68.4104 84.6154 70.5271 87.2105 71.542C90.2262 72.7889 93.0243 72.2452 96.1124 71.7378C96.5545 69.4688 96.975 67.1997 97.4099 64.9235C94.822 64.9018 92.2341 64.8945 89.6463 64.8583C89.7187 62.2703 89.2403 59.2257 91.1685 57.1523C92.5893 55.4125 95.0902 55.7387 97.0982 55.6301C100.469 55.688 103.891 55.4705 107.247 55.8113C108.863 55.9562 109.878 56.9929 109.871 58.6457C109.632 62.7633 108.472 66.8372 107.877 70.9259C107.247 73.7748 107.218 76.7687 104.47 78.4432C100.266 81.0964 94.735 81.9446 89.8492 81.9736C83.9703 81.9953 77.4027 80.5817 73.3432 76.0003C70.4944 72.8686 69.726 69.0845 69.233 65.0105C66.1957 64.8075 63.2599 64.851 60.4908 63.4374C58.374 62.466 57.3229 60.6247 55.9601 58.8487C60.7083 58.682 65.4708 58.769 70.2189 58.7472C70.4871 57.7757 70.7553 56.7972 71.0163 55.8185C66.1305 55.601 60.5851 56.5144 55.8949 55.0138C53.075 54.1512 51.6397 52.0924 50.0739 49.7654C58.1058 49.606 66.1377 49.7219 74.1696 49.7002C74.9888 48.7215 75.8079 47.7429 76.6343 46.7642C70.6394 46.7642 64.6444 46.7715 58.6495 46.786C55.4817 46.7353 52.3429 46.554 49.7912 44.4445C47.5948 42.7699 47.0004 40.4937 46 38.0653Z" fill="url(#paint0_linear_8026_4214)"/>
<path d="M128.995 46.4517C131.003 46.5169 133.547 46.8431 134.809 48.6265C136.07 50.7867 134.707 53.2369 134.011 55.3537C130.068 55.5639 126.356 56.1439 122.551 57.195C121.275 65.1474 119.948 73.107 118.593 81.052C115.823 81.2043 112.924 81.516 110.177 81.1246C108.814 80.8129 107.625 79.8704 107.886 78.3264C108.886 71.0336 111.539 63.3422 111.22 55.8104C111.191 52.7367 113.547 50.7069 116.07 49.4238C120.006 47.5246 124.624 46.4227 128.995 46.4517Z" fill="url(#paint1_linear_8026_4214)"/>
<path d="M197.134 46.9099C198.7 46.9606 200.593 47.0911 201.585 48.4974C202.542 49.9183 202.68 52.0061 202.883 53.6588C203.412 59.8061 203.854 65.9534 204.579 72.0862C208.052 64.1266 211.277 56.0366 214.184 47.8595C217.055 47.2216 220.084 46.3444 222.956 47.4318C224.028 47.8522 224.746 48.8672 224.797 50.0197C224.854 52.1582 223.883 54.4345 223.05 56.3701C219.839 63.5467 216.004 70.4624 212.016 77.226C211.089 78.6178 210.161 80.4228 208.472 80.9521C205.848 81.8364 202.891 81.9162 200.165 81.5973C198.338 81.2927 196.598 80.7491 195.931 78.828C194.872 75.9356 193.996 72.7314 193.88 69.6506C194.417 65.6563 195.786 62.1404 195.068 57.9866C194.713 54.362 192.821 51.6653 190.842 48.7511C192.945 47.8668 194.771 46.8373 197.134 46.9099Z" fill="url(#paint2_linear_8026_4214)"/>
<path fill-rule="evenodd" clip-rule="evenodd" d="M252.032 52.4327C249.415 48.0324 244.088 46.2129 239.179 46.3796C234.489 46.3579 230.292 47.9962 226.522 50.7002C225.547 54.8257 223.733 58.492 221.907 62.1845C221.047 63.9228 220.184 65.667 219.404 67.4675C218.433 71.6938 221.079 76.7755 224.631 79.1242C229.219 82.2631 235.707 82.3791 241.013 81.5745C244.24 80.9727 248.357 79.6825 249.415 76.1593C250.065 74.4767 249.414 73.2293 248.704 71.8701C248.511 71.5017 248.315 71.1253 248.139 70.7296C243.724 72.4985 238.687 74.115 233.952 72.629C232.31 72.1546 231.461 71.0064 230.545 69.766C230.312 69.4521 230.075 69.1323 229.822 68.8158C233.217 68.2366 236.629 67.7545 240.04 67.2725C242.222 66.9641 244.404 66.6559 246.58 66.3221L246.617 66.315C249.064 65.8389 251.56 65.3529 252.785 62.9078C254.193 59.7399 253.809 55.3976 252.032 52.4327ZM242.542 57.9152C241.988 56.8809 241.379 55.7436 240.397 55.3327C237.918 54.4192 234.845 54.9629 232.938 56.8405C232.124 57.7214 231.506 58.8322 230.906 59.9095C230.716 60.2506 230.528 60.5885 230.336 60.9146C233.618 60.5189 236.892 59.9777 240.17 59.4356C241.156 59.2725 242.143 59.1094 243.13 58.9501C242.932 58.6439 242.74 58.2861 242.542 57.9152Z" fill="url(#paint3_linear_8026_4214)"/>
<path fill-rule="evenodd" clip-rule="evenodd" d="M160.016 60.9083C160.074 56.6458 158.762 52.5065 155.377 49.7517C150.078 45.424 142.648 45.8662 136.457 47.722C136.481 48.152 136.527 48.5992 136.574 49.0541C136.736 50.6236 136.907 52.2844 136.232 53.6446C135.85 54.5789 135.391 55.4916 134.937 56.3966C134.866 56.5378 134.795 56.6789 134.724 56.8197C131.607 56.9792 128.548 57.2981 125.475 57.8347C123.097 64.0761 121.923 71.6805 126.424 77.2769C129.346 80.6188 134.101 81.9889 138.414 81.9817C144.221 82.0759 150.085 80.1983 154.166 75.9359C157.892 71.956 159.893 66.3161 160.016 60.9083ZM147.02 57.3996C145.7 55.3481 142.815 55.1451 140.713 55.9498C138.227 56.8994 136.799 59.9223 136.095 62.3146C135.334 64.9388 134.863 68.4619 136.414 70.8831C138.089 73.5001 142.373 73.3405 144.432 71.2891C146.367 69.3897 147.346 66.4611 147.803 63.8441C148.172 61.7853 148.172 59.2192 147.02 57.3996Z" fill="url(#paint4_linear_8026_4214)"/>
<path fill-rule="evenodd" clip-rule="evenodd" d="M193.237 56.2029C192.062 51.4836 188.177 48.12 183.538 46.9673C177.658 45.59 170.967 46.5469 165.974 50.0555C163.985 51.3979 162.518 53.1298 160.987 54.938C160.955 54.9753 160.923 55.0127 160.891 55.0502C161.276 57.7541 161.63 60.3711 161.326 63.1186C160.957 66.9026 159.536 70.201 157.912 73.5864C159.746 77.1095 162.204 79.8062 166.089 81.0313C173.925 83.4525 183.9 81.3503 189.025 74.594C193.005 69.4906 194.592 62.5242 193.237 56.2029ZM180.595 57.167C179.08 55.1953 176.268 55.1155 174.158 56.0724C171.772 57.1743 170.417 60.1392 169.779 62.5387C169.149 65.0325 168.757 68.3163 170.019 70.6651C171.541 73.4415 175.811 73.4125 177.979 71.4624C180.095 69.5777 181.146 66.3953 181.588 63.6697C181.849 61.5674 181.965 58.9359 180.595 57.167Z" fill="url(#paint5_linear_8026_4214)"/>
<defs>
<linearGradient id="paint0_linear_8026_4214" x1="78.3654" y1="38" x2="78.3654" y2="81.9739" gradientUnits="userSpaceOnUse">
<stop stop-color="#FFEC01"/>
<stop offset="1" stop-color="#F8A501"/>
</linearGradient>
<linearGradient id="paint1_linear_8026_4214" x1="121.587" y1="46.4512" x2="121.587" y2="81.3142" gradientUnits="userSpaceOnUse">
<stop stop-color="#FFEC01"/>
<stop offset="1" stop-color="#F8A501"/>
</linearGradient>
<linearGradient id="paint2_linear_8026_4214" x1="207.821" y1="46.9062" x2="207.821" y2="81.7684" gradientUnits="userSpaceOnUse">
<stop stop-color="#FFEC01"/>
<stop offset="1" stop-color="#F8A501"/>
</linearGradient>
<linearGradient id="paint3_linear_8026_4214" x1="236.421" y1="46.3692" x2="236.421" y2="81.9953" gradientUnits="userSpaceOnUse">
<stop stop-color="#FFEC01"/>
<stop offset="1" stop-color="#F8A501"/>
</linearGradient>
<linearGradient id="paint4_linear_8026_4214" x1="141.694" y1="46.3789" x2="141.694" y2="81.985" gradientUnits="userSpaceOnUse">
<stop stop-color="#FFEC01"/>
<stop offset="1" stop-color="#F8A501"/>
</linearGradient>
<linearGradient id="paint5_linear_8026_4214" x1="175.812" y1="46.3633" x2="175.812" y2="82.0008" gradientUnits="userSpaceOnUse">
<stop stop-color="#FFEC01"/>
<stop offset="1" stop-color="#F8A501"/>
</linearGradient>
</defs>
</svg>
