<svg width="300" height="120" viewBox="0 0 300 120" fill="none" xmlns="http://www.w3.org/2000/svg">
<path d="M68.06 41.5236C67.5166 41.8473 66.7535 42.0092 65.7939 42.0092C64.9729 42.0092 64.3254 41.778 63.8399 41.327C63.3543 40.8645 63.1114 40.1245 63.1114 39.0724C62.2442 40.113 61.2384 40.8645 60.0822 41.327C58.9259 41.7895 57.6888 42.0092 56.3477 42.0092C55.4805 42.0092 54.6596 41.9051 53.8733 41.7085C53.0871 41.512 52.4165 41.1998 51.8499 40.7836C51.2834 40.3673 50.8325 39.8123 50.4972 39.1302C50.1619 38.448 50 37.6272 50 36.6559C50 35.5691 50.185 34.6788 50.555 33.9735C50.925 33.2798 51.4221 32.7132 52.0234 32.2854C52.6362 31.8576 53.3299 31.5224 54.1046 31.3026C54.8908 31.083 55.6886 30.898 56.4979 30.7477C57.365 30.5742 58.186 30.447 58.9722 30.3546C59.7584 30.262 60.4406 30.1465 61.0302 29.9846C61.6199 29.8227 62.094 29.5914 62.4409 29.2793C62.7878 28.9671 62.9612 28.5161 62.9612 27.9265C62.9612 27.2328 62.834 26.6778 62.568 26.25C62.3021 25.8338 61.9784 25.51 61.5622 25.2788C61.1574 25.0591 60.695 24.9089 60.1863 24.8279C59.6775 24.7585 59.1803 24.7122 58.6832 24.7122C57.3419 24.7122 56.232 24.9666 55.3417 25.4754C54.4515 25.9841 53.9658 26.9437 53.8964 28.3543H50.74C50.7862 27.1634 51.0406 26.1575 51.4799 25.3482C51.9309 24.5272 52.5205 23.8683 53.2605 23.3595C54.0005 22.8507 54.8561 22.4808 55.8041 22.2611C56.7638 22.0414 57.7813 21.9258 58.8681 21.9258C59.7353 21.9258 60.6025 21.9836 61.4465 22.1108C62.3021 22.238 63.0767 22.4923 63.7705 22.8739C64.4642 23.2554 65.0191 23.7988 65.447 24.4926C65.8632 25.1863 66.083 26.0881 66.083 27.2097V37.0953C66.083 37.8353 66.1292 38.3787 66.2101 38.7255C66.2911 39.0724 66.5916 39.2458 67.0888 39.2458C67.3663 39.2458 67.6785 39.1881 68.06 39.0608V41.5236ZM62.938 31.6726C62.5449 31.9732 62.0246 32.1813 61.3771 32.3201C60.7297 32.4589 60.0591 32.563 59.3538 32.6554C58.6485 32.7364 57.9317 32.8404 57.2148 32.9561C56.4979 33.0716 55.8505 33.245 55.2838 33.4995C54.7173 33.7422 54.2432 34.1006 53.8848 34.5632C53.5264 35.0257 53.3414 35.65 53.3414 36.4363C53.3414 36.9566 53.4455 37.3958 53.6536 37.7543C53.8617 38.1127 54.1393 38.4018 54.4746 38.633C54.8099 38.8527 55.203 39.0146 55.6423 39.1186C56.0932 39.2227 56.5558 39.2689 57.0529 39.2689C58.0935 39.2689 58.9838 39.1302 59.7353 38.8412C60.4752 38.5521 61.0881 38.1937 61.5622 37.7658C62.0361 37.3265 62.383 36.864 62.6028 36.3553C62.8224 35.8465 62.938 35.3726 62.938 34.9216V31.6726Z" fill="#FF0800"/>
<path d="M71.1133 15.0469V41.5935H74.2697V39.0267H74.339C74.6859 39.5932 75.1138 40.0789 75.6225 40.4604C76.1313 40.8419 76.6747 41.1426 77.2412 41.3738C77.8077 41.5935 78.3859 41.7554 78.9755 41.8594C79.5536 41.9635 80.0854 42.0097 80.5595 42.0097C82.0163 42.0097 83.2997 41.7554 84.4097 41.2234C85.5081 40.7032 86.4331 39.9863 87.1615 39.0845C87.8899 38.1827 88.4333 37.119 88.7917 35.9049C89.1502 34.6909 89.3352 33.3959 89.3352 32.0432C89.3352 30.6789 89.1502 29.3954 88.7801 28.1814C88.4102 26.9674 87.8552 25.8921 87.1268 24.9672C86.3984 24.0422 85.4734 23.3022 84.375 22.7588C83.2766 22.2154 81.9816 21.9379 80.4902 21.9379C79.1489 21.9379 77.9233 22.1807 76.8134 22.6663C75.7034 23.1519 74.8824 23.9266 74.3622 24.9903H74.2928V15.07H71.1133V15.0469ZM85.9821 31.8235C85.9821 32.7601 85.8781 33.685 85.6816 34.5753C85.4849 35.4655 85.1613 36.2634 84.7103 36.9571C84.2593 37.6508 83.6697 38.2058 82.9413 38.6336C82.2129 39.0498 81.2994 39.2695 80.2126 39.2695C79.1258 39.2695 78.1892 39.0614 77.4262 38.6568C76.6631 38.252 76.0271 37.7086 75.5531 37.038C75.0674 36.3675 74.7207 35.5927 74.4894 34.714C74.2697 33.8353 74.1541 32.9219 74.1541 31.9853C74.1541 31.0951 74.2582 30.2164 74.4663 29.3492C74.6744 28.482 75.0212 27.7074 75.4837 27.0253C75.9578 26.3431 76.559 25.7881 77.3105 25.3718C78.0506 24.9556 78.9639 24.736 80.0276 24.736C81.0451 24.736 81.9354 24.9325 82.6869 25.3256C83.4385 25.7187 84.0628 26.2505 84.5484 26.9211C85.0341 27.5918 85.3925 28.3548 85.6237 29.2104C85.8666 30.0545 85.9821 30.9216 85.9821 31.8235Z" fill="white"/>
<path d="M94.9728 35.5327H91.8164C91.8626 36.7236 92.1171 37.7296 92.5563 38.5621C93.0073 39.3946 93.5969 40.0651 94.337 40.5738C95.077 41.0825 95.9326 41.4525 96.9037 41.6723C97.875 41.8919 98.8809 42.0076 99.9562 42.0076C100.927 42.0076 101.899 41.915 102.87 41.73C103.853 41.5451 104.731 41.2213 105.506 40.7472C106.292 40.2733 106.917 39.6604 107.402 38.8858C107.888 38.1226 108.131 37.1515 108.131 35.9837C108.131 35.0703 107.946 34.2956 107.587 33.6828C107.229 33.0584 106.755 32.5497 106.177 32.1451C105.598 31.7404 104.928 31.4051 104.165 31.1622C103.413 30.9195 102.639 30.6998 101.841 30.5264C101.101 30.353 100.349 30.1911 99.6093 30.0292C98.8693 29.8673 98.1987 29.6708 97.5974 29.4395C97.0078 29.2083 96.5106 28.9076 96.1291 28.5492C95.7476 28.1908 95.551 27.7399 95.551 27.1964C95.551 26.6994 95.6781 26.2946 95.921 25.9941C96.1638 25.6819 96.4875 25.439 96.8921 25.254C97.2853 25.069 97.7246 24.9418 98.2103 24.8609C98.6959 24.7916 99.1699 24.7453 99.644 24.7453C100.164 24.7453 100.673 24.8032 101.182 24.9071C101.69 25.0228 102.153 25.1962 102.581 25.4505C102.997 25.6934 103.344 26.0287 103.621 26.4334C103.899 26.838 104.049 27.3583 104.107 27.9711H107.263C107.194 26.8033 106.94 25.8322 106.523 25.0575C106.107 24.2713 105.541 23.6585 104.835 23.196C104.13 22.7335 103.321 22.4098 102.396 22.2248C101.482 22.0398 100.476 21.9473 99.3896 21.9473C98.5456 21.9473 97.7015 22.0513 96.8459 22.2594C95.9903 22.4676 95.2273 22.7913 94.5451 23.2307C93.8629 23.67 93.308 24.225 92.8685 24.9187C92.4293 25.6124 92.221 26.4449 92.221 27.4046C92.221 28.6418 92.5332 29.6129 93.1461 30.3066C93.7704 31.0004 94.5451 31.5438 95.47 31.9254C96.395 32.3069 97.4124 32.6076 98.4994 32.8157C99.5862 33.0238 100.604 33.2665 101.529 33.521C102.454 33.7868 103.228 34.1221 103.853 34.5385C104.477 34.9546 104.778 35.579 104.778 36.3999C104.778 36.9896 104.627 37.4868 104.327 37.8683C104.026 38.2499 103.656 38.5389 103.194 38.747C102.731 38.9436 102.234 39.0824 101.69 39.1517C101.147 39.2211 100.627 39.2673 100.13 39.2673C99.4821 39.2673 98.8578 39.2096 98.2565 39.0823C97.6438 38.9551 97.1004 38.7586 96.6263 38.4695C96.1407 38.1805 95.7476 37.7989 95.4585 37.3134C95.1578 36.8162 94.996 36.2264 94.9728 35.5327Z" fill="white"/>
<path d="M113.939 32.0079C113.939 30.8402 114.089 29.8112 114.402 28.8977C114.714 27.9959 115.142 27.2328 115.685 26.6084C116.228 25.9841 116.864 25.5216 117.604 25.1978C118.333 24.8741 119.107 24.7122 119.928 24.7122C120.749 24.7122 121.524 24.8741 122.252 25.1978C122.981 25.5216 123.617 25.9957 124.172 26.6084C124.715 27.2328 125.143 27.9959 125.455 28.8977C125.767 29.7996 125.917 30.8402 125.917 32.0079C125.917 33.1757 125.767 34.2047 125.455 35.1066C125.143 36.0084 124.715 36.7716 124.172 37.3727C123.628 37.9856 122.992 38.448 122.252 38.7717C121.524 39.0955 120.749 39.2574 119.928 39.2574C119.107 39.2574 118.333 39.0955 117.604 38.7717C116.876 38.448 116.24 37.9856 115.685 37.3727C115.142 36.76 114.714 36.0084 114.402 35.1066C114.101 34.2047 113.939 33.1642 113.939 32.0079ZM110.598 32.0079C110.598 33.4185 110.794 34.7366 111.187 35.9506C111.58 37.1646 112.182 38.2283 112.968 39.1302C113.766 40.0321 114.737 40.7374 115.905 41.2461C117.072 41.7548 118.414 42.0092 119.917 42.0092C121.455 42.0092 122.796 41.7548 123.952 41.2461C125.108 40.7374 126.079 40.0321 126.866 39.1302C127.663 38.2283 128.253 37.1646 128.646 35.9506C129.039 34.7366 129.236 33.4185 129.236 32.0079C129.236 30.5973 129.039 29.2793 128.646 28.0537C128.253 26.8282 127.652 25.7643 126.866 24.851C126.068 23.9491 125.097 23.2323 123.952 22.712C122.796 22.1917 121.455 21.9258 119.917 21.9258C118.402 21.9258 117.061 22.1801 115.905 22.712C114.737 23.2323 113.766 23.9491 112.968 24.851C112.17 25.7528 111.58 26.8165 111.187 28.0537C110.794 29.2678 110.598 30.5858 110.598 32.0079Z" fill="white"/>
<path d="M133.168 15.0469V41.5935H136.324V15.0469H133.168Z" fill="white"/>
<path d="M157.132 41.5952V22.3789H153.975V33.2358C153.975 34.1029 153.86 34.9006 153.617 35.6292C153.386 36.3575 153.027 36.9934 152.553 37.5485C152.079 38.0919 151.49 38.5196 150.784 38.8087C150.079 39.1093 149.247 39.2595 148.275 39.2595C147.061 39.2595 146.102 38.9127 145.408 38.219C144.714 37.5252 144.367 36.5887 144.367 35.3978V22.3789H141.211V35.0163C141.211 36.0569 141.315 37.0049 141.523 37.8605C141.731 38.7161 142.101 39.4562 142.621 40.0689C143.142 40.6933 143.824 41.1673 144.668 41.5026C145.512 41.8379 146.564 41.9998 147.824 41.9998C149.235 41.9998 150.461 41.7224 151.501 41.1673C152.542 40.6123 153.397 39.7336 154.068 38.5427H154.137V41.5952H157.132Z" fill="white"/>
<path d="M166.278 22.3771V16.6191H163.122V22.3771H159.85V25.1636H163.122V37.3962C163.122 38.2865 163.202 39.0035 163.376 39.5584C163.549 40.1018 163.815 40.5296 164.174 40.8186C164.533 41.1193 165.006 41.3158 165.585 41.4315C166.163 41.547 166.868 41.5933 167.689 41.5933H170.106V38.8068H168.66C168.163 38.8068 167.758 38.7837 167.458 38.749C167.145 38.7144 166.902 38.6334 166.729 38.5063C166.555 38.379 166.44 38.2056 166.371 37.986C166.313 37.7662 166.278 37.4657 166.278 37.0957V25.1636H170.106V22.3771H166.278Z" fill="white"/>
<path d="M186.951 30.1462H175.909C175.955 29.4063 176.117 28.701 176.394 28.042C176.671 27.3829 177.041 26.8048 177.504 26.3076C177.977 25.8104 178.533 25.4174 179.192 25.1399C179.852 24.8509 180.591 24.7121 181.4 24.7121C182.198 24.7121 182.915 24.8509 183.574 25.1399C184.234 25.4289 184.799 25.8104 185.286 26.2961C185.771 26.7817 186.153 27.3598 186.441 28.0304C186.73 28.701 186.904 29.4063 186.951 30.1462ZM190.002 35.4995H186.881C186.603 36.7598 186.048 37.7079 185.193 38.3207C184.337 38.9451 183.239 39.2457 181.897 39.2457C180.857 39.2457 179.955 39.0723 179.18 38.7254C178.418 38.3786 177.782 37.916 177.284 37.3264C176.787 36.7482 176.429 36.0777 176.209 35.3145C175.989 34.563 175.885 33.7537 175.909 32.9212H190.291C190.338 31.7535 190.234 30.5279 189.979 29.2444C189.725 27.9611 189.25 26.7702 188.569 25.6718C187.887 24.5849 186.985 23.683 185.851 22.9778C184.719 22.2725 183.308 21.9141 181.597 21.9141C180.278 21.9141 179.077 22.1569 177.977 22.654C176.879 23.1512 175.92 23.8449 175.111 24.7352C174.301 25.6255 173.677 26.6776 173.238 27.8916C172.787 29.1057 172.566 30.4469 172.566 31.9038C172.613 33.3606 172.833 34.7134 173.215 35.9505C173.595 37.1876 174.174 38.2513 174.949 39.1532C175.712 40.0434 176.66 40.7372 177.792 41.2343C178.926 41.7315 180.255 41.9743 181.794 41.9743C183.978 41.9743 185.782 41.4309 187.216 40.3441C188.65 39.2804 189.575 37.6502 190.002 35.4995Z" fill="white"/>
<path d="M146.586 47.6391V43.7773H143.43V47.6391H146.586ZM143.43 51.0961V70.324H146.586V51.0961H143.43Z" fill="white"/>
<path d="M160.166 70.3254L167.196 51.0977H163.877L158.64 67.1227H158.57L153.171 51.0977H149.645L156.778 70.3254H160.166Z" fill="white"/>
<path d="M183.437 58.865H172.397C172.443 58.1251 172.604 57.4198 172.882 56.7607C173.159 56.1016 173.529 55.5236 173.991 55.0264C174.465 54.5292 175.032 54.1361 175.679 53.8586C176.338 53.5696 177.079 53.4308 177.888 53.4308C178.686 53.4308 179.403 53.5696 180.061 53.8586C180.72 54.1477 181.287 54.5292 181.772 55.0148C182.259 55.5005 182.639 56.0785 182.929 56.7491C183.218 57.4198 183.38 58.1251 183.437 58.865ZM186.479 64.2183H183.357C183.08 65.4785 182.524 66.4267 181.669 67.0394C180.813 67.6638 179.714 67.9645 178.373 67.9645C177.333 67.9645 176.431 67.791 175.656 67.4442C174.893 67.0973 174.257 66.6348 173.76 66.0452C173.264 65.467 172.905 64.7963 172.685 64.0333C172.466 63.2818 172.361 62.4724 172.384 61.6399H186.767C186.814 60.4721 186.71 59.2465 186.456 57.9632C186.201 56.6798 185.727 55.4889 185.045 54.3904C184.363 53.3036 183.46 52.4018 182.328 51.6965C181.195 50.9912 179.784 50.6328 178.073 50.6328C176.755 50.6328 175.553 50.8756 174.442 51.3728C173.344 51.8699 172.384 52.5637 171.576 53.4539C170.766 54.3442 170.142 55.3964 169.701 56.6104C169.251 57.8244 169.031 59.1656 169.031 60.6224C169.077 62.0793 169.298 63.432 169.678 64.6693C170.06 65.9064 170.639 66.9701 171.413 67.8719C172.176 68.7622 173.124 69.4559 174.257 69.9531C175.391 70.4503 176.72 70.693 178.257 70.693C180.443 70.693 182.247 70.1496 183.681 69.0628C185.138 67.9991 186.062 66.3803 186.479 64.2183Z" fill="white"/>
<path d="M150.742 95.5643V77.9784H147.77V80.7302H147.736C147.169 79.6665 146.371 78.8686 145.354 78.3368C144.336 77.8049 143.226 77.5391 142.012 77.5391C140.347 77.5391 138.948 77.8513 137.815 78.4871C136.671 79.1231 135.757 79.9208 135.064 80.9036C134.37 81.8864 133.873 82.9732 133.572 84.1757C133.271 85.3782 133.121 86.546 133.121 87.6906C133.121 89.0087 133.306 90.2458 133.664 91.4252C134.023 92.6044 134.566 93.6335 135.283 94.5122C136 95.3909 136.89 96.0963 137.954 96.6166C139.018 97.1369 140.266 97.4027 141.712 97.4027C142.949 97.4027 144.117 97.1252 145.227 96.5702C146.325 96.0153 147.157 95.1366 147.701 93.9457H147.77V95.2059C147.77 96.2696 147.666 97.2524 147.458 98.1427C147.25 99.033 146.903 99.7961 146.441 100.432C145.966 101.068 145.377 101.565 144.66 101.924C143.943 102.282 143.064 102.467 142.024 102.467C141.504 102.467 140.96 102.409 140.394 102.305C139.827 102.19 139.295 102.016 138.81 101.762C138.324 101.507 137.919 101.195 137.584 100.791C137.249 100.397 137.075 99.9117 137.041 99.3452H133.884C133.93 100.386 134.208 101.264 134.705 101.981C135.202 102.698 135.827 103.288 136.578 103.727C137.33 104.178 138.174 104.49 139.11 104.698C140.035 104.895 140.949 104.999 141.839 104.999C144.914 104.999 147.169 104.213 148.603 102.652C150.025 101.068 150.742 98.7093 150.742 95.5643ZM141.897 94.6394C140.856 94.6394 139.989 94.4197 139.295 93.9919C138.601 93.5526 138.047 92.9861 137.619 92.2808C137.202 91.5755 136.902 90.7892 136.728 89.9221C136.555 89.0549 136.474 88.1877 136.474 87.3206C136.474 86.4072 136.578 85.5285 136.786 84.6844C136.994 83.8404 137.33 83.1004 137.792 82.4529C138.255 81.8054 138.844 81.2967 139.561 80.9151C140.278 80.5336 141.145 80.3371 142.163 80.3371C143.157 80.3371 144.001 80.5336 144.695 80.9267C145.388 81.3198 145.955 81.8518 146.383 82.5107C146.822 83.1698 147.134 83.9097 147.331 84.7191C147.527 85.54 147.631 86.3725 147.631 87.2049C147.631 88.0953 147.527 88.9856 147.319 89.8758C147.111 90.7661 146.776 91.5638 146.337 92.2692C145.886 92.9745 145.308 93.541 144.567 93.9803C143.816 94.4197 142.937 94.6394 141.897 94.6394Z" fill="#FF0010"/>
<path d="M172.521 97.1252C171.977 97.4489 171.215 97.6108 170.255 97.6108C169.434 97.6108 168.786 97.3795 168.301 96.9286C167.815 96.4661 167.572 95.7261 167.572 94.674C166.705 95.7146 165.699 96.4661 164.543 96.9286C163.387 97.391 162.15 97.6108 160.809 97.6108C159.941 97.6108 159.12 97.5067 158.334 97.3102C157.548 97.1136 156.877 96.8014 156.311 96.3852C155.744 95.9689 155.293 95.4139 154.958 94.7318C154.623 94.0496 154.461 93.2287 154.461 92.2575C154.461 91.1707 154.646 90.2803 155.016 89.575C155.386 88.8813 155.871 88.3148 156.484 87.887C157.097 87.4476 157.791 87.1239 158.566 86.9042C159.352 86.6846 160.15 86.4996 160.959 86.3493C161.826 86.1758 162.647 86.0486 163.433 85.9562C164.219 85.8752 164.901 85.748 165.491 85.5861C166.081 85.4243 166.555 85.193 166.902 84.8808C167.249 84.5687 167.423 84.1178 167.423 83.5281C167.423 82.8344 167.295 82.2793 167.029 81.8516C166.763 81.4354 166.44 81.1116 166.023 80.8803C165.619 80.6607 165.156 80.5104 164.647 80.4295C164.139 80.36 163.641 80.3138 163.144 80.3138C161.803 80.3138 160.693 80.5682 159.803 81.077C158.912 81.5856 158.427 82.5453 158.357 83.9559H155.201C155.247 82.765 155.502 81.759 155.941 80.9498C156.392 80.1288 156.982 79.4698 157.721 78.961C158.461 78.4523 159.317 78.0823 160.265 77.8627C161.225 77.643 162.242 77.5273 163.329 77.5273C164.196 77.5273 165.063 77.5851 165.907 77.7123C166.763 77.8395 167.538 78.0939 168.231 78.4755C168.925 78.857 169.48 79.4004 169.909 80.0942C170.324 80.7879 170.543 81.6897 170.543 82.8112V92.6968C170.543 93.4369 170.59 93.9803 170.671 94.3271C170.764 94.674 171.053 94.8474 171.549 94.8474C171.828 94.8474 172.139 94.7895 172.521 94.6625V97.1252ZM167.387 87.2742C166.994 87.5748 166.474 87.7829 165.827 87.9217C165.179 88.0605 164.509 88.1645 163.803 88.257C163.098 88.3495 162.381 88.442 161.664 88.5577C160.947 88.6732 160.3 88.8466 159.733 89.1011C159.167 89.3438 158.704 89.7022 158.334 90.1648C157.976 90.6272 157.791 91.2516 157.791 92.0379C157.791 92.5582 157.895 92.9975 158.103 93.3559C158.311 93.7143 158.589 94.0034 158.924 94.2346C159.259 94.4542 159.652 94.6161 160.092 94.7202C160.543 94.8243 161.005 94.8705 161.502 94.8705C162.543 94.8705 163.433 94.7318 164.185 94.4427C164.925 94.1537 165.537 93.7953 166.012 93.3674C166.486 92.9397 166.833 92.4656 167.052 91.9569C167.272 91.4481 167.387 90.974 167.387 90.5232V87.2742Z" fill="white"/>
<path d="M175.461 77.9784V97.1946H178.618V85.2278C178.618 84.8579 178.711 84.3953 178.896 83.8288C179.08 83.2739 179.381 82.7305 179.786 82.2102C180.19 81.6899 180.722 81.2389 181.381 80.8689C182.041 80.499 182.826 80.314 183.74 80.314C184.456 80.314 185.046 80.418 185.509 80.6262C185.971 80.8343 186.33 81.1348 186.608 81.5164C186.885 81.898 187.07 82.3488 187.185 82.8691C187.301 83.3894 187.347 83.956 187.347 84.5803V97.1831H190.503V85.2278C190.503 83.7363 190.954 82.5455 191.845 81.6551C192.735 80.7648 193.961 80.314 195.521 80.314C196.285 80.314 196.921 80.4295 197.394 80.6493C197.881 80.8689 198.25 81.1811 198.528 81.5627C198.805 81.9442 198.99 82.3952 199.082 82.9155C199.187 83.4357 199.233 83.9907 199.233 84.5919V97.1946H202.389V83.112C202.389 82.1176 202.24 81.2736 201.927 80.5683C201.614 79.863 201.188 79.2849 200.621 78.834C200.065 78.3831 199.395 78.0594 198.609 77.8513C197.822 77.643 196.955 77.5391 195.985 77.5391C194.723 77.5391 193.556 77.828 192.504 78.3947C191.452 78.9612 190.596 79.7706 189.961 80.8112C189.567 79.6202 188.884 78.7762 187.914 78.279C186.942 77.7818 185.867 77.5391 184.676 77.5391C181.97 77.5391 179.901 78.6259 178.467 80.8112H178.398V77.9899L175.461 77.9784Z" fill="white"/>
<path d="M210.517 74.522V70.6602H207.361V74.522H210.517ZM207.361 77.979V97.1953H210.517V77.979H207.361Z" fill="white"/>
<path d="M215.43 77.9785V97.1947H218.586V86.3379C218.586 85.4707 218.701 84.6729 218.945 83.9445C219.176 83.2161 219.533 82.5801 220.008 82.0252C220.482 81.4818 221.072 81.054 221.777 80.7649C222.483 80.4643 223.314 80.314 224.286 80.314C225.5 80.314 226.46 80.6608 227.153 81.3546C227.847 82.0483 228.194 82.9849 228.194 84.1758V97.1831H231.35V84.5573C231.35 83.5168 231.247 82.5686 231.039 81.713C230.829 80.8574 230.46 80.1174 229.939 79.5047C229.42 78.8803 228.737 78.4062 227.893 78.0594C227.049 77.7125 225.997 77.5391 224.736 77.5391C221.893 77.5391 219.8 78.7069 218.493 81.0308H218.424V77.9785H215.43Z" fill="white"/>
<path d="M252.675 95.5643V77.9784H249.704V80.7302H249.67C249.103 79.6665 248.305 78.8686 247.287 78.3368C246.271 77.8049 245.16 77.5391 243.946 77.5391C242.281 77.5391 240.883 77.8513 239.749 78.4871C238.605 79.1231 237.691 79.9208 236.997 80.9036C236.304 81.8864 235.806 82.9732 235.506 84.1757C235.205 85.3782 235.055 86.546 235.055 87.6906C235.055 89.0087 235.24 90.2458 235.598 91.4252C235.957 92.6044 236.501 93.6335 237.217 94.5122C237.933 95.3909 238.824 96.0963 239.9 96.6166C240.963 97.1369 242.212 97.4027 243.657 97.4027C244.894 97.4027 246.063 97.1252 247.172 96.5702C248.27 96.0153 249.103 95.1366 249.647 93.9457H249.716V95.2059C249.716 96.2696 249.612 97.2524 249.404 98.1427C249.196 99.033 248.849 99.7961 248.386 100.432C247.912 101.068 247.323 101.565 246.605 101.924C245.889 102.282 245.009 102.467 243.97 102.467C243.449 102.467 242.905 102.409 242.339 102.305C241.773 102.19 241.24 102.016 240.755 101.762C240.27 101.519 239.865 101.195 239.529 100.791C239.195 100.397 239.021 99.9117 238.987 99.3452H235.829C235.876 100.386 236.153 101.264 236.65 101.981C237.148 102.698 237.772 103.288 238.523 103.727C239.275 104.178 240.119 104.49 241.055 104.698C241.981 104.895 242.894 104.999 243.785 104.999C246.86 104.999 249.114 104.213 250.548 102.652C251.959 101.068 252.675 98.7093 252.675 95.5643ZM243.831 94.6394C242.79 94.6394 241.923 94.4197 241.229 93.9919C240.535 93.5526 239.98 92.9861 239.552 92.2808C239.136 91.5755 238.836 90.7892 238.662 89.9221C238.489 89.0549 238.397 88.1877 238.397 87.3206C238.397 86.4072 238.5 85.5285 238.708 84.6844C238.916 83.8404 239.252 83.1004 239.714 82.4529C240.177 81.8054 240.767 81.2967 241.484 80.9151C242.2 80.5336 243.067 80.3371 244.085 80.3371C245.08 80.3371 245.924 80.5336 246.617 80.9267C247.31 81.3198 247.877 81.8518 248.305 82.5107C248.733 83.1698 249.057 83.9097 249.253 84.7191C249.45 85.54 249.554 86.3725 249.554 87.2049C249.554 88.0953 249.45 88.9856 249.242 89.8758C249.034 90.7661 248.698 91.5638 248.259 92.2692C247.808 92.9745 247.23 93.541 246.49 93.9803C245.761 94.4197 244.871 94.6394 243.831 94.6394Z" fill="white"/>
<path fill-rule="evenodd" clip-rule="evenodd" d="M136.371 15.0117H133.215V70.2902H136.371V15.0117Z" fill="#FF1D00"/>
<path fill-rule="evenodd" clip-rule="evenodd" d="M129.197 15V17.9483H136.366V15H129.197Z" fill="#FF1D00"/>
<path fill-rule="evenodd" clip-rule="evenodd" d="M133.234 67.3651V70.3134H140.403V67.3535L133.234 67.3651Z" fill="#FF1D00"/>
</svg>
