<svg width="300" height="120" viewBox="0 0 300 120" fill="none" xmlns="http://www.w3.org/2000/svg">
<path d="M265.399 59.5016C265.428 76.9794 252.747 91.3402 237.013 90.9988C221.97 90.6713 209.569 76.671 209.764 59.0652C209.959 41.6822 222.663 27.587 238.292 28.0092C253.218 28.4173 265.419 42.242 265.394 59.5016" fill="#BD322C"/>
<path d="M236.99 78.3443C234.514 78.2875 232.397 78.1024 230.333 77.3954C229.429 77.1177 228.585 76.6717 227.847 76.0813C227.46 75.7904 227.162 75.3973 226.987 74.9461C226.812 74.495 226.768 74.0041 226.858 73.5289C226.92 73.0931 227.131 72.6922 227.458 72.3951C229.038 70.9679 230.329 69.251 231.261 67.3377C231.588 66.633 231.847 65.8992 232.036 65.1458C232.103 64.9018 232.122 64.6475 232.093 64.3962C232.054 64.0342 232.144 63.67 232.345 63.3667C232.731 62.7027 233.303 62.1653 233.99 61.8201C235.387 61.1415 236.907 60.751 238.459 60.672C239.323 60.6448 240.172 60.8887 240.889 61.3694C241.174 61.5592 241.487 61.7033 241.816 61.7964C242.308 61.934 242.736 62.2398 243.025 62.6599C244.811 65.1072 246.861 67.352 249.139 69.354C249.345 69.5269 249.506 69.7462 249.609 69.9938C249.713 70.2413 249.755 70.51 249.733 70.7772C249.767 71.7436 249.564 72.7036 249.143 73.5741C248.722 74.4446 248.093 75.1995 247.313 75.773C246.053 76.7218 244.627 77.144 243.186 77.5473C241.157 78.0419 239.079 78.3092 236.99 78.3443Z" fill="white"/>
<path d="M231.821 60.0357C231.267 60.0239 230.725 59.8852 230.234 59.6301C229.743 59.3751 229.318 59.0106 228.991 58.565C228.549 57.9948 228.348 57.2745 228.43 56.5581C228.521 55.4195 228.654 54.2857 228.649 53.1424C228.651 52.9813 228.677 52.8213 228.726 52.6679C229.301 50.8366 229.895 49.0053 230.993 47.4492C231.797 46.3248 232.785 45.4899 234.118 45.357C234.588 45.307 235.064 45.3809 235.497 45.5715C235.929 45.7621 236.304 46.0628 236.585 46.4434C236.69 46.5896 236.748 46.7657 236.747 46.9463C236.941 49.048 237.146 51.1497 237.326 53.2514C237.446 54.1864 237.512 55.1272 237.527 56.0695C237.527 56.5766 237.465 57.0817 237.341 57.5735C237.282 57.8327 237.16 58.0734 236.986 58.2745C236.812 58.4756 236.591 58.6308 236.343 58.7263C235.215 59.1627 234.131 59.7416 232.934 59.9172C232.567 59.9944 232.194 60.0388 231.821 60.05" fill="white"/>
<path d="M247.369 52.3572C247.433 53.7937 247.115 55.2214 246.447 56.4955C245.778 57.7696 244.784 58.8444 243.565 59.6111C242.438 60.3654 241.131 60.0855 240.028 58.9943C239.242 58.2197 238.77 57.182 238.706 56.0813C238.454 53.9155 238.65 51.7213 239.281 49.6339C239.732 48.1715 240.676 46.9095 241.953 46.0615C242.435 45.7092 243.034 45.5511 243.627 45.6189C244.221 45.6865 244.768 45.975 245.158 46.4268C246.621 48.053 247.411 50.1723 247.369 52.3572Z" fill="white"/>
<path d="M245.928 61.308C245.932 60.548 246.214 59.8157 246.721 59.2489C247.843 57.8257 248.975 56.4024 250.088 54.9364C250.663 54.2099 251.143 53.4126 251.514 52.5642C251.618 52.3204 251.787 52.1091 252.001 51.9521C252.216 51.795 252.469 51.6982 252.733 51.6716C252.998 51.6449 253.264 51.6894 253.505 51.8006C253.747 51.9117 253.954 52.0853 254.106 52.3034C254.54 53.1173 254.771 54.0237 254.781 54.9459C254.89 56.1652 255.019 57.3798 255.099 58.599C255.105 59.0201 255.073 59.4408 255.004 59.8562C254.871 60.9711 254.871 62.1097 254.633 63.2104C254.462 64.0698 254.109 64.8828 253.598 65.5947C253.086 66.3066 252.427 66.901 251.666 67.3379C250.654 67.9499 249.617 67.613 248.975 66.5551C248.349 65.6352 247.671 64.7514 246.945 63.9079C246.326 63.1833 245.974 62.2692 245.947 61.3174" fill="white"/>
<path d="M224.084 56.248C224.363 56.2582 224.636 56.3416 224.873 56.4901C226.577 57.5082 228.068 58.8491 229.257 60.4374C229.743 61.0387 230.041 61.7702 230.113 62.5398C230.185 63.3095 230.027 64.0831 229.661 64.7641C228.907 66.4452 227.793 67.9414 226.399 69.1476C226.219 69.354 225.971 69.4877 225.699 69.5235C225.428 69.5594 225.152 69.4948 224.925 69.3422C223.366 68.4835 221.963 67.4446 221.079 65.6749C220.686 64.785 220.4 63.8518 220.228 62.8949C220.175 62.5887 220.234 62.2741 220.394 62.0076C221.121 60.5322 221.844 59.0567 222.576 57.586C222.871 57.0025 223.199 56.4521 223.832 56.2955C223.931 56.2718 224.026 56.2576 224.084 56.248Z" fill="white"/>
<path d="M224.469 51.4404C224.48 51.9739 224.354 52.5012 224.103 52.9728C224.009 53.2084 223.839 53.4054 223.619 53.532C223.398 53.6586 223.142 53.7074 222.89 53.6703C222.728 53.6603 222.572 53.5974 222.449 53.4912C222.325 53.3848 222.24 53.2411 222.206 53.0819C221.89 52.0458 221.89 50.9393 222.206 49.9032C222.463 49.1168 222.795 48.3571 223.2 47.6355C223.248 47.5501 223.295 47.4126 223.414 47.4314C223.532 47.4504 223.561 47.5644 223.561 47.6545C223.561 48.3282 223.951 48.8025 224.155 49.3718C224.345 50.0457 224.449 50.7407 224.465 51.4404" fill="white"/>
<path d="M251.798 43.2388C252.663 44.3063 253.39 45.3738 253.419 46.8397C253.446 47.1859 253.367 47.5321 253.193 47.8328C253.019 48.1335 252.758 48.3745 252.444 48.524C252.156 48.6037 251.85 48.5957 251.566 48.5011C251.283 48.4064 251.033 48.2294 250.852 47.9926C250.816 47.952 250.786 47.9091 250.756 47.8645C250.361 47.2051 250.799 45.388 251.431 45.0465C251.945 44.7712 251.935 44.7712 251.864 44.0976C251.787 43.8132 251.765 43.5172 251.798 43.2246" fill="white"/>
<path d="M231.822 42.5604C231.896 41.897 232.095 41.2534 232.406 40.6627C232.649 40.166 232.96 39.7047 233.329 39.2916C233.4 39.2062 233.466 39.0449 233.59 39.1114C233.714 39.1778 233.59 39.3106 233.59 39.415C233.59 39.6285 233.59 39.8372 233.567 40.046C233.528 40.4398 233.619 40.7386 233.979 40.8809C234.106 40.9588 234.202 41.0778 234.251 41.2178C234.527 41.81 234.621 42.4702 234.522 43.1155C234.501 43.3475 234.39 43.5622 234.213 43.7133C234.031 43.8767 233.826 44.0125 233.604 44.1166C232.582 44.5531 231.812 43.9457 231.807 42.5746" fill="white"/>
<path d="M242.717 42.6467C242.013 42.8791 241.68 42.3193 241.361 41.7357C241.326 41.6677 241.307 41.5921 241.307 41.5151C241.307 41.4383 241.326 41.3625 241.361 41.2946C241.427 41.1012 241.517 40.9164 241.628 40.7442C242.147 40.0302 242.401 39.1578 242.346 38.2772C242.346 37.9688 242.245 37.5181 242.559 37.4137C242.874 37.3093 242.997 37.7648 243.139 38.0162C243.822 39.2483 244.068 40.6741 243.839 42.0631C243.838 42.1411 243.822 42.2183 243.791 42.2901C243.76 42.3619 243.715 42.4267 243.659 42.481C243.603 42.5354 243.536 42.578 243.463 42.6065C243.391 42.6348 243.313 42.6485 243.234 42.6467H242.717Z" fill="white"/>
<path d="M57.1001 46.5601V51.3566C57.1001 55.7371 56.3933 59.2652 54.9796 61.941L59.2161 66.4243L58.3412 67.468L54.2425 63.1413C52.3692 65.8834 49.6383 67.2561 46.0502 67.2593C42.5633 67.2593 39.8468 65.9198 37.9005 63.2409C35.9542 60.562 34.9874 56.6085 35.0001 51.3802V46.5601C35.0001 41.313 35.9669 37.3594 37.9005 34.6994C39.8341 32.0395 42.5506 30.6938 46.0502 30.6621C49.537 30.6621 52.2535 32 54.1997 34.6757C56.1461 37.3515 57.1128 41.313 57.1001 46.5601ZM36.379 46.5601V51.3566C36.379 56.2242 37.2238 59.8297 38.9133 62.1735C40.6028 64.517 42.9801 65.6905 46.0454 65.6937C49.174 65.6937 51.5672 64.495 53.225 62.0975L47.1057 55.5789L48.0567 54.4308L53.9668 60.7928C55.1333 58.4302 55.7165 55.2848 55.7165 51.3566V46.5601C55.7165 41.6989 54.8733 38.0932 53.187 35.7432C51.5006 33.3932 49.1217 32.2151 46.0502 32.2088C42.9786 32.2088 40.6012 33.3821 38.918 35.729C37.2349 38.0757 36.3885 41.6862 36.379 46.5601Z" fill="#BD322C"/>
<path d="M67.9199 32.5402V30.9746H90.2957V32.5402H79.7972V66.9455H78.4136V32.5402H67.9199Z" fill="white"/>
<path d="M103.65 66.9455V30.9746H121.88V32.5402H105.029V47.551H120.501V49.1166H105.029V65.3799H121.88V66.9455H103.65Z" fill="white"/>
<path d="M157.469 41.4486H156.09C155.108 35.2874 151.915 32.2067 146.514 32.2067C143.29 32.2067 140.873 33.3454 139.263 35.6226C137.653 37.8998 136.846 41.5371 136.843 46.5345V51.3546C136.843 56.3614 137.65 59.9985 139.263 62.2663C140.876 64.5341 143.293 65.6728 146.514 65.6822C147.684 65.7234 148.851 65.5273 149.942 65.1057C151.034 64.6841 152.029 64.0458 152.867 63.2295C154.527 61.5973 155.602 59.2695 156.09 56.2459H157.426C156.964 59.9969 155.705 62.7772 153.651 64.5864C151.693 66.336 149.147 67.2862 146.519 67.2479C139.149 67.2479 135.466 61.9469 135.469 51.345V46.5581C135.469 35.9595 139.152 30.6602 146.519 30.6602C149.177 30.6091 151.756 31.5575 153.746 33.3169C155.771 35.0216 157.014 37.7323 157.474 41.4486" fill="white"/>
<path d="M172.203 30.9746H173.588V47.4466H191.451V30.9746H192.835V66.9455H191.451V49.0122H173.588V66.9455H172.203V30.9746Z" fill="white"/>
<path d="M40.7203 87.1471V86.6727H44.1247V86.9289C44.1247 90.2878 42.9756 91.9689 40.6775 91.972C38.3794 91.9751 37.2509 90.3463 37.2921 87.0854V85.61C37.2921 82.3554 38.4221 80.7297 40.6822 80.7329C41.4971 80.7187 42.2877 81.0099 42.8979 81.5489C43.5836 82.2053 43.9933 83.0976 44.0438 84.0444H43.6159C43.3179 82.1468 42.3385 81.1979 40.6775 81.1979C40.2479 81.1696 39.8181 81.251 39.4288 81.4345C39.0394 81.6179 38.7034 81.8974 38.4523 82.2463C37.9768 82.9437 37.7105 84.0634 37.7105 85.5957V87.0712C37.7105 88.6084 37.9578 89.7249 38.4523 90.4207C38.7034 90.7696 39.0394 91.049 39.4288 91.2325C39.8181 91.416 40.2479 91.4974 40.6775 91.4692C42.6364 91.4692 43.6444 90.0238 43.7015 87.1329L40.7203 87.1471Z" fill="white"/>
<path d="M75.4649 89.0194L74.6138 91.8661H74.1621L77.4429 80.8262H77.8375L81.1183 91.8661H80.6429L79.7917 89.0194H75.4649ZM79.6728 88.5451L77.6379 81.7085L75.6028 88.5451H79.6728Z" fill="white"/>
<path d="M111.783 80.8262H112.178L115.753 88.6352L119.329 80.8262H119.724V91.8707H119.3V81.9317L115.948 89.2473H115.554L112.206 81.9317V91.8707H111.783V80.8262Z" fill="white"/>
<path d="M151.533 91.8707V80.8262H157.13V81.3054H151.957V85.9167H156.707V86.396H151.957V91.3916H157.13V91.8707H151.533Z" fill="white"/>
<path d="M194.098 82.5401L193.741 82.8106C193.516 82.4274 193.213 82.0949 192.853 81.8334C192.493 81.5718 192.083 81.3868 191.648 81.2899C191.214 81.1929 190.764 81.186 190.326 81.2696C189.889 81.3533 189.473 81.5258 189.105 81.7762C188.874 81.9864 188.692 82.2461 188.575 82.5362C188.458 82.8263 188.408 83.1391 188.43 83.4509C188.442 83.804 188.502 84.1537 188.611 84.4899C188.708 84.748 188.872 84.9756 189.087 85.1494L189.5 85.4673C189.676 85.5693 189.86 85.6551 190.051 85.7234L190.584 85.9132L191.192 86.0888C191.834 86.2615 192.451 86.51 193.032 86.8288C193.421 87.0502 193.734 87.3801 193.936 87.7777C194.148 88.2576 194.258 88.7761 194.259 89.3006C194.264 89.6575 194.197 90.0117 194.062 90.342C193.926 90.6721 193.725 90.9715 193.47 91.2221C193.149 91.4985 192.775 91.7088 192.373 91.8406C191.97 91.9725 191.544 92.0235 191.121 91.9906C190.452 92.0303 189.786 91.8814 189.197 91.561C188.608 91.2404 188.122 90.7614 187.793 90.1782L188.131 89.908C188.442 90.3956 188.859 90.8061 189.352 91.1082C189.899 91.3946 190.51 91.5321 191.126 91.5068C191.848 91.5546 192.563 91.3387 193.137 90.8994C193.367 90.703 193.551 90.4572 193.672 90.1804C193.794 89.9036 193.852 89.6028 193.841 89.3006C193.867 88.981 193.823 88.6596 193.713 88.3583C193.603 88.057 193.429 87.783 193.204 87.5547C192.595 87.0801 191.884 86.7551 191.126 86.6059C190.277 86.4177 189.478 86.0522 188.782 85.5337C188.501 85.2683 188.286 84.9418 188.152 84.5798C188.019 84.2176 187.971 83.8298 188.012 83.4462C187.994 83.0811 188.051 82.716 188.182 82.3746C188.313 82.0332 188.514 81.7227 188.772 81.4631C189.395 80.9296 190.204 80.6636 191.022 80.723C191.654 80.7012 192.28 80.8601 192.827 81.1812C193.373 81.5022 193.815 81.972 194.102 82.5353" fill="white"/>
</svg>
