<svg width="300" height="120" viewBox="0 0 300 120" fill="none" xmlns="http://www.w3.org/2000/svg">
<path d="M114.095 94.562C114.095 97.5377 111.683 99.9499 108.707 99.9499H90.388C87.4122 99.9499 85 97.5377 85 94.562V65.4679C85 62.4923 87.4122 60.0801 90.388 60.0801H108.707C111.683 60.0801 114.095 62.4923 114.095 65.4679V94.562Z" fill="url(#paint0_linear_8026_4350)"/>
<path d="M105.951 79.2468V80.0513C107.534 80.7626 108.839 82.5261 108.839 84.7228C108.839 88.4045 106.448 91.1271 101.2 91.1271H90.5195V69.0371H100.921C105.796 69.0371 108.217 71.7287 108.217 74.8845C108.217 76.8645 107.348 78.5043 105.951 79.2468ZM95.1459 77.7927H100.362C102.442 77.7927 103.467 76.9573 103.467 75.3175C103.467 73.6778 102.411 72.8734 100.331 72.8734H95.1459V77.7927ZM95.1459 87.198H100.517C102.846 87.198 104.088 86.3317 104.088 84.4754C104.088 82.588 102.908 81.6599 100.579 81.6599H95.1459V87.198Z" fill="white"/>
<path d="M118.039 94.5093C118.039 97.4848 120.451 99.897 123.427 99.897H142.285C145.26 99.897 147.673 97.4848 147.673 94.5093V65.415C147.673 62.4395 145.26 60.0273 142.285 60.0273H123.427C120.451 60.0273 118.039 62.4395 118.039 65.415V94.5093Z" fill="url(#paint1_linear_8026_4350)"/>
<path d="M128.919 95.7848H140.615V99.9999H124.451V77.3711H140.285V81.5863H128.919V86.3402H137.766V90.4604H128.919V95.7848Z" fill="white"/>
<mask id="mask0_8026_4350" style="mask-type:luminance" maskUnits="userSpaceOnUse" x="124" y="60" width="17" height="12">
<path d="M140.754 60.0801H124.59V71.3945H140.754V60.0801Z" fill="white"/>
</mask>
<g mask="url(#mask0_8026_4350)">
<path opacity="0.5" d="M128.919 67.1773H140.615V71.3926H124.451V48.7637H140.285V52.9789H128.919V57.7329H137.766V61.8529H128.919V67.1773Z" fill="white"/>
</g>
<path d="M181.161 94.5093C181.161 97.4848 178.749 99.897 175.773 99.897H156.915C153.94 99.897 151.527 97.4848 151.527 94.5093V65.415C151.527 62.4395 153.94 60.0273 156.915 60.0273H175.773C178.749 60.0273 181.161 62.4395 181.161 65.415V94.5093Z" fill="url(#paint2_linear_8026_4350)"/>
<path d="M172.556 91.3513L170.733 85.2346H162.188L160.366 91.3513H155.748L162.88 68.7227H170.137L177.3 91.3513H172.556ZM165.738 73.2548L163.382 81.1146H169.477L167.121 73.2548H165.738Z" fill="white"/>
<path d="M185.168 94.5621C185.168 97.5378 187.58 99.9499 190.555 99.9499H209.413C212.389 99.9499 214.802 97.5378 214.802 94.5621V65.468C214.802 62.4924 212.389 60.0801 209.413 60.0801H190.555C187.58 60.0801 185.168 62.4924 185.168 65.468V94.5621Z" fill="url(#paint3_linear_8026_4350)"/>
<path d="M209.527 60.0801V64.2319H202.468V82.7089H197.729V64.2319H190.67V60.0801H209.527Z" fill="white"/>
<mask id="mask1_8026_4350" style="mask-type:luminance" maskUnits="userSpaceOnUse" x="190" y="88" width="20" height="12">
<path d="M209.527 88.6367H190.67V99.9511H209.527V88.6367Z" fill="white"/>
</mask>
<g mask="url(#mask1_8026_4350)">
<path opacity="0.5" d="M209.508 88.6367V92.7885H202.448V111.266H197.711V92.7885H190.65V88.6367H209.508Z" fill="white"/>
</g>
<path d="M194.651 46.9858H212.226V53.027H187.742V20.5957H212.226V26.6368H194.651V33.4501H208.33V39.3549H194.651V46.9858Z" fill="white"/>
<path d="M149.881 53.027V20.5957H160.32L165.653 33.6771H166.838L172.126 20.5957H182.61V53.027H176.274V28.8624H175.089L169.618 41.944H162.827L157.402 28.8624H156.217V53.027H149.881Z" fill="white"/>
<path d="M139.797 53.027L137.181 44.2604H124.911L122.295 53.027H115.664L125.904 20.5957H136.324L146.609 53.027H139.797ZM130.008 27.091L126.625 38.3556H135.376L131.993 27.091H130.008Z" fill="white"/>
<path d="M100.236 34.9934H114.472V38.8098C114.472 46.3519 110.488 53.6215 100.46 53.6215C90.4323 53.6215 85.0156 46.6245 85.0156 36.8107C85.0156 27.0422 90.4772 20 100.505 20C107.802 20 112.413 23.9073 113.622 29.8591H106.683C105.966 27.4512 103.907 26.0428 100.46 26.0428C94.7301 26.0428 91.8649 30.6316 91.8649 36.8107C91.8649 42.9897 94.7301 47.6241 100.505 47.6241C105.429 47.6241 107.668 44.6709 107.802 40.5363H100.236V34.9934Z" fill="white"/>
<defs>
<linearGradient id="paint0_linear_8026_4350" x1="99.5474" y1="99.9499" x2="99.5474" y2="60.0801" gradientUnits="userSpaceOnUse">
<stop stop-color="#057400"/>
<stop offset="0.632213" stop-color="#2BDC24"/>
</linearGradient>
<linearGradient id="paint1_linear_8026_4350" x1="132.856" y1="99.897" x2="132.856" y2="60.0273" gradientUnits="userSpaceOnUse">
<stop stop-color="#057400"/>
<stop offset="0.632213" stop-color="#2BDC24"/>
</linearGradient>
<linearGradient id="paint2_linear_8026_4350" x1="166.344" y1="99.897" x2="166.344" y2="60.0273" gradientUnits="userSpaceOnUse">
<stop stop-color="#057400"/>
<stop offset="0.632213" stop-color="#2BDC24"/>
</linearGradient>
<linearGradient id="paint3_linear_8026_4350" x1="199.984" y1="99.9499" x2="199.984" y2="60.0801" gradientUnits="userSpaceOnUse">
<stop stop-color="#057400"/>
<stop offset="0.632213" stop-color="#2BDC24"/>
</linearGradient>
</defs>
</svg>
