<svg width="300" height="120" viewBox="0 0 300 120" fill="none" xmlns="http://www.w3.org/2000/svg">
<path fill-rule="evenodd" clip-rule="evenodd" d="M106.042 104.394C106.038 104.631 106.074 104.828 106.152 104.987C106.229 105.146 106.335 105.273 106.471 105.368C106.606 105.462 106.766 105.53 106.951 105.571C107.136 105.611 107.333 105.632 107.544 105.632C107.664 105.632 107.795 105.615 107.937 105.58C108.079 105.546 108.211 105.491 108.333 105.416C108.456 105.341 108.558 105.244 108.639 105.126C108.721 105.008 108.762 104.865 108.762 104.697C108.762 104.568 108.733 104.457 108.675 104.362C108.617 104.268 108.542 104.188 108.449 104.124C108.357 104.059 108.255 104.007 108.143 103.966C108.031 103.925 107.922 103.892 107.814 103.866L106.79 103.615C106.657 103.58 106.527 103.537 106.4 103.486C106.273 103.434 106.163 103.366 106.068 103.28C105.974 103.194 105.897 103.088 105.839 102.964C105.781 102.839 105.752 102.687 105.752 102.506C105.752 102.395 105.774 102.264 105.817 102.113C105.86 101.963 105.94 101.821 106.058 101.688C106.177 101.555 106.339 101.442 106.545 101.35C106.751 101.257 107.015 101.211 107.338 101.211C107.565 101.211 107.782 101.241 107.988 101.301C108.195 101.361 108.375 101.452 108.53 101.572C108.684 101.692 108.808 101.841 108.9 102.02C108.993 102.198 109.039 102.405 109.039 102.642H108.601C108.592 102.465 108.552 102.312 108.481 102.181C108.411 102.05 108.318 101.94 108.204 101.852C108.091 101.764 107.959 101.698 107.811 101.652C107.663 101.607 107.507 101.585 107.344 101.585C107.194 101.585 107.049 101.601 106.909 101.633C106.769 101.665 106.647 101.717 106.542 101.788C106.436 101.859 106.352 101.952 106.287 102.068C106.223 102.184 106.19 102.328 106.19 102.5C106.19 102.607 106.209 102.701 106.245 102.78C106.282 102.86 106.332 102.927 106.397 102.983C106.461 103.039 106.535 103.084 106.619 103.119C106.703 103.153 106.792 103.181 106.886 103.202L108.008 103.479C108.171 103.522 108.325 103.575 108.469 103.637C108.612 103.7 108.739 103.777 108.849 103.869C108.958 103.962 109.044 104.074 109.107 104.208C109.169 104.341 109.2 104.502 109.2 104.691C109.2 104.742 109.195 104.811 109.184 104.897C109.173 104.983 109.147 105.074 109.107 105.171C109.066 105.268 109.008 105.365 108.932 105.464C108.857 105.563 108.754 105.652 108.623 105.732C108.492 105.811 108.33 105.876 108.137 105.925C107.943 105.974 107.711 105.999 107.441 105.999C107.17 105.999 106.919 105.968 106.687 105.906C106.455 105.843 106.257 105.748 106.094 105.619C105.931 105.49 105.805 105.325 105.717 105.123C105.629 104.921 105.591 104.678 105.604 104.394H106.042ZM119.952 101.308H123.593V101.682H121.988V105.909H121.55V101.682H119.952V101.308ZM134.525 101.308H134.963V104.156C134.963 104.422 134.993 104.649 135.053 104.836C135.113 105.023 135.201 105.175 135.317 105.293C135.433 105.412 135.575 105.498 135.743 105.551C135.91 105.605 136.099 105.632 136.31 105.632C136.525 105.632 136.716 105.605 136.883 105.551C137.051 105.498 137.193 105.412 137.309 105.293C137.425 105.175 137.513 105.023 137.573 104.836C137.633 104.649 137.663 104.422 137.663 104.156V101.308H138.101V104.253C138.101 104.489 138.068 104.713 138.001 104.926C137.935 105.139 137.83 105.325 137.686 105.484C137.542 105.643 137.357 105.768 137.131 105.861C136.906 105.953 136.632 105.999 136.31 105.999C135.992 105.999 135.72 105.953 135.495 105.861C135.269 105.768 135.084 105.643 134.94 105.484C134.796 105.325 134.691 105.139 134.625 104.926C134.558 104.713 134.525 104.489 134.525 104.253V101.308ZM149.53 101.308H151.121C151.822 101.325 152.349 101.521 152.703 101.897C153.058 102.273 153.235 102.843 153.235 103.608C153.235 104.373 153.058 104.943 152.703 105.319C152.349 105.695 151.822 105.892 151.121 105.909H149.53V101.308ZM149.968 105.535H150.902C151.233 105.535 151.518 105.5 151.756 105.429C151.995 105.358 152.191 105.245 152.346 105.091C152.5 104.936 152.614 104.736 152.687 104.491C152.76 104.246 152.797 103.952 152.797 103.608C152.797 103.265 152.76 102.97 152.687 102.725C152.614 102.481 152.5 102.281 152.346 102.126C152.191 101.971 151.995 101.859 151.756 101.788C151.518 101.717 151.233 101.682 150.902 101.682H149.968V105.535ZM164.522 101.308H164.96V105.909H164.522V101.308ZM176.659 103.608C176.659 103.857 176.692 104.103 176.759 104.346C176.825 104.589 176.928 104.806 177.068 104.997C177.208 105.188 177.387 105.342 177.606 105.458C177.825 105.574 178.087 105.632 178.392 105.632C178.697 105.632 178.959 105.574 179.175 105.458C179.392 105.342 179.57 105.188 179.71 104.997C179.85 104.806 179.953 104.589 180.019 104.346C180.086 104.103 180.12 103.857 180.12 103.608C180.12 103.355 180.086 103.108 180.019 102.867C179.953 102.627 179.85 102.411 179.71 102.219C179.57 102.028 179.392 101.875 179.175 101.759C178.959 101.643 178.697 101.585 178.392 101.585C178.087 101.585 177.825 101.643 177.606 101.759C177.387 101.875 177.208 102.028 177.068 102.219C176.928 102.411 176.825 102.627 176.759 102.867C176.692 103.108 176.659 103.355 176.659 103.608ZM176.221 103.608C176.221 103.29 176.266 102.987 176.356 102.7C176.446 102.412 176.581 102.157 176.762 101.936C176.942 101.715 177.169 101.539 177.442 101.408C177.715 101.276 178.031 101.211 178.392 101.211C178.753 101.211 179.069 101.276 179.339 101.408C179.61 101.539 179.835 101.715 180.017 101.936C180.197 102.157 180.332 102.412 180.422 102.7C180.512 102.987 180.558 103.29 180.558 103.608C180.558 103.926 180.512 104.229 180.422 104.517C180.332 104.805 180.197 105.058 180.017 105.277C179.835 105.497 179.61 105.672 179.339 105.803C179.069 105.934 178.753 105.999 178.392 105.999C178.031 105.999 177.715 105.934 177.442 105.803C177.169 105.672 176.942 105.497 176.762 105.277C176.581 105.058 176.446 104.805 176.356 104.517C176.266 104.229 176.221 103.926 176.221 103.608ZM191.993 104.394C191.988 104.631 192.025 104.828 192.102 104.987C192.179 105.146 192.286 105.273 192.422 105.368C192.556 105.462 192.716 105.53 192.901 105.571C193.085 105.611 193.283 105.632 193.493 105.632C193.614 105.632 193.745 105.615 193.887 105.58C194.028 105.546 194.16 105.491 194.283 105.416C194.405 105.341 194.508 105.244 194.589 105.126C194.671 105.008 194.712 104.865 194.712 104.697C194.712 104.568 194.683 104.457 194.625 104.362C194.566 104.268 194.492 104.188 194.4 104.124C194.308 104.059 194.205 104.007 194.093 103.966C193.981 103.925 193.872 103.892 193.765 103.866L192.739 103.615C192.607 103.58 192.477 103.537 192.35 103.486C192.224 103.434 192.113 103.366 192.018 103.28C191.924 103.194 191.847 103.088 191.789 102.964C191.732 102.839 191.703 102.687 191.703 102.506C191.703 102.395 191.724 102.264 191.767 102.113C191.81 101.963 191.89 101.821 192.008 101.688C192.127 101.555 192.288 101.442 192.495 101.35C192.701 101.257 192.966 101.211 193.288 101.211C193.515 101.211 193.733 101.241 193.938 101.301C194.144 101.361 194.326 101.452 194.48 101.572C194.634 101.692 194.758 101.841 194.85 102.02C194.942 102.198 194.988 102.405 194.988 102.642H194.551C194.542 102.465 194.502 102.312 194.432 102.181C194.361 102.05 194.269 101.94 194.155 101.852C194.041 101.764 193.91 101.698 193.761 101.652C193.613 101.607 193.457 101.585 193.294 101.585C193.144 101.585 192.999 101.601 192.859 101.633C192.719 101.665 192.596 101.717 192.492 101.788C192.386 101.859 192.302 101.952 192.238 102.068C192.173 102.184 192.141 102.328 192.141 102.5C192.141 102.607 192.159 102.701 192.196 102.78C192.232 102.86 192.282 102.927 192.347 102.983C192.411 103.039 192.486 103.084 192.569 103.119C192.653 103.153 192.742 103.181 192.836 103.202L193.958 103.479C194.121 103.522 194.275 103.575 194.418 103.637C194.563 103.7 194.689 103.777 194.799 103.869C194.908 103.962 194.994 104.074 195.057 104.208C195.118 104.341 195.149 104.502 195.149 104.691C195.149 104.742 195.145 104.811 195.134 104.897C195.123 104.983 195.098 105.074 195.057 105.171C195.016 105.268 194.957 105.365 194.883 105.464C194.808 105.563 194.704 105.652 194.573 105.732C194.442 105.811 194.28 105.876 194.087 105.925C193.894 105.974 193.661 105.999 193.391 105.999C193.121 105.999 192.868 105.968 192.637 105.906C192.404 105.843 192.207 105.748 192.044 105.619C191.88 105.49 191.755 105.325 191.667 105.123C191.579 104.921 191.542 104.678 191.555 104.394H191.993Z" fill="white"/>
<path d="M104.44 93.0352V96.9298H94.7014L88.8613 93.0352H104.44ZM211.501 93.0352L205.661 96.9298H195.927V93.0352H211.501ZM111.246 81.3563L114.166 85.6036L117.086 81.3563H121.953L116.599 89.143L121.953 96.9298H117.086L114.166 92.6826L111.246 96.9298H106.379L111.733 89.143L106.379 81.3563H111.246ZM193.98 81.3553V85.2487H184.248L193.98 93.0355V96.9288H178.408V93.0355H188.14L178.408 85.2487V81.3553H193.98ZM139.473 81.356V93.0354H127.793V96.9283H123.899V81.356H139.473ZM164.78 81.356L172.567 91.0884V81.356H176.461V96.9283H172.567L164.78 87.1957V96.9283H160.887V81.356H164.78ZM150.18 77.4629L158.94 96.9283H151.153V93.0355H149.207V96.9283H141.42L150.18 77.4629ZM104.44 87.1956V91.0902H86.9133L81.0732 87.1956H104.44ZM219.288 87.1956L213.448 91.0897L195.927 91.0902V87.1956H219.288ZM135.58 85.249H127.793V89.1424H135.58V85.249ZM104.44 81.356V85.2506H79.1253L73.2852 81.3563L104.44 81.356ZM227.074 81.3563L221.235 85.2497L195.927 85.2506V81.356L227.074 81.3563Z" fill="url(#paint0_linear_8026_4029)"/>
<path fill-rule="evenodd" clip-rule="evenodd" d="M104.83 92.6453V97.3187H94.5841L87.5763 92.6453H104.83ZM212.787 92.6453L205.78 97.3187H195.538V92.6453H212.787ZM116.882 80.9664H122.693L117.072 89.1425L122.693 97.3187H116.882L114.166 93.3691L111.451 97.3187H105.639L111.261 89.1425L105.639 80.9664H111.451L114.166 84.9158L116.882 80.9664ZM194.37 80.9654V85.6374H185.358L194.37 92.8478V97.3176H178.019V92.6455H187.031L178.019 85.4353V80.9654H194.37ZM139.863 80.9661V93.4241H128.183V97.317H123.511V80.9661H139.863ZM135.191 85.6378H128.183V88.7526H135.191V85.6378ZM164.968 80.9661L172.179 89.978V80.9661H176.85V97.317H172.381L165.17 88.305V97.317H160.498V80.9661H164.968ZM150.18 76.5137L159.543 97.317H150.764V93.4243H149.597V97.317H140.818L150.18 76.5137ZM104.83 86.8057V91.479H86.7959L79.7881 86.8057H104.83ZM220.574 86.8057L213.566 91.4785L195.538 91.479V86.8057H220.574ZM104.83 80.9661V85.6394H79.0078L72 80.9664L104.83 80.9661ZM195.538 80.9661L228.362 80.9664L221.353 85.6384L195.538 85.6394V80.9661Z" fill="white"/>
<path fill-rule="evenodd" clip-rule="evenodd" d="M134.412 14H166.338C170.638 14 174.125 17.4863 174.125 21.7868V49.4299C174.125 62.5464 163.491 73.1795 150.375 73.1795C137.258 73.1795 126.625 62.5464 126.625 49.4299V21.7868C126.625 17.4863 130.111 14 134.412 14Z" fill="white"/>
<path fill-rule="evenodd" clip-rule="evenodd" d="M134.41 17.1152H166.337C168.916 17.1152 171.008 19.207 171.008 21.7873V49.4304C171.008 60.8268 161.77 70.0653 150.373 70.0653C138.977 70.0653 129.738 60.8268 129.738 49.4304V21.7873C129.738 19.207 131.83 17.1152 134.41 17.1152Z" fill="#E67E17"/>
<path fill-rule="evenodd" clip-rule="evenodd" d="M134.413 20.2285H166.339C167.199 20.2285 167.897 20.9258 167.897 21.7859V49.429C167.897 59.1051 160.052 66.9492 150.376 66.9492C140.7 66.9492 132.855 59.1051 132.855 49.429V21.7859C132.855 20.9258 133.553 20.2285 134.413 20.2285Z" fill="url(#paint1_radial_8026_4029)"/>
<path fill-rule="evenodd" clip-rule="evenodd" d="M150.363 23.3438C150.822 23.3438 151.225 23.652 151.344 24.0957L153.267 31.2366C153.299 31.2551 153.33 31.276 153.359 31.2991L158.867 35.666C159.372 36.0668 159.457 36.8015 159.056 37.3069C158.835 37.5864 158.498 37.7494 158.141 37.7494H155.017C155.589 40.2393 154.092 42.7555 151.604 43.4253C151.2 43.5342 150.782 43.5894 150.363 43.5894C147.726 43.5894 145.589 41.4519 145.589 38.8153C145.589 38.4565 145.629 38.099 145.709 37.7495L142.586 37.7494C141.941 37.7494 141.418 37.2263 141.418 36.5813C141.418 36.2247 141.581 35.8876 141.86 35.666L147.368 31.2991C147.397 31.2762 147.427 31.2555 147.459 31.2371L149.382 24.0957C149.501 23.652 149.904 23.3438 150.363 23.3438Z" fill="white"/>
<path fill-rule="evenodd" clip-rule="evenodd" d="M146.197 32.9745C146.275 32.8118 146.455 32.7244 146.631 32.7635C146.841 32.8098 146.974 33.0176 146.928 33.2276L146.168 36.6657C146.128 36.844 145.97 36.971 145.788 36.971H144.889C144.831 36.971 144.773 36.9578 144.72 36.9324C144.527 36.839 144.445 36.6062 144.539 36.4126L146.197 32.9745ZM150.157 23.8966C150.217 23.8988 150.263 23.9489 150.261 24.0085L149.927 33.0152C149.9 33.7553 149.416 34.4007 148.714 34.6349C148.595 34.6747 148.467 34.6817 148.344 34.6555C147.964 34.5741 147.722 34.2002 147.804 33.8205L149.824 24.392C149.862 24.2163 149.949 24.0552 150.077 23.9281C150.098 23.9069 150.127 23.8955 150.157 23.8966Z" fill="#CCCCCC"/>
<path fill-rule="evenodd" clip-rule="evenodd" d="M150.374 36.5809C147.26 36.5809 146.125 38.5276 146.125 39.3063C146.544 36.4512 147.974 35.0234 150.414 35.0234C152.853 35.0234 154.279 36.4512 154.691 39.3063C154.691 38.5276 153.489 36.5809 150.374 36.5809Z" fill="#AAAAAA"/>
<path fill-rule="evenodd" clip-rule="evenodd" d="M150.376 37.3613C152.712 37.3613 154.138 38.6185 154.258 40.0867C155.816 59.1643 162.445 65.3938 166.728 56.0495C166.728 65.0044 157.014 67.3374 150.376 67.3404C143.738 67.3374 134.023 65.0044 134.023 56.0495C138.306 65.3938 144.936 59.1643 146.493 40.0867C146.613 38.6185 148.04 37.3613 150.376 37.3613Z" fill="#E67E17"/>
<path fill-rule="evenodd" clip-rule="evenodd" d="M150.375 40.8634C150.503 40.8634 150.638 40.8382 150.714 40.9143C150.789 40.9898 150.765 41.1236 150.765 41.2528C150.765 46.8048 152.351 51.3423 153.623 54.9467C154.383 57.1005 155.047 58.8845 155.047 60.3304C155.047 61.7188 154.528 62.8017 153.76 63.5692C152.809 64.5206 151.498 65.0023 150.375 65.0023C149.252 65.0023 147.942 64.5206 146.99 63.5692C146.223 62.8017 145.703 61.7188 145.703 60.3304C145.703 58.8845 146.368 57.1005 147.128 54.9467C148.4 51.3423 149.986 46.8048 149.986 41.2526C149.986 41.1236 149.961 40.9898 150.037 40.9143C150.113 40.8382 150.247 40.8634 150.375 40.8634Z" fill="white" stroke="#FFD500" stroke-width="6"/>
<path fill-rule="evenodd" clip-rule="evenodd" d="M150.375 38.5273C151.271 38.5273 151.918 38.8146 152.366 39.2627C152.809 39.7063 153.101 40.3487 153.101 41.2527C153.101 46.4935 154.626 50.7696 155.826 54.1693C156.696 56.6341 157.383 58.682 157.383 60.3303C157.383 62.4354 156.571 64.0622 155.412 65.2211C153.996 66.6367 152.043 67.3384 150.375 67.3384C148.708 67.3384 146.754 66.6367 145.339 65.2211C144.18 64.0622 143.367 62.4354 143.367 60.3303C143.367 58.682 144.055 56.6341 144.925 54.1693C146.125 50.7696 147.65 46.4935 147.65 41.2528C147.65 40.3487 147.941 39.7063 148.385 39.2627C148.833 38.8146 149.48 38.5273 150.375 38.5273Z" stroke="#E67E17" stroke-width="6"/>
<path d="M148.818 41.2528C148.818 40.2145 149.357 39.6953 150.375 39.6953C151.394 39.6953 151.933 40.2145 151.933 41.2528C151.933 50.2075 156.215 56.4369 156.215 60.3304C156.215 64.2237 152.906 66.1704 150.375 66.1704C147.845 66.1704 144.535 64.2237 144.535 60.3304C144.535 56.4369 148.818 50.2075 148.818 41.2528Z" stroke="#FFBB33" stroke-width="4"/>
<path fill-rule="evenodd" clip-rule="evenodd" d="M159.682 27.1596L157.768 26.8441C157.555 26.8092 157.412 26.6088 157.447 26.3966C157.474 26.232 157.603 26.1029 157.768 26.0758L159.682 25.7604C160.341 25.6519 160.857 25.1356 160.966 24.4769L161.281 22.5624C161.316 22.3503 161.516 22.2066 161.728 22.2416C161.893 22.2687 162.022 22.3978 162.049 22.5624L162.365 24.4769C162.473 25.1356 162.989 25.6519 163.648 25.7604L165.563 26.0758C165.774 26.1108 165.919 26.3111 165.884 26.5233C165.856 26.6879 165.727 26.817 165.563 26.8441L163.648 27.1596C162.989 27.268 162.473 27.7842 162.365 28.443L162.049 30.3575C162.014 30.5695 161.814 30.7133 161.602 30.6783C161.437 30.6512 161.308 30.5222 161.281 30.3575L160.966 28.443C160.857 27.7842 160.341 27.268 159.682 27.1596Z" fill="#FFD500"/>
<path fill-rule="evenodd" clip-rule="evenodd" d="M137.874 30.2761L137.472 30.2099C137.335 30.1874 137.243 30.0582 137.265 29.9214C137.283 29.8151 137.366 29.7318 137.472 29.7144L137.874 29.6481C138.533 29.5396 139.049 29.0233 139.158 28.3646L139.224 27.9622C139.247 27.8255 139.376 27.7328 139.513 27.7553C139.619 27.7728 139.702 27.8561 139.72 27.9622L139.786 28.3646C139.895 29.0233 140.411 29.5396 141.07 29.6481L141.472 29.7144C141.609 29.7369 141.701 29.8662 141.679 30.0029C141.661 30.1092 141.578 30.1924 141.472 30.2099L141.07 30.2761C140.411 30.3847 139.895 30.901 139.786 31.5598L139.72 31.9619C139.697 32.0989 139.568 32.1915 139.431 32.1689C139.325 32.1514 139.242 32.0682 139.224 31.9619L139.158 31.5598C139.049 30.901 138.533 30.3847 137.874 30.2761Z" fill="#FFD500"/>
<path fill-rule="evenodd" clip-rule="evenodd" d="M139.877 46.9638L139.642 46.9252C139.52 46.905 139.438 46.7903 139.458 46.6685C139.474 46.5742 139.548 46.5001 139.642 46.4846L139.877 46.4458C140.536 46.3373 141.052 45.821 141.161 45.1624L141.199 44.9273C141.219 44.8056 141.334 44.7231 141.456 44.7433C141.55 44.7588 141.624 44.8328 141.64 44.9273L141.679 45.1624C141.787 45.821 142.303 46.3373 142.962 46.4458L143.197 46.4846C143.319 46.5046 143.401 46.6195 143.381 46.7412C143.366 46.8356 143.292 46.9095 143.197 46.9252L142.962 46.9638C142.303 47.0724 141.787 47.5886 141.679 48.2473L141.64 48.4825C141.62 48.6042 141.505 48.6865 141.383 48.6665C141.289 48.651 141.215 48.5769 141.199 48.4825L141.161 48.2473C141.052 47.5886 140.536 47.0724 139.877 46.9638Z" fill="#FFD500"/>
<defs>
<linearGradient id="paint0_linear_8026_4029" x1="15452.3" y1="1066.41" x2="311.934" y2="-850.1" gradientUnits="userSpaceOnUse">
<stop stop-color="#666666"/>
<stop offset="1" stop-color="white"/>
</linearGradient>
<radialGradient id="paint1_radial_8026_4029" cx="0" cy="0" r="1" gradientUnits="userSpaceOnUse" gradientTransform="translate(4804.75 -1304.16) rotate(-90) scale(3504.05 6229.46)">
<stop stop-color="#C43E2F"/>
<stop offset="1" stop-color="#2B0E0A"/>
</radialGradient>
</defs>
</svg>
