<svg width="300" height="120" viewBox="0 0 300 120" fill="none" xmlns="http://www.w3.org/2000/svg">
<path opacity="0.992" fill-rule="evenodd" clip-rule="evenodd" d="M159.54 16C159.565 16 159.59 16 159.615 16C165.08 24.0281 170.563 32.0473 176.061 40.0578C180.511 36.9256 184.978 33.8441 189.464 30.8133C188.037 35.5042 186.601 40.1945 185.157 44.8842C185.223 44.9399 185.297 44.9771 185.38 44.9955C194.318 46.0416 203.253 47.1059 212.185 48.1884C202.469 51.6415 192.755 55.0942 183.041 58.5466C184.365 69.5365 185.714 80.5259 187.088 91.5146C187.063 91.5146 187.038 91.5146 187.014 91.5146C181.511 82.9051 175.992 74.3042 170.455 65.712C170.381 65.6624 170.307 65.6624 170.233 65.712C165.889 68.6696 161.545 71.6274 157.201 74.5851C158.526 69.98 159.874 65.3763 161.248 60.7742C152.186 59.7095 143.128 58.6205 134.072 57.5071C143.794 53.9735 153.521 50.4466 163.253 46.9261C161.97 36.6259 160.733 26.3172 159.54 16Z" fill="#E81039"/>
<path opacity="0.992" fill-rule="evenodd" clip-rule="evenodd" d="M71.4038 56.3182C75.1986 56.1193 78.7874 56.8741 82.1704 58.5829C86.6129 61.1633 89.0137 65.0369 89.3728 70.2034C85.8826 70.2281 82.3927 70.2034 78.9033 70.1292C78.368 67.1809 76.6107 65.5102 73.6313 65.1171C70.0429 64.912 67.6791 66.5084 66.5402 69.9064C65.9608 72.1689 66.0845 74.3964 66.9115 76.5891C68.4481 79.5541 70.886 80.7792 74.2254 80.2646C76.8932 79.6635 78.4525 78.0176 78.9033 75.3268C82.3927 75.2526 85.8826 75.2278 89.3728 75.2526C88.7012 82.0504 85.0877 86.4189 78.532 88.3581C74.0693 89.543 69.6636 89.3698 65.3151 87.8383C60.6528 85.9483 57.5219 82.6193 55.9221 77.8514C55.0393 74.6227 54.9898 71.3804 55.7736 68.1243C57.4402 62.6956 60.9672 59.0696 66.3546 57.2464C68.0114 56.7353 69.6945 56.4259 71.4038 56.3182Z" fill="#E81039"/>
<path opacity="0.993" fill-rule="evenodd" clip-rule="evenodd" d="M108.307 56.3197C112.225 56.0959 115.912 56.9002 119.37 58.7329C124.558 61.9149 127.182 66.5804 127.241 72.7295C127.139 79.1883 124.293 83.9776 118.702 87.0973C115.392 88.6801 111.902 89.3484 108.233 89.1021C103.215 88.9412 98.9952 87.0478 95.5725 83.4218C92.6465 79.8149 91.4089 75.6815 91.8598 71.0217C92.543 64.9614 95.6245 60.6177 101.104 57.9904C103.417 57.0109 105.818 56.454 108.307 56.3197ZM109.421 65.1558C113.267 65.4002 115.507 67.4297 116.14 71.2444C116.516 73.6735 116.021 75.9011 114.655 77.9272C112.841 79.9315 110.601 80.6616 107.936 80.1176C105.376 79.4396 103.755 77.8184 103.072 75.2541C102.519 72.9234 102.742 70.6711 103.74 68.4971C105.018 66.3421 106.911 65.2283 109.421 65.1558Z" fill="#E81039"/>
<path opacity="0.991" fill-rule="evenodd" clip-rule="evenodd" d="M196.593 56.3193C200.123 56.2612 203.439 57.0656 206.543 58.7325C210.845 61.3302 213.146 65.1542 213.449 70.2045C209.959 70.2045 206.469 70.2045 202.979 70.2045C202.614 67.4261 201.054 65.7554 198.301 65.1925C193.831 64.762 191.195 66.7544 190.393 71.1698C190.046 73.4659 190.442 75.6192 191.581 77.6298C193.325 79.9277 195.627 80.794 198.487 80.2286C201.144 79.6133 202.642 77.9549 202.979 75.2537C206.469 75.2537 209.959 75.2537 213.449 75.2537C212.954 81.4523 209.811 85.6723 204.019 87.9137C199.893 89.3054 195.71 89.5034 191.47 88.5077C190.698 88.2917 189.943 88.0318 189.205 87.7281C188.005 78.575 186.83 69.4172 185.678 60.2547C189.317 58.9263 192.956 57.6145 196.593 56.3193Z" fill="#E81039"/>
<path opacity="0.992" fill-rule="evenodd" clip-rule="evenodd" d="M227.408 56.3182C229.972 56.2394 232.398 56.7715 234.685 57.9147C237.094 59.328 238.542 61.4194 239.028 64.189C239.74 67.9695 238.688 71.15 235.873 73.7304C235.317 74.1938 234.748 74.6393 234.165 75.067C232.234 76.255 230.304 77.443 228.373 78.6311C227.744 79.0868 227.249 79.6561 226.888 80.3389C230.898 80.376 234.907 80.3884 238.917 80.376C238.917 82.9253 238.917 85.4747 238.917 88.024C231.022 88.024 223.126 88.024 215.231 88.024C215.1 85.0638 215.534 82.1927 216.53 79.4107C217.607 77.024 219.203 75.0563 221.319 73.5077C221.988 73.0374 222.656 72.5671 223.324 72.0969C225.045 71.1008 226.752 70.086 228.447 69.0525C229.036 68.613 229.518 68.0808 229.895 67.4561C230.435 65.441 229.667 64.3272 227.594 64.1147C225.46 64.3809 224.432 65.5936 224.512 67.7531C221.344 67.7531 218.176 67.7531 215.008 67.7531C215.413 61.5191 218.68 57.7941 224.809 56.5781C225.684 56.459 226.55 56.3724 227.408 56.3182Z" fill="#E81039"/>
<path opacity="0.997" fill-rule="evenodd" clip-rule="evenodd" d="M42 57.1367C45.4404 57.1367 48.8807 57.1367 52.3211 57.1367C52.3211 67.4331 52.3211 77.7293 52.3211 88.0257C48.8807 88.0257 45.4404 88.0257 42 88.0257C42 77.7293 42 67.4331 42 57.1367Z" fill="#E81039"/>
<path opacity="0.992" fill-rule="evenodd" clip-rule="evenodd" d="M258 57.1367C258 67.4331 258 77.7293 258 88.0257C254.757 88.0257 251.515 88.0257 248.273 88.0257C248.285 82.3082 248.273 76.5907 248.235 70.8734C246.163 72.1681 243.898 72.7621 241.441 72.6554C241.441 69.7349 241.441 66.8142 241.441 63.8937C243.621 63.8685 245.651 63.3116 247.53 62.223C249.288 60.9475 250.427 59.2521 250.946 57.1367C253.297 57.1367 255.648 57.1367 258 57.1367Z" fill="#E81039"/>
<path opacity="0.993" fill-rule="evenodd" clip-rule="evenodd" d="M129.32 59.5117C133.829 60.0085 138.333 60.5406 142.835 61.1081C145.4 65.6319 147.937 70.1737 150.446 74.7334C150.483 70.5011 150.495 66.2687 150.483 62.0363C153.021 62.2839 155.546 62.5933 158.056 62.9644C156.292 68.7894 154.535 74.6182 152.785 80.4509C152.822 80.5267 152.871 80.5391 152.933 80.488C155.197 78.9227 157.474 77.3758 159.764 75.8472C159.839 79.9061 159.863 83.9652 159.839 88.0246C155.977 88.0493 152.116 88.0246 148.255 87.9504C145.05 82.1834 141.844 76.4165 138.639 70.6496C138.602 76.4412 138.589 82.2328 138.602 88.0246C135.508 88.0246 132.414 88.0246 129.32 88.0246C129.32 78.5203 129.32 69.016 129.32 59.5117Z" fill="#E81039"/>
<path opacity="0.995" fill-rule="evenodd" clip-rule="evenodd" d="M169.639 69.0898C171.666 72.1706 173.683 75.2644 175.691 78.3713C175.728 81.5888 175.74 84.8064 175.728 88.0241C172.288 88.0241 168.847 88.0241 165.407 88.0241C165.394 82.6779 165.407 77.3317 165.444 71.9856C166.854 71.0278 168.252 70.0625 169.639 69.0898Z" fill="#E81039"/>
</svg>
